{"glyphs":{"0":{"ha":854,"x_min":75,"x_max":779,"o":"m 633 25 q 595 2 633 25 q 427 -21 557 -21 q 221 25 296 -21 q 110 177 145 72 q 75 463 75 282 q 110 747 75 642 q 221 898 145 851 q 427 945 297 945 q 633 898 557 945 q 744 747 709 851 q 779 463 779 642 q 744 177 779 282 q 633 25 709 72 m 427 167 q 490 173 465 167 q 536 198 515 180 q 570 249 557 216 q 589 335 582 283 q 595 463 595 387 q 589 590 595 538 q 570 674 582 642 q 536 726 557 707 q 490 750 515 744 q 427 757 465 757 q 351 746 380 757 q 300 704 322 735 q 269 614 278 673 q 260 463 260 556 q 269 310 260 368 q 300 220 278 252 q 351 178 322 189 q 427 167 380 167 m 416 356 l 330 356 l 439 568 l 525 568 l 416 356 z "},"1":{"ha":854,"x_min":93,"x_max":762,"o":"m 572 165 l 741 165 q 756 159 750 165 q 762 144 762 153 l 762 21 q 756 6 762 12 q 741 0 750 0 l 121 0 q 105 5 111 0 q 100 21 100 11 l 100 144 q 105 159 100 153 q 121 165 111 165 l 376 165 l 376 749 q 285 641 347 671 q 114 612 224 612 q 93 631 93 612 l 93 762 q 114 785 93 785 q 376 930 294 785 l 551 930 q 567 925 561 930 q 572 909 572 920 l 572 165 z "},"2":{"ha":854,"x_min":80,"x_max":752,"o":"m 731 0 l 100 0 q 86 5 92 0 q 80 21 80 11 l 80 119 q 97 233 80 181 q 141 319 113 284 q 205 382 169 353 q 281 431 241 410 q 361 470 321 452 q 438 505 401 488 q 502 543 474 523 q 546 590 530 562 q 563 652 563 618 q 526 737 563 705 q 417 768 489 768 q 310 736 351 768 q 265 635 269 705 q 241 614 264 614 l 100 614 q 86 621 91 614 q 81 638 81 628 q 171 864 81 784 q 420 945 261 945 q 660 872 570 945 q 749 663 749 800 q 724 539 749 594 q 656 450 698 485 q 565 388 615 416 q 466 339 515 361 q 375 294 416 317 q 308 238 334 271 q 282 165 282 206 l 731 165 q 746 159 740 165 q 752 144 752 153 l 752 21 q 746 6 752 12 q 731 0 740 0 z "},"3":{"ha":854,"x_min":75,"x_max":791,"o":"m 689 52 q 638 16 689 52 q 421 -21 587 -21 q 164 56 254 -21 q 75 278 75 133 q 80 295 75 288 q 94 302 85 302 l 235 302 q 259 281 258 302 q 418 155 267 156 q 537 185 495 155 q 579 271 579 215 q 359 398 579 397 q 339 418 338 398 l 339 523 q 361 544 339 544 q 563 659 563 544 q 522 741 563 713 q 418 768 481 768 q 311 738 353 768 q 266 642 269 707 q 241 621 265 621 l 100 621 q 86 628 92 621 q 81 644 81 635 q 171 867 81 789 q 420 945 261 945 q 591 917 517 945 q 710 831 666 888 q 753 693 753 773 q 719 573 753 623 q 610 491 685 523 l 610 475 q 791 252 791 413 q 689 52 791 125 z "},"4":{"ha":854,"x_min":56,"x_max":804,"o":"m 688 357 l 783 357 q 799 351 793 357 q 804 336 804 346 l 804 219 q 799 204 804 210 q 783 198 793 198 l 688 198 l 688 21 q 682 6 688 12 q 667 0 676 0 l 513 0 q 498 5 505 0 q 492 21 492 11 l 492 198 l 77 198 q 62 204 68 198 q 56 219 56 210 l 56 345 q 65 372 56 360 l 484 917 q 509 930 495 930 l 667 930 q 682 925 676 930 q 688 909 688 920 l 688 357 m 266 357 l 492 357 l 492 652 l 266 357 z "},"5":{"ha":854,"x_min":81,"x_max":787,"o":"m 419 -21 q 184 44 273 -21 q 81 242 95 109 q 100 263 79 263 l 240 263 q 262 243 257 263 q 422 146 290 146 q 555 189 513 146 q 597 307 597 232 q 554 427 597 384 q 431 471 511 471 q 283 399 326 471 q 252 391 273 383 l 121 439 q 107 465 104 446 l 191 913 q 212 930 194 931 l 688 930 q 703 925 697 930 q 709 909 709 920 l 709 787 q 703 772 709 778 q 688 766 697 766 l 340 766 l 305 577 l 322 577 q 490 634 374 634 q 707 548 627 634 q 787 314 787 463 q 690 67 787 155 q 419 -21 594 -21 z "},"6":{"ha":854,"x_min":78,"x_max":790,"o":"m 433 -21 q 170 67 259 -21 q 80 302 81 155 l 78 598 q 174 859 77 774 q 444 945 271 945 q 726 838 631 945 q 727 814 736 827 l 657 722 q 633 720 647 709 q 467 770 564 770 q 323 729 378 770 q 268 599 268 688 l 268 524 l 280 524 q 352 588 299 564 q 481 611 404 611 q 649 570 578 611 q 755 458 720 528 q 790 298 790 389 q 699 66 790 154 q 433 -21 607 -21 m 312 188 q 333 169 312 188 q 434 149 355 149 q 556 188 513 149 q 600 298 600 227 q 556 410 600 370 q 434 449 513 449 q 312 410 355 449 q 268 298 268 371 q 312 188 268 227 z "},"7":{"ha":854,"x_min":104,"x_max":779,"o":"m 124 930 l 758 930 q 773 925 768 930 q 779 909 779 920 l 779 780 q 774 753 779 764 l 409 22 q 382 0 398 0 l 228 0 q 213 6 218 0 q 212 22 208 13 l 585 766 l 279 766 l 279 668 q 274 653 279 659 q 258 647 268 647 l 124 647 q 110 653 115 647 q 104 668 104 659 l 104 909 q 110 925 104 919 q 124 930 115 930 z "},"8":{"ha":854,"x_min":64,"x_max":790,"o":"m 697 58 q 651 19 697 58 q 427 -21 604 -21 q 157 58 250 -21 q 64 265 64 138 q 107 417 64 352 q 236 509 151 481 l 236 526 q 155 597 184 548 q 126 708 126 646 q 204 878 126 811 q 427 945 283 945 q 650 878 572 945 q 728 708 728 811 q 699 597 728 646 q 618 526 670 548 l 618 509 q 746 417 703 481 q 790 265 790 352 q 697 58 790 138 m 338 604 q 354 591 338 604 q 427 578 370 578 q 516 604 485 578 q 548 681 548 630 q 516 760 548 732 q 427 787 484 787 q 338 759 370 787 q 307 681 307 732 q 338 604 307 630 m 303 183 q 327 165 303 183 q 427 146 351 146 q 551 183 503 146 q 600 291 600 221 q 552 398 600 361 q 427 435 503 435 q 302 398 351 435 q 254 291 254 361 q 303 183 254 221 z "},"9":{"ha":854,"x_min":64,"x_max":777,"o":"m 421 945 q 684 857 595 945 q 774 621 773 769 l 777 326 q 680 64 777 150 q 410 -21 583 -21 q 127 85 224 -21 q 127 110 117 96 l 197 201 q 222 204 208 214 q 387 154 289 154 q 531 195 476 154 q 586 325 586 235 l 586 399 l 574 399 q 503 336 555 359 q 374 313 450 313 q 205 354 276 313 q 99 465 134 395 q 64 625 64 534 q 156 857 64 769 q 421 945 248 945 m 542 735 q 520 755 542 735 q 420 774 498 774 q 298 735 342 774 q 254 625 254 696 q 298 514 254 553 q 420 475 342 475 q 542 514 498 475 q 586 625 586 553 q 542 735 586 696 z "}," ":{"ha":854,"x_min":0,"x_max":0,"o":""},"!":{"ha":854,"x_min":292,"x_max":564,"o":"m 473 367 l 382 367 q 366 373 373 367 q 357 389 358 378 l 307 802 q 335 906 300 867 q 427 945 371 945 q 519 906 484 945 q 547 802 555 867 l 498 389 q 490 373 498 379 q 473 367 482 367 m 428 -18 q 332 22 372 -18 q 292 118 292 62 q 332 215 292 175 q 428 254 372 254 q 524 214 484 254 q 564 118 564 174 q 524 22 564 62 q 428 -18 484 -18 z "},"\"":{"ha":854,"x_min":181,"x_max":673,"o":"m 323 515 l 210 515 q 190 532 189 515 l 181 950 q 202 972 181 972 l 331 972 q 352 950 352 972 l 344 532 q 323 515 344 515 m 644 515 l 531 515 q 511 532 510 515 l 502 950 q 523 972 502 972 l 652 972 q 673 950 673 972 l 665 532 q 644 515 665 515 z "},"#":{"ha":854,"x_min":49,"x_max":806,"o":"m 675 724 l 788 724 q 802 718 797 724 q 806 703 807 713 l 791 601 q 768 580 787 580 l 656 580 l 627 374 l 739 374 q 753 369 748 374 q 756 353 758 363 l 742 252 q 718 231 739 231 l 606 231 l 570 -31 q 546 -52 566 -52 l 439 -52 q 424 -46 429 -52 q 421 -31 419 -40 l 458 231 l 327 231 l 290 -31 q 267 -52 287 -52 l 160 -52 q 145 -46 151 -52 q 142 -31 140 -40 l 178 231 l 66 231 q 52 236 57 231 q 49 252 47 242 l 63 353 q 87 374 66 374 l 199 374 l 228 580 l 116 580 q 101 586 106 580 q 98 601 96 591 l 113 703 q 136 724 116 724 l 248 724 l 285 986 q 309 1007 288 1007 l 415 1007 q 430 1001 425 1007 q 433 986 435 995 l 397 724 l 527 724 l 564 986 q 587 1007 567 1007 l 694 1007 q 709 1001 704 1007 q 713 986 714 995 l 675 724 m 347 374 l 478 374 l 507 580 l 376 580 l 347 374 z "},"$":{"ha":854,"x_min":105,"x_max":750,"o":"m 750 346 q 683 199 750 254 q 486 132 615 143 l 486 -35 q 465 -56 486 -56 l 388 -56 q 368 -35 367 -56 l 368 132 q 183 187 252 141 q 105 319 113 233 q 110 334 104 328 q 125 340 116 340 l 270 340 q 290 326 286 340 q 390 277 307 285 l 390 422 q 337 430 359 426 q 284 441 315 433 q 232 459 254 450 q 187 485 210 469 q 150 520 164 500 q 126 569 136 541 q 117 631 117 597 q 181 780 117 724 q 368 846 245 836 l 368 1007 q 388 1028 368 1028 l 465 1028 q 486 1007 486 1028 l 486 846 q 660 791 593 836 q 735 665 727 747 q 730 650 736 656 q 715 644 724 644 l 570 644 q 549 658 554 644 q 463 701 536 691 l 463 557 q 510 551 490 554 q 557 542 529 548 q 606 529 586 536 q 650 510 627 521 q 690 483 674 498 q 721 448 707 467 q 743 402 736 429 q 750 346 750 376 m 308 636 q 328 593 308 608 q 390 568 347 577 l 390 702 q 308 636 308 694 m 463 411 l 463 277 q 559 344 559 286 q 536 388 559 373 q 463 411 513 403 z "},"%":{"ha":854,"x_min":34,"x_max":820,"o":"m 370 657 q 346 629 370 657 q 225 601 322 601 q 81 657 129 601 q 34 815 34 713 q 81 972 34 917 q 225 1027 129 1027 q 370 972 322 1027 q 418 815 418 917 q 370 657 418 713 m 226 734 q 272 754 260 734 q 284 814 284 775 q 272 873 284 853 q 226 894 260 894 q 181 874 193 894 q 170 815 170 854 q 181 754 170 775 q 226 734 193 734 m 138 114 l 74 176 q 74 206 58 189 l 688 851 q 718 852 701 867 l 783 789 q 783 760 798 776 l 168 115 q 138 114 155 100 m 627 -59 q 484 -3 532 -59 q 436 155 436 54 q 484 313 436 257 q 627 368 531 368 q 772 313 724 368 q 820 155 820 257 q 772 -3 820 53 q 627 -59 724 -59 m 627 75 q 673 95 661 75 q 685 155 685 115 q 673 214 685 195 q 627 234 661 234 q 582 214 594 234 q 570 155 570 195 q 583 96 570 116 q 627 75 595 75 z "},"&":{"ha":854,"x_min":34,"x_max":817,"o":"m 406 528 l 817 100 q 817 68 833 83 l 734 -16 q 703 -17 717 -33 l 597 94 q 490 12 559 43 q 343 -18 420 -18 q 121 66 208 -18 q 34 278 34 151 q 75 431 34 363 q 185 534 115 498 q 115 724 115 633 q 186 883 115 820 q 372 945 258 945 q 557 882 487 945 q 628 713 628 818 q 623 659 628 682 l 452 659 q 456 708 456 682 q 434 761 456 739 q 373 782 412 782 q 314 761 336 782 q 292 705 292 740 q 299 669 292 688 q 314 637 307 650 q 340 601 321 625 q 369 568 359 578 q 406 528 378 557 m 779 427 q 763 411 779 427 q 704 395 747 395 q 629 427 660 395 q 597 503 597 459 q 629 577 597 545 q 704 609 660 609 q 779 577 747 609 q 810 503 810 546 q 779 427 810 458 m 364 146 q 436 161 401 146 q 492 203 471 175 l 296 406 l 287 416 q 228 366 248 399 q 208 293 208 334 q 253 188 208 230 q 364 146 298 146 z "},"'":{"ha":854,"x_min":342,"x_max":513,"o":"m 484 515 l 371 515 q 350 532 350 515 l 342 950 q 363 972 342 972 l 492 972 q 513 950 513 972 l 504 532 q 484 515 505 515 z "},"(":{"ha":854,"x_min":190,"x_max":665,"o":"m 665 1062 l 665 879 q 575 869 614 879 q 508 842 536 860 q 459 796 479 824 q 425 734 438 768 q 405 655 412 701 q 395 563 398 609 q 393 455 393 516 q 398 308 393 368 q 420 191 404 247 q 467 101 437 135 q 546 48 496 68 q 665 29 595 29 l 665 -153 q 530 -140 591 -153 q 424 -107 469 -127 q 343 -53 379 -86 q 282 14 307 -20 q 241 95 258 49 q 213 182 223 141 q 198 274 203 222 q 191 365 193 326 q 190 455 190 405 q 191 544 190 505 q 198 635 193 583 q 213 728 203 688 q 241 814 223 768 q 282 895 258 861 q 343 961 307 928 q 424 1015 379 994 q 530 1049 469 1036 q 665 1062 591 1062 z "},")":{"ha":854,"x_min":190,"x_max":665,"o":"m 190 879 l 190 1062 q 324 1049 263 1062 q 430 1015 385 1036 q 511 961 475 994 q 572 895 548 928 q 614 814 596 861 q 641 728 631 768 q 656 635 650 688 q 663 544 662 583 q 665 455 665 505 q 663 365 665 405 q 656 274 662 326 q 641 182 650 222 q 614 95 631 141 q 572 14 596 49 q 511 -53 548 -20 q 430 -107 475 -86 q 323 -140 385 -127 q 190 -153 262 -153 l 190 29 q 308 48 259 29 q 387 101 357 68 q 434 191 416 135 q 456 308 451 247 q 462 455 462 368 q 459 563 462 516 q 449 655 456 609 q 429 734 441 701 q 395 796 416 768 q 347 842 375 824 q 279 869 318 860 q 190 879 240 879 z "},"*":{"ha":854,"x_min":79,"x_max":775,"o":"m 741 632 l 775 502 q 752 466 782 474 l 574 422 l 696 269 q 690 227 715 243 l 574 149 q 534 157 549 134 l 427 317 l 320 157 q 280 149 304 134 l 165 227 q 159 269 139 243 l 280 422 l 102 466 q 79 502 73 474 l 113 632 q 127 652 117 646 q 151 654 137 658 l 336 600 l 330 800 q 338 822 330 814 q 359 831 347 831 l 490 831 q 512 822 503 831 q 520 800 520 814 l 519 600 l 703 654 q 727 652 717 658 q 741 632 738 646 z "},"+":{"ha":854,"x_min":80,"x_max":774,"o":"m 499 526 l 753 526 q 768 520 762 526 q 774 505 774 514 l 774 402 q 768 387 774 393 q 753 381 762 381 l 499 381 l 499 119 q 493 104 499 110 q 479 98 488 98 l 376 98 q 361 104 367 98 q 355 119 355 110 l 355 381 l 100 381 q 86 387 92 381 q 80 402 80 393 l 80 505 q 86 519 80 513 q 100 526 92 526 l 355 526 l 355 787 q 361 803 355 797 q 376 808 367 808 l 479 808 q 493 803 488 808 q 499 787 499 798 l 499 526 z "},",":{"ha":854,"x_min":236,"x_max":612,"o":"m 257 163 l 591 163 q 606 157 600 163 q 612 142 612 151 l 612 71 q 581 -256 612 -138 q 555 -271 576 -271 l 446 -271 q 427 -249 424 -271 q 438 0 439 -108 l 257 0 q 242 5 248 0 q 236 21 236 11 l 236 142 q 242 157 236 151 q 257 163 248 163 z "},"-":{"ha":854,"x_min":80,"x_max":774,"o":"m 100 534 l 753 534 q 768 528 762 534 q 774 513 774 522 l 774 396 q 768 381 774 387 q 753 375 762 375 l 100 375 q 86 380 92 375 q 80 396 80 386 l 80 513 q 86 528 80 522 q 100 534 92 534 z "},".":{"ha":854,"x_min":284,"x_max":570,"o":"m 528 24 q 507 3 528 24 q 427 -18 486 -18 q 326 24 368 -18 q 284 125 284 66 q 326 225 284 184 q 427 267 368 267 q 528 225 486 267 q 570 125 570 184 q 528 24 570 66 z "},"/":{"ha":854,"x_min":93,"x_max":761,"o":"m 262 -180 l 110 -180 q 93 -174 98 -180 q 93 -157 88 -168 l 568 977 q 592 993 575 994 l 745 993 q 761 986 756 993 q 761 970 765 980 l 287 -164 q 262 -180 279 -180 z "},":":{"ha":854,"x_min":284,"x_max":570,"o":"m 528 459 q 507 439 528 459 q 427 418 486 418 q 326 459 368 418 q 284 560 284 501 q 326 661 284 619 q 427 703 368 703 q 528 661 486 703 q 570 560 570 619 q 528 459 570 501 m 528 24 q 507 3 528 24 q 427 -18 486 -18 q 326 24 368 -18 q 284 125 284 66 q 326 225 284 184 q 427 267 368 267 q 528 225 486 267 q 570 125 570 184 q 528 24 570 66 z "},";":{"ha":854,"x_min":243,"x_max":619,"o":"m 528 459 q 507 439 528 459 q 427 418 486 418 q 326 459 368 418 q 284 560 284 501 q 326 661 284 619 q 427 703 368 703 q 528 661 486 703 q 570 560 570 619 q 528 459 570 501 m 264 163 l 599 163 q 614 157 608 163 q 619 142 619 151 l 619 71 q 589 -256 619 -138 q 563 -271 584 -271 l 454 -271 q 434 -249 432 -271 q 446 0 447 -108 l 264 0 q 250 5 256 0 q 243 21 243 11 l 243 142 q 250 157 243 151 q 264 163 256 163 z "},"<":{"ha":854,"x_min":127,"x_max":726,"o":"m 634 81 l 142 378 q 127 402 127 387 l 127 509 q 142 531 127 522 l 634 829 q 663 823 652 841 l 724 721 q 726 704 728 713 q 716 690 724 695 l 313 455 l 716 218 q 724 190 734 208 l 663 87 q 634 81 652 69 z "},"=":{"ha":854,"x_min":77,"x_max":777,"o":"m 756 544 l 98 544 q 83 550 89 544 q 77 565 77 555 l 77 667 q 83 682 77 676 q 98 688 89 688 l 756 688 q 771 682 765 688 q 777 667 777 676 l 777 565 q 771 550 777 556 q 756 544 765 544 m 756 219 l 98 219 q 83 225 89 219 q 77 239 77 231 l 77 342 q 83 357 77 351 q 98 363 89 363 l 756 363 q 771 357 765 363 q 777 342 777 351 l 777 239 q 771 225 777 231 q 756 219 765 219 z "},">":{"ha":854,"x_min":127,"x_max":727,"o":"m 712 378 l 220 81 q 192 87 203 69 l 131 190 q 138 218 121 208 l 542 455 l 138 690 q 128 704 130 695 q 131 721 125 713 l 192 823 q 220 829 203 841 l 712 531 q 727 509 728 522 l 727 402 q 712 378 728 387 z "},"?":{"ha":854,"x_min":87,"x_max":766,"o":"m 498 323 l 350 323 q 329 346 329 323 q 342 431 329 395 q 378 488 356 467 q 427 525 400 509 q 479 552 453 541 q 527 577 505 564 q 563 613 549 591 q 576 665 576 635 q 433 768 576 768 q 272 637 279 768 q 248 618 270 618 l 107 618 q 93 625 98 618 q 87 640 87 631 q 178 867 87 788 q 430 945 269 945 q 604 916 530 945 q 723 822 679 886 q 766 666 766 758 q 753 579 766 617 q 719 519 741 542 q 672 479 698 496 q 621 449 647 462 q 573 422 595 435 q 537 390 551 409 q 521 345 522 370 q 498 323 519 323 m 427 -18 q 332 22 372 -18 q 292 118 292 62 q 331 215 292 175 q 427 254 371 254 q 523 215 484 254 q 563 118 563 175 q 523 22 563 62 q 427 -18 484 -18 z "},"@":{"ha":854,"x_min":73,"x_max":782,"o":"m 433 980 q 782 629 782 980 l 782 356 q 725 195 782 248 q 572 142 669 142 q 415 194 467 142 q 362 356 362 247 l 362 566 q 427 730 362 671 q 594 787 492 789 q 433 841 549 841 q 341 830 379 841 q 274 793 303 819 q 230 720 244 768 q 215 603 215 673 l 215 199 q 232 86 215 131 q 286 16 249 41 q 370 -18 322 -8 q 492 -28 418 -28 q 683 -11 607 -28 l 683 -143 q 479 -166 605 -166 q 337 -155 399 -166 q 224 -119 275 -144 q 141 -53 174 -94 q 91 47 109 -13 q 73 185 73 106 l 73 616 q 166 894 73 808 q 433 980 260 980 m 640 363 l 640 607 q 633 692 640 656 q 538 666 573 697 q 504 551 504 635 l 504 363 q 519 299 504 322 q 572 275 534 275 q 640 363 640 275 z "},"A":{"ha":854,"x_min":46,"x_max":808,"o":"m 577 914 l 808 24 q 791 0 814 0 l 628 0 q 604 17 608 0 l 568 171 l 286 171 l 250 17 q 227 0 247 0 l 62 0 q 46 24 40 0 l 277 914 q 300 930 281 931 l 553 930 q 577 914 573 931 m 416 720 l 327 343 l 527 343 l 438 720 l 416 720 z "},"B":{"ha":854,"x_min":82,"x_max":787,"o":"m 439 0 l 103 0 q 88 5 94 0 q 82 21 82 11 l 82 909 q 87 925 82 919 q 103 930 93 930 l 454 930 q 668 867 600 930 q 736 701 736 804 q 699 574 736 626 q 582 506 662 522 l 582 492 q 787 260 787 465 q 704 67 787 134 q 439 0 622 0 m 285 751 l 285 572 l 435 572 q 522 593 497 572 q 547 665 547 615 q 522 732 547 713 q 435 751 497 751 l 285 751 m 285 404 l 285 179 l 446 179 q 552 206 520 179 q 584 292 584 233 q 552 377 584 349 q 446 404 519 404 l 285 404 z "},"C":{"ha":854,"x_min":71,"x_max":783,"o":"m 439 -21 q 155 93 239 -21 q 71 462 71 207 q 155 831 71 718 q 439 945 239 945 q 582 926 522 945 q 687 864 642 907 q 755 750 732 821 q 783 576 779 678 q 764 554 785 554 l 618 554 q 595 572 597 554 q 576 663 590 627 q 542 717 563 699 q 496 743 520 736 q 437 750 471 750 q 363 738 392 750 q 311 694 334 726 q 278 606 288 663 q 268 462 268 549 q 278 317 268 374 q 311 229 288 260 q 363 186 334 198 q 437 174 393 174 q 547 204 510 174 q 595 314 583 234 q 618 332 598 332 l 764 332 q 783 310 785 332 q 690 57 776 136 q 439 -21 604 -21 z "},"D":{"ha":854,"x_min":85,"x_max":798,"o":"m 414 0 l 106 0 q 92 5 98 0 q 85 21 85 11 l 85 909 q 91 925 85 919 q 106 930 97 930 l 414 930 q 568 908 501 930 q 678 845 635 885 q 748 745 721 804 q 786 617 775 685 q 798 465 798 549 q 786 313 798 381 q 748 186 775 245 q 678 86 721 126 q 568 23 635 46 q 414 0 501 0 m 288 751 l 288 179 l 407 179 q 485 192 452 179 q 538 228 518 205 q 571 288 559 251 q 587 367 583 326 q 591 465 591 408 q 587 564 591 522 q 571 642 583 605 q 538 702 559 680 q 485 738 518 725 q 407 751 452 751 l 288 751 z "},"E":{"ha":854,"x_min":107,"x_max":747,"o":"m 726 0 l 127 0 q 113 5 118 0 q 107 21 107 11 l 107 909 q 113 925 107 919 q 127 930 118 930 l 725 930 q 740 925 734 930 q 746 909 746 920 l 746 772 q 740 757 746 763 q 725 751 734 751 l 310 751 l 310 556 l 694 556 q 709 550 703 556 q 715 536 715 545 l 715 398 q 709 383 715 389 q 694 377 703 377 l 310 377 l 310 179 l 726 179 q 742 174 736 179 q 747 158 747 168 l 747 21 q 742 6 747 12 q 726 0 736 0 z "},"F":{"ha":854,"x_min":108,"x_max":747,"o":"m 290 0 l 128 0 q 114 5 119 0 q 108 21 108 11 l 108 909 q 114 925 108 919 q 128 930 119 930 l 726 930 q 741 925 734 930 q 747 909 747 920 l 747 772 q 741 757 747 763 q 726 751 734 751 l 311 751 l 311 491 l 694 491 q 709 485 703 491 q 715 470 715 479 l 715 332 q 709 318 715 323 q 694 312 703 312 l 311 312 l 311 21 q 304 6 311 12 q 290 0 298 0 z "},"G":{"ha":854,"x_min":71,"x_max":789,"o":"m 769 504 q 784 498 778 504 q 789 484 789 493 l 789 363 q 705 71 789 162 q 438 -21 621 -21 q 155 93 239 -21 q 71 462 71 207 q 155 831 71 718 q 439 945 239 945 q 691 868 606 945 q 783 610 776 791 q 764 587 785 587 l 618 587 q 595 606 597 587 q 545 719 584 688 q 437 750 506 750 q 363 738 392 750 q 311 694 334 726 q 278 606 288 663 q 268 462 268 549 q 288 282 268 346 q 345 196 309 219 q 446 174 382 174 q 561 211 524 174 q 598 344 598 248 l 598 348 l 422 348 q 407 354 413 348 q 401 369 401 359 l 401 484 q 407 498 401 493 q 422 504 412 504 l 769 504 z "},"H":{"ha":854,"x_min":92,"x_max":762,"o":"m 580 930 l 741 930 q 756 925 750 930 q 762 909 762 920 l 762 21 q 756 6 762 12 q 741 0 750 0 l 580 0 q 565 5 571 0 q 559 21 559 11 l 559 367 l 295 367 l 295 21 q 289 6 295 12 q 274 0 283 0 l 113 0 q 98 5 104 0 q 92 21 92 11 l 92 909 q 98 925 92 919 q 113 930 104 930 l 274 930 q 289 925 283 930 q 295 909 295 920 l 295 546 l 559 546 l 559 909 q 565 925 559 919 q 580 930 571 930 z "},"I":{"ha":854,"x_min":90,"x_max":764,"o":"m 744 0 l 111 0 q 96 5 102 0 q 90 21 90 11 l 90 158 q 96 173 90 168 q 111 179 102 179 l 326 179 l 326 751 l 111 751 q 96 757 102 751 q 90 772 90 762 l 90 909 q 96 925 90 919 q 111 930 102 930 l 744 930 q 759 925 753 930 q 764 909 764 920 l 764 772 q 759 757 764 763 q 744 751 753 751 l 528 751 l 528 179 l 744 179 q 759 174 753 179 q 764 158 764 168 l 764 21 q 759 6 764 12 q 744 0 753 0 z "},"J":{"ha":854,"x_min":60,"x_max":773,"o":"m 752 930 q 767 925 761 930 q 773 909 773 920 l 773 368 q 677 77 773 174 q 412 -21 581 -21 q 154 72 247 -21 q 60 353 60 165 q 81 374 60 374 l 238 374 q 259 353 259 374 q 415 174 263 174 q 531 221 492 174 q 570 374 570 269 l 570 751 l 204 751 q 189 757 195 751 q 183 772 183 762 l 183 909 q 189 925 183 919 q 204 930 195 930 l 752 930 z "},"K":{"ha":854,"x_min":71,"x_max":823,"o":"m 487 508 l 819 25 q 822 7 826 15 q 806 0 819 0 l 630 0 q 605 12 614 0 l 369 355 l 273 232 l 273 21 q 268 6 273 12 q 253 0 262 0 l 92 0 q 76 5 82 0 q 71 21 71 11 l 71 909 q 76 925 71 919 q 92 930 82 930 l 253 930 q 268 925 262 930 q 273 909 273 920 l 273 516 l 566 920 q 590 930 574 930 l 783 930 q 799 923 795 930 q 793 905 802 916 l 487 508 z "},"L":{"ha":854,"x_min":117,"x_max":758,"o":"m 736 0 l 138 0 q 123 5 130 0 q 117 21 117 11 l 117 909 q 123 925 117 919 q 138 930 129 930 l 299 930 q 314 925 308 930 q 320 909 320 920 l 320 179 l 736 179 q 751 174 745 179 q 758 158 758 168 l 758 21 q 751 6 758 12 q 736 0 745 0 z "},"M":{"ha":854,"x_min":82,"x_max":772,"o":"m 226 0 l 103 0 q 88 5 94 0 q 82 21 82 11 l 82 909 q 87 925 82 919 q 103 930 93 930 l 263 930 q 288 917 286 930 l 422 300 l 432 300 l 566 917 q 591 930 569 930 l 751 930 q 767 925 761 930 q 772 909 772 920 l 772 21 q 767 6 772 12 q 751 0 761 0 l 629 0 q 614 5 620 0 q 608 21 608 11 l 608 522 l 598 522 l 496 86 q 471 69 492 69 l 383 69 q 358 86 362 69 l 256 522 l 247 522 l 247 21 q 241 6 247 12 q 226 0 235 0 z "},"N":{"ha":854,"x_min":100,"x_max":755,"o":"m 595 930 l 734 930 q 749 925 743 930 q 755 909 755 920 l 755 21 q 749 6 755 12 q 734 0 743 0 l 557 0 q 532 14 538 0 l 281 591 l 281 21 q 275 6 281 12 q 260 0 269 0 l 121 0 q 105 5 111 0 q 100 21 100 11 l 100 909 q 105 925 100 919 q 121 930 111 930 l 297 930 q 322 917 316 930 l 574 340 l 574 909 q 579 925 574 919 q 595 930 585 930 z "},"O":{"ha":854,"x_min":71,"x_max":783,"o":"m 700 93 q 659 36 700 93 q 427 -21 618 -21 q 154 93 236 -21 q 71 462 71 208 q 154 831 71 717 q 427 945 236 945 q 700 831 618 945 q 783 462 783 717 q 700 93 783 208 m 358 186 q 372 180 358 186 q 427 174 386 174 q 495 186 468 174 q 545 229 523 198 q 576 318 566 260 q 586 462 586 375 q 576 606 586 549 q 545 694 566 663 q 495 738 523 726 q 427 750 468 750 q 358 738 386 750 q 310 694 331 726 q 278 606 288 663 q 268 462 268 549 q 278 318 268 375 q 310 229 288 260 q 358 186 331 198 z "},"P":{"ha":854,"x_min":92,"x_max":787,"o":"m 113 930 l 441 930 q 704 850 621 930 q 787 614 787 770 q 441 296 787 296 l 294 296 l 294 21 q 289 6 294 12 q 273 0 283 0 l 113 0 q 97 5 103 0 q 92 21 92 11 l 92 909 q 97 925 92 919 q 113 930 103 930 m 294 475 l 433 475 q 553 507 514 475 q 593 614 593 538 q 554 721 593 690 q 433 751 515 751 l 294 751 l 294 475 z "},"Q":{"ha":854,"x_min":71,"x_max":783,"o":"m 700 93 q 659 36 700 93 q 427 -21 618 -21 q 154 93 236 -21 q 71 462 71 208 q 154 831 71 717 q 427 945 236 945 q 700 831 618 945 q 783 462 783 717 q 700 93 783 208 m 358 186 q 372 180 358 186 q 427 174 386 174 q 495 186 468 174 q 545 229 523 198 q 576 318 566 260 q 586 462 586 375 q 576 606 586 549 q 545 694 566 663 q 495 738 523 726 q 427 750 468 750 q 358 738 386 750 q 310 694 331 726 q 278 606 288 663 q 268 462 268 549 q 278 318 268 375 q 310 229 288 260 q 358 186 331 198 m 755 -265 q 657 -259 703 -268 q 584 -238 612 -250 q 510 -214 555 -225 q 414 -203 465 -203 q 392 -184 391 -203 l 392 -71 q 414 -49 392 -48 q 531 -64 477 -49 q 636 -95 584 -80 q 753 -111 689 -111 q 776 -130 776 -111 l 776 -243 q 755 -265 776 -263 z "},"R":{"ha":854,"x_min":95,"x_max":791,"o":"m 632 329 l 785 24 q 786 7 790 14 q 769 0 781 0 l 611 0 q 587 16 594 0 l 447 296 l 445 296 l 298 296 l 298 21 q 292 6 298 12 q 277 0 286 0 l 116 0 q 101 5 107 0 q 95 21 95 11 l 95 909 q 101 925 95 919 q 116 930 107 930 l 445 930 q 708 850 625 930 q 791 614 791 770 q 632 329 791 396 m 437 751 l 298 751 l 298 475 l 437 475 q 557 507 517 475 q 597 614 597 538 q 557 721 597 690 q 437 751 518 751 z "},"S":{"ha":854,"x_min":71,"x_max":783,"o":"m 422 -21 q 172 46 260 -21 q 71 264 83 113 q 76 281 71 274 q 91 288 81 288 l 239 288 q 259 268 256 288 q 429 158 282 158 q 585 264 585 158 q 549 338 585 309 q 411 387 513 367 q 316 410 359 397 q 231 447 274 424 q 158 501 187 471 q 110 577 128 531 q 91 677 91 623 q 177 872 91 800 q 431 945 263 945 q 662 881 580 945 q 757 675 744 817 q 752 658 758 665 q 737 652 747 652 l 600 652 q 581 671 584 652 q 427 765 559 765 q 289 669 289 765 q 326 600 289 629 q 463 550 362 570 q 531 535 503 542 q 596 515 559 528 q 657 488 632 503 q 707 452 682 474 q 748 405 732 431 q 773 342 764 378 q 783 261 783 305 q 691 51 783 123 q 422 -21 598 -21 z "},"T":{"ha":854,"x_min":69,"x_max":785,"o":"m 508 0 l 347 0 q 332 5 338 0 q 326 21 326 11 l 326 751 l 90 751 q 75 757 81 751 q 69 772 69 762 l 69 909 q 75 925 69 919 q 90 930 81 930 l 764 930 q 779 925 773 930 q 785 909 785 920 l 785 772 q 779 757 785 763 q 764 751 774 751 l 528 751 l 528 21 q 523 6 528 12 q 508 0 517 0 z "},"U":{"ha":854,"x_min":85,"x_max":769,"o":"m 682 64 q 639 22 682 64 q 427 -21 595 -21 q 172 64 259 -21 q 85 320 85 149 l 85 909 q 91 925 85 919 q 106 930 97 930 l 267 930 q 282 925 276 930 q 288 909 288 920 l 288 336 q 427 174 288 174 q 566 336 566 174 l 566 909 q 572 925 566 919 q 587 930 578 930 l 748 930 q 763 925 757 930 q 769 909 769 920 l 769 320 q 682 64 769 149 z "},"V":{"ha":854,"x_min":42,"x_max":812,"o":"m 553 0 l 300 0 q 277 17 281 0 l 42 907 q 59 930 36 930 l 223 930 q 247 914 243 930 l 416 210 l 438 210 l 608 914 q 631 930 611 931 l 795 930 q 812 907 818 930 l 577 17 q 553 0 573 0 z "},"W":{"ha":854,"x_min":45,"x_max":810,"o":"m 648 930 l 793 930 q 810 907 812 930 l 711 17 q 702 5 711 9 q 685 0 694 0 l 505 0 q 482 17 484 0 l 427 415 l 372 17 q 349 0 370 0 l 170 0 q 152 4 161 0 q 143 17 144 9 l 45 907 q 61 930 43 930 l 206 930 q 230 914 228 930 l 281 268 l 364 831 q 387 847 367 848 l 467 847 q 490 831 488 847 l 574 268 l 625 914 q 648 930 626 930 z "},"X":{"ha":854,"x_min":56,"x_max":798,"o":"m 534 471 l 795 25 q 798 7 802 14 q 781 0 793 0 l 611 0 q 586 14 593 0 l 427 287 l 268 14 q 243 0 260 0 l 73 0 q 57 7 61 0 q 59 25 52 14 l 319 471 l 66 905 q 64 923 60 916 q 81 930 68 930 l 251 930 q 276 917 269 930 l 427 657 l 578 917 q 604 930 586 930 l 774 930 q 790 924 786 930 q 787 905 794 917 l 534 471 z "},"Y":{"ha":854,"x_min":42,"x_max":812,"o":"m 626 930 l 796 930 q 812 924 808 930 q 810 905 816 917 l 528 359 l 528 21 q 523 6 528 12 q 508 0 517 0 l 347 0 q 332 5 338 0 q 326 21 326 11 l 326 362 l 45 905 q 42 923 39 916 q 58 930 46 930 l 229 930 q 254 917 247 930 l 427 553 l 601 917 q 626 930 608 930 z "},"Z":{"ha":854,"x_min":86,"x_max":768,"o":"m 747 0 l 107 0 q 92 5 98 0 q 86 21 86 11 l 86 165 q 94 191 86 179 l 534 751 l 121 751 q 105 757 111 751 q 100 772 100 762 l 100 909 q 105 925 100 919 q 121 930 111 930 l 733 930 q 748 925 743 930 q 754 909 754 920 l 754 765 q 746 741 754 751 l 307 179 l 747 179 q 763 174 757 179 q 768 158 768 168 l 768 21 q 763 6 768 12 q 747 0 757 0 z "},"[":{"ha":854,"x_min":187,"x_max":667,"o":"m 646 -153 l 208 -153 q 193 -148 199 -153 q 187 -133 187 -142 l 187 1041 q 193 1056 187 1050 q 208 1062 199 1062 l 646 1062 q 661 1056 655 1062 q 667 1041 667 1050 l 667 924 q 661 908 667 914 q 646 903 656 903 l 390 903 l 390 5 l 646 5 q 661 0 655 5 q 667 -16 667 -5 l 667 -133 q 661 -148 667 -142 q 646 -153 655 -153 z "},"\\":{"ha":854,"x_min":93,"x_max":761,"o":"m 745 -180 l 592 -180 q 568 -164 574 -180 l 93 970 q 93 986 89 980 q 110 993 98 993 l 262 993 q 287 977 279 993 l 761 -157 q 761 -174 766 -168 q 745 -180 756 -180 z "},"]":{"ha":854,"x_min":187,"x_max":667,"o":"m 646 -153 l 208 -153 q 193 -148 199 -153 q 187 -133 187 -142 l 187 -16 q 193 0 187 -6 q 208 5 199 5 l 464 5 l 464 903 l 208 903 q 193 908 199 903 q 187 924 187 914 l 187 1041 q 193 1056 187 1050 q 208 1062 199 1062 l 646 1062 q 661 1056 655 1062 q 667 1041 667 1050 l 667 -133 q 661 -148 667 -142 q 646 -153 655 -153 z "},"^":{"ha":854,"x_min":94,"x_max":760,"o":"m 744 395 l 612 395 q 588 412 595 395 l 427 798 l 266 412 q 242 395 258 395 l 111 395 q 94 402 99 395 q 94 419 89 408 l 329 957 q 353 972 335 972 l 501 972 q 525 957 519 972 l 760 419 q 760 402 765 408 q 744 395 755 395 z "},"_":{"ha":854,"x_min":80,"x_max":774,"o":"m 100 0 l 753 0 q 768 -5 762 0 q 774 -21 774 -11 l 774 -138 q 768 -153 774 -147 q 753 -159 762 -159 l 100 -159 q 86 -153 92 -159 q 80 -138 80 -147 l 80 -21 q 86 -6 80 -12 q 100 0 92 0 z "},"`":{"ha":854,"x_min":296,"x_max":557,"o":"m 541 827 l 404 827 q 380 843 387 827 l 296 1018 q 296 1035 292 1029 q 313 1042 301 1042 l 451 1042 q 474 1025 467 1042 l 557 850 q 557 833 562 839 q 541 827 553 827 z "},"a":{"ha":854,"x_min":75,"x_max":786,"o":"m 759 134 q 774 121 769 125 q 782 106 779 116 q 786 83 786 96 l 786 56 q 699 -10 786 -10 q 601 21 641 -10 q 562 115 562 52 l 562 123 l 547 123 q 475 24 529 65 q 330 -18 422 -18 l 295 -18 q 134 36 193 -18 q 75 190 75 90 q 294 390 75 376 l 543 406 l 543 439 q 516 523 543 501 q 417 545 490 545 q 327 531 355 545 q 292 482 298 517 q 273 469 290 469 l 128 469 q 107 490 108 469 q 423 701 111 701 q 663 636 593 701 q 733 429 733 572 l 733 214 q 737 170 733 186 q 745 148 741 154 q 759 134 749 142 m 366 130 l 385 130 q 496 162 450 130 q 543 255 543 195 l 543 288 l 341 272 q 265 203 265 267 q 366 130 266 130 z "},"b":{"ha":854,"x_min":85,"x_max":797,"o":"m 467 701 q 708 600 618 701 q 797 340 797 499 q 762 159 797 239 q 660 30 726 78 q 506 -18 593 -18 q 368 24 423 -18 q 291 128 312 65 l 273 128 l 261 21 q 241 0 259 0 l 106 0 q 92 5 98 0 q 85 21 85 11 l 85 951 q 91 967 85 961 q 106 972 97 972 l 260 972 q 275 967 269 972 q 281 951 281 961 l 281 629 q 467 701 342 701 m 319 212 q 342 188 319 212 q 439 164 364 164 q 560 212 514 164 q 606 342 606 260 q 560 472 606 425 q 439 520 514 520 q 319 473 364 520 q 274 342 274 425 q 319 212 274 260 z "},"c":{"ha":854,"x_min":86,"x_max":743,"o":"m 454 165 q 601 236 544 165 q 629 241 614 252 l 736 168 q 743 140 755 157 q 622 26 699 69 q 447 -18 545 -18 q 189 84 292 -18 q 86 342 86 186 q 189 600 86 498 q 447 701 292 701 q 622 658 545 701 q 743 544 700 615 q 736 515 755 528 l 629 442 q 601 448 614 433 q 454 519 544 519 q 327 471 377 519 q 277 342 277 422 q 327 214 277 263 q 454 165 377 165 z "},"d":{"ha":854,"x_min":58,"x_max":770,"o":"m 595 972 l 749 972 q 764 967 758 972 q 770 951 770 961 l 770 21 q 764 6 770 12 q 749 0 758 0 l 613 0 q 593 21 595 0 l 581 128 l 563 128 q 486 24 542 65 q 348 -18 431 -18 q 195 30 261 -18 q 93 158 128 78 q 58 340 58 239 q 147 601 58 500 q 387 701 235 701 q 574 629 512 701 l 574 951 q 579 967 574 961 q 595 972 585 972 m 416 164 q 535 212 490 164 q 580 342 580 260 q 535 473 580 425 q 416 520 490 520 q 294 473 340 520 q 249 342 249 425 q 294 212 249 260 q 416 164 340 164 z "},"e":{"ha":854,"x_min":83,"x_max":772,"o":"m 772 357 q 759 302 772 318 q 705 286 747 286 l 269 286 q 332 176 276 215 q 474 137 387 137 q 624 171 554 137 q 655 176 642 180 q 689 145 668 171 q 713 102 711 117 q 697 66 715 86 q 596 6 660 29 q 452 -18 532 -18 q 184 82 286 -18 q 83 343 83 182 q 181 602 83 502 q 437 701 279 701 q 682 606 592 701 q 772 357 772 510 m 439 536 q 332 506 374 537 q 276 414 289 475 l 598 414 q 546 506 588 475 q 439 536 504 536 z "},"f":{"ha":854,"x_min":100,"x_max":765,"o":"m 753 995 q 765 976 765 989 l 765 863 q 759 847 765 853 q 740 842 752 841 q 717 845 739 842 q 674 850 696 848 q 630 852 653 852 q 506 819 546 852 q 465 693 465 785 l 465 681 l 734 681 q 749 675 743 681 q 755 660 755 669 l 755 544 q 749 529 755 535 q 734 523 743 523 l 465 523 l 465 21 q 460 6 465 12 q 444 0 454 0 l 290 0 q 275 5 281 0 q 269 21 269 11 l 269 523 l 121 523 q 105 529 111 523 q 100 544 100 534 l 100 660 q 105 675 100 669 q 121 681 111 681 l 269 681 l 269 720 q 287 841 269 788 q 333 927 304 894 q 402 982 361 960 q 488 1011 444 1003 q 585 1019 532 1019 q 753 995 691 1019 z "},"g":{"ha":854,"x_min":68,"x_max":773,"o":"m 608 688 l 752 688 q 767 682 761 688 q 773 667 773 676 l 773 42 q 749 -91 773 -33 q 688 -182 725 -148 q 598 -238 650 -216 q 497 -268 547 -260 q 393 -275 447 -275 q 127 -210 221 -275 q 120 -183 113 -201 l 155 -82 q 182 -71 161 -64 q 374 -112 270 -111 q 587 50 587 -112 l 587 170 l 568 170 q 491 72 549 108 q 355 35 433 35 q 148 127 227 35 q 68 359 68 219 q 155 605 68 508 q 378 701 242 701 q 584 608 507 701 l 587 667 q 608 688 589 688 m 304 247 q 326 224 304 247 q 419 202 349 202 q 533 246 489 202 q 577 362 577 290 q 533 478 577 435 q 419 522 489 522 q 304 478 349 522 q 259 363 259 435 q 304 247 259 291 z "},"h":{"ha":854,"x_min":94,"x_max":760,"o":"m 519 701 q 694 623 629 701 q 760 408 760 544 l 760 21 q 754 6 760 12 q 740 0 749 0 l 585 0 q 571 5 576 0 q 565 21 565 11 l 565 371 q 529 480 565 441 q 427 520 493 520 q 325 480 361 520 q 290 371 290 441 l 290 21 q 284 6 290 12 q 269 0 278 0 l 115 0 q 100 5 106 0 q 94 21 94 11 l 94 951 q 100 967 94 961 q 115 972 106 972 l 269 972 q 283 967 277 972 q 290 951 290 961 l 290 567 l 314 567 q 391 664 340 626 q 519 701 442 701 z "},"i":{"ha":854,"x_min":107,"x_max":751,"o":"m 501 871 q 485 855 501 871 q 423 839 469 839 q 345 871 377 839 q 313 949 313 903 q 345 1027 313 995 q 423 1059 377 1059 q 501 1027 469 1059 q 533 949 533 995 q 501 871 533 903 m 630 159 l 730 159 q 746 153 740 159 q 751 138 751 147 l 751 21 q 746 6 751 12 q 730 0 741 0 l 549 0 q 389 58 444 0 q 334 224 334 117 l 334 528 l 127 528 q 113 534 118 528 q 107 549 107 541 l 107 667 q 113 682 107 676 q 127 688 118 688 l 509 688 q 524 682 518 688 q 529 667 529 676 l 529 261 q 553 184 529 209 q 630 159 578 159 z "},"j":{"ha":854,"x_min":105,"x_max":676,"o":"m 644 871 q 628 855 644 871 q 567 839 612 839 q 489 871 521 839 q 456 949 456 903 q 489 1027 456 995 q 567 1059 521 1059 q 644 1027 612 1059 q 676 949 676 995 q 644 871 676 903 m 353 -267 q 264 -258 307 -267 q 189 -235 220 -250 q 136 -205 158 -221 q 106 -172 115 -189 q 105 -144 98 -156 l 161 -51 q 195 -45 172 -31 q 335 -90 264 -90 q 387 -83 363 -90 q 431 -60 410 -76 q 464 -14 452 -44 q 476 59 476 17 l 476 528 l 180 528 q 165 534 171 528 q 159 549 159 541 l 159 667 q 165 682 159 676 q 180 688 171 688 l 652 688 q 667 682 661 688 q 672 667 672 676 l 672 37 q 652 -85 672 -31 q 601 -173 633 -140 q 527 -228 570 -206 q 441 -259 484 -250 q 353 -267 399 -267 z "},"k":{"ha":854,"x_min":105,"x_max":789,"o":"m 496 389 l 785 25 q 789 7 793 15 q 773 0 785 0 l 600 0 q 575 12 585 0 l 378 260 l 300 177 l 300 21 q 295 6 300 12 q 280 0 289 0 l 125 0 q 111 5 117 0 q 105 21 105 11 l 105 951 q 111 967 105 961 q 125 972 117 972 l 280 972 q 295 967 289 972 q 300 951 300 961 l 300 417 l 528 676 q 553 688 538 687 l 737 688 q 754 680 750 688 q 749 663 758 672 l 496 389 z "},"l":{"ha":854,"x_min":86,"x_max":764,"o":"m 744 0 l 560 0 q 390 62 450 0 q 330 237 330 125 l 330 813 l 107 813 q 92 819 98 813 q 86 834 86 825 l 86 951 q 92 967 86 961 q 107 972 97 972 l 505 972 q 519 967 513 972 q 526 951 526 961 l 526 267 q 553 187 526 215 q 633 159 581 159 l 744 159 q 759 153 753 159 q 764 138 764 147 l 764 21 q 759 6 764 12 q 744 0 753 0 z "},"m":{"ha":854,"x_min":58,"x_max":797,"o":"m 213 0 l 79 0 q 64 5 70 0 q 58 21 58 11 l 58 667 q 63 682 58 676 q 79 688 69 688 l 212 688 q 233 667 231 688 l 235 587 l 251 587 q 380 701 279 701 q 505 587 475 701 l 517 587 q 650 701 547 701 q 760 648 724 701 q 797 492 797 594 l 797 21 q 791 6 797 12 q 776 0 785 0 l 641 0 q 626 5 632 0 q 620 21 620 11 l 620 462 q 605 506 620 490 q 564 522 591 522 q 522 506 537 522 q 507 462 507 490 l 507 21 q 502 6 507 12 q 486 0 496 0 l 368 0 q 353 5 359 0 q 347 21 347 11 l 347 462 q 333 506 347 490 q 291 522 318 522 q 249 506 264 522 q 234 462 234 490 l 234 21 q 228 6 234 12 q 213 0 222 0 z "},"n":{"ha":854,"x_min":94,"x_max":760,"o":"m 519 701 q 694 623 629 701 q 760 408 760 544 l 760 21 q 754 6 760 12 q 740 0 749 0 l 585 0 q 571 5 576 0 q 565 21 565 11 l 565 371 q 529 480 565 441 q 427 520 493 520 q 325 480 361 520 q 290 371 290 441 l 290 21 q 284 6 290 12 q 269 0 278 0 l 115 0 q 100 5 106 0 q 94 21 94 11 l 94 667 q 100 682 94 676 q 115 688 106 688 l 263 688 q 284 667 283 688 l 290 567 l 314 567 q 391 664 340 626 q 519 701 442 701 z "},"o":{"ha":854,"x_min":71,"x_max":783,"o":"m 427 -18 q 173 86 274 -18 q 71 342 71 189 q 172 598 71 496 q 427 701 273 701 q 610 654 529 701 q 737 525 692 608 q 783 342 783 443 q 737 159 783 241 q 610 30 692 77 q 427 -18 529 -18 m 309 214 q 332 190 309 214 q 427 165 355 165 q 545 214 499 165 q 591 342 591 264 q 545 470 591 421 q 427 519 499 519 q 309 470 355 519 q 262 342 262 421 q 309 214 262 264 z "},"p":{"ha":854,"x_min":86,"x_max":789,"o":"m 489 701 q 709 600 628 701 q 789 342 789 499 q 754 159 789 240 q 650 30 720 78 q 489 -18 581 -18 q 370 10 418 -18 q 298 86 322 38 l 278 86 l 278 -243 q 272 -258 278 -252 q 257 -264 267 -264 l 107 -264 q 92 -258 98 -264 q 86 -243 86 -253 l 86 667 q 92 682 86 676 q 107 688 97 688 l 261 688 q 276 682 271 688 q 282 667 282 676 l 282 606 l 298 606 q 371 675 323 649 q 489 701 419 701 m 435 164 q 554 212 510 164 q 599 342 599 260 q 554 473 599 425 q 435 520 510 520 q 318 473 361 520 q 275 342 275 425 q 318 212 275 260 q 435 164 361 164 z "},"q":{"ha":854,"x_min":64,"x_max":768,"o":"m 593 688 l 747 688 q 763 682 757 688 q 768 667 768 676 l 768 -243 q 763 -258 768 -252 q 747 -264 757 -264 l 597 -264 q 582 -258 588 -264 q 576 -243 576 -253 l 576 86 l 556 86 q 484 10 532 38 q 366 -18 436 -18 q 204 30 273 -18 q 100 159 135 78 q 64 342 64 240 q 145 600 64 499 q 366 701 227 701 q 483 675 435 701 q 556 606 531 649 l 572 606 l 572 667 q 578 682 572 676 q 593 688 583 688 m 418 164 q 536 212 492 164 q 579 342 579 260 q 536 473 579 425 q 418 520 492 520 q 300 473 344 520 q 256 342 256 425 q 300 212 256 260 q 418 164 344 164 z "},"r":{"ha":854,"x_min":109,"x_max":791,"o":"m 553 701 q 727 630 662 701 q 791 456 791 559 q 774 381 791 403 q 724 359 756 359 l 633 359 q 611 366 620 359 q 602 387 602 373 q 463 520 595 520 q 347 472 389 520 q 304 320 304 424 l 304 21 q 299 6 304 12 q 283 0 293 0 l 129 0 q 114 5 119 0 q 109 21 109 11 l 109 667 q 114 682 109 676 q 129 688 119 688 l 278 688 q 298 667 297 688 l 304 547 l 332 547 q 412 659 355 616 q 553 701 470 701 z "},"s":{"ha":854,"x_min":104,"x_max":750,"o":"m 440 413 q 605 381 554 398 q 750 199 750 332 q 667 39 750 96 q 427 -18 584 -18 q 200 29 287 -18 q 104 172 114 75 q 110 187 104 181 q 125 193 116 193 l 269 193 q 290 179 286 193 q 429 127 311 127 q 559 197 559 127 q 550 228 559 216 q 520 249 541 241 q 476 262 499 257 q 412 271 452 267 q 241 309 294 287 q 117 484 117 358 q 196 644 117 587 q 425 701 275 701 q 641 656 555 701 q 735 518 726 611 q 730 503 736 509 q 715 497 724 497 l 570 497 q 549 511 554 497 q 507 544 541 531 q 422 556 473 556 q 308 489 308 556 q 338 438 308 454 q 440 413 369 422 z "},"t":{"ha":854,"x_min":47,"x_max":797,"o":"m 762 185 q 791 147 783 163 q 797 120 800 131 q 785 94 794 109 q 755 62 775 79 q 705 26 736 45 q 629 -5 675 7 q 532 -18 583 -18 q 459 -11 494 -18 q 386 16 424 -3 q 321 66 349 35 q 276 148 294 96 q 258 266 258 199 l 258 524 l 67 524 q 53 529 58 524 q 47 545 47 534 l 47 660 q 53 675 47 669 q 67 681 58 681 l 258 681 l 258 875 q 264 890 258 884 q 279 896 269 896 l 433 896 q 449 890 443 896 q 454 875 454 885 l 454 681 l 726 681 q 741 675 734 681 q 747 660 747 669 l 747 545 q 741 529 747 535 q 726 524 734 524 l 454 524 l 454 294 q 465 227 454 255 q 493 184 475 198 q 530 163 511 170 q 572 157 549 157 q 695 205 637 157 q 722 216 710 219 q 762 185 734 212 z "},"u":{"ha":854,"x_min":94,"x_max":760,"o":"m 585 688 l 740 688 q 754 682 749 688 q 760 667 760 676 l 760 21 q 754 6 760 12 q 740 0 749 0 l 591 0 q 570 21 571 0 l 565 121 l 541 121 q 463 24 514 62 q 336 -14 412 -14 q 160 65 226 -14 q 94 279 94 144 l 94 667 q 100 682 94 676 q 115 688 106 688 l 269 688 q 283 682 277 688 q 290 667 290 676 l 290 317 q 325 207 290 247 q 427 168 361 168 q 529 207 494 168 q 565 317 565 247 l 565 667 q 571 682 565 676 q 585 688 576 688 z "},"v":{"ha":854,"x_min":67,"x_max":787,"o":"m 427 222 l 591 671 q 616 688 597 688 l 771 688 q 787 664 796 688 l 530 17 q 505 0 524 0 l 349 0 q 324 17 329 0 l 67 664 q 67 681 62 675 q 84 688 72 688 l 237 688 q 262 671 257 688 l 427 222 z "},"w":{"ha":854,"x_min":45,"x_max":809,"o":"m 667 688 l 792 688 q 809 664 813 688 l 693 17 q 668 0 690 0 l 522 0 q 497 17 500 0 l 427 413 l 357 17 q 332 0 354 0 l 186 0 q 161 17 163 0 l 45 664 q 62 688 41 688 l 187 688 q 204 683 196 688 q 212 671 212 678 l 271 229 l 355 664 q 380 681 358 681 l 474 681 q 499 664 496 681 l 583 229 l 642 671 q 650 683 642 678 q 667 688 658 688 z "},"x":{"ha":854,"x_min":52,"x_max":802,"o":"m 537 357 l 798 25 q 802 7 806 15 q 785 0 798 0 l 610 0 q 585 12 595 0 l 427 220 l 269 12 q 244 0 259 0 l 68 0 q 52 7 56 0 q 56 25 48 15 l 319 357 l 78 663 q 74 680 70 673 q 90 688 78 688 l 264 688 q 289 675 279 688 l 427 493 l 566 675 q 590 688 575 687 l 764 688 q 781 680 777 688 q 777 663 785 673 l 537 357 z "},"y":{"ha":854,"x_min":67,"x_max":787,"o":"m 616 688 l 771 688 q 787 664 796 688 l 431 -248 q 406 -264 427 -264 l 253 -264 q 236 -258 241 -264 q 236 -240 231 -252 l 330 -2 l 67 664 q 67 681 62 675 q 84 688 72 688 l 237 688 q 262 671 257 688 l 427 222 l 591 671 q 616 688 597 688 z "},"z":{"ha":854,"x_min":117,"x_max":734,"o":"m 730 667 l 730 544 q 721 517 730 527 l 353 159 l 713 159 q 728 153 722 159 q 734 138 734 147 l 734 21 q 728 6 734 12 q 713 0 722 0 l 141 0 q 126 5 132 0 q 120 21 120 11 l 120 144 q 130 170 120 161 l 497 528 l 138 528 q 122 534 128 528 q 117 549 117 541 l 117 667 q 122 682 117 676 q 138 688 127 688 l 710 688 q 725 682 720 688 q 730 667 730 676 z "},"{":{"ha":854,"x_min":27,"x_max":681,"o":"m 435 859 l 435 562 q 422 541 435 547 l 256 454 l 422 368 q 435 346 435 361 l 435 50 q 448 17 435 28 q 484 5 461 5 l 660 5 q 675 0 669 5 q 681 -16 681 -5 l 681 -133 q 675 -148 681 -142 q 660 -153 669 -153 l 372 -153 q 323 -147 346 -153 q 279 -125 300 -140 q 245 -81 258 -111 q 232 -12 232 -52 l 232 298 q 220 324 232 317 l 35 434 q 27 454 27 439 q 35 474 27 469 l 220 584 q 232 610 232 591 l 232 921 q 245 989 232 960 q 280 1034 258 1019 q 324 1055 301 1048 q 372 1062 347 1062 l 660 1062 q 675 1056 669 1062 q 681 1041 681 1050 l 681 924 q 675 908 681 914 q 660 903 669 903 l 484 903 q 448 892 461 903 q 435 859 435 881 z "},"|":{"ha":854,"x_min":326,"x_max":528,"o":"m 326 -243 l 326 1090 q 332 1105 326 1100 q 347 1111 338 1111 l 508 1111 q 523 1105 517 1111 q 528 1090 528 1100 l 528 -243 q 523 -258 528 -252 q 508 -264 517 -264 l 347 -264 q 332 -258 338 -264 q 326 -243 326 -252 z "},"}":{"ha":854,"x_min":174,"x_max":827,"o":"m 419 562 l 419 859 q 406 892 419 881 q 371 903 393 903 l 195 903 q 179 908 185 903 q 174 924 174 914 l 174 1041 q 179 1056 174 1050 q 195 1062 184 1062 l 483 1062 q 530 1055 508 1062 q 574 1034 553 1048 q 609 989 596 1019 q 623 921 623 960 l 623 610 q 634 584 623 591 l 819 474 q 827 454 827 469 q 819 434 827 439 l 634 324 q 623 298 623 317 l 623 -12 q 610 -81 623 -52 q 575 -125 597 -111 q 531 -147 553 -140 q 483 -153 509 -153 l 195 -153 q 179 -148 185 -153 q 174 -133 174 -142 l 174 -16 q 179 0 174 -6 q 195 5 184 5 l 371 5 q 406 17 393 5 q 419 50 419 28 l 419 346 q 433 368 419 361 l 598 454 l 433 541 q 419 562 419 547 z "},"~":{"ha":854,"x_min":44,"x_max":810,"o":"m 264 627 q 343 612 307 627 q 403 576 380 598 q 448 530 426 555 q 488 483 471 505 q 528 448 505 462 q 575 433 551 433 q 632 459 610 433 q 656 517 653 484 q 676 531 659 532 l 792 531 q 810 514 809 531 q 748 351 810 411 q 591 292 687 292 q 511 306 548 292 q 452 342 475 320 q 406 388 429 363 q 366 435 383 413 q 326 471 349 456 q 279 485 303 485 q 224 460 245 485 q 198 401 204 435 q 178 387 195 387 l 62 387 q 44 404 45 387 q 106 567 45 507 q 264 627 168 627 z "}," ":{"ha":854,"x_min":0,"x_max":0,"o":""},"¡":{"ha":854,"x_min":292,"x_max":564,"o":"m 428 703 q 524 664 484 703 q 564 568 564 624 q 524 471 564 511 q 428 431 484 431 q 332 471 372 431 q 292 568 292 511 q 332 664 292 624 q 428 703 372 703 m 382 319 l 473 319 q 490 313 482 319 q 498 296 498 307 l 547 -117 q 519 -220 555 -181 q 427 -260 484 -260 q 335 -220 371 -260 q 307 -117 299 -181 l 357 296 q 366 313 358 307 q 382 319 373 319 z "},"¢":{"ha":854,"x_min":79,"x_max":770,"o":"m 643 378 l 763 302 q 770 273 782 290 q 663 169 730 211 q 514 115 597 127 l 514 -35 q 493 -56 514 -56 l 416 -56 q 395 -35 395 -56 l 395 117 q 168 239 256 138 q 79 486 79 341 q 168 733 79 631 q 395 857 256 836 l 395 1007 q 416 1028 395 1028 l 493 1028 q 514 1007 514 1028 l 514 858 q 663 804 597 846 q 770 699 729 761 q 763 670 783 682 l 643 595 q 614 600 627 585 q 491 671 563 661 l 491 301 q 614 372 563 311 q 643 378 627 388 m 318 606 q 299 581 318 606 q 280 486 280 557 q 318 366 280 415 q 418 304 357 317 l 418 668 q 318 606 357 655 z "},"£":{"ha":854,"x_min":40,"x_max":781,"o":"m 315 177 l 760 177 q 775 171 769 177 q 781 156 781 165 l 781 21 q 775 6 781 12 q 760 0 770 0 l 89 0 q 74 5 79 0 q 68 21 68 11 l 68 177 q 178 242 131 192 q 226 359 226 292 q 222 393 226 376 l 61 393 q 46 399 52 393 q 40 414 40 404 l 40 464 q 46 479 40 473 q 61 485 52 485 l 185 485 q 175 504 183 489 q 163 525 166 519 q 152 546 160 531 q 141 569 144 560 q 132 591 138 577 q 124 617 126 606 q 118 643 121 628 q 114 672 115 657 q 113 702 113 687 q 203 908 113 833 q 444 983 294 983 q 689 902 597 983 q 781 684 781 821 q 762 661 781 661 l 621 661 q 597 681 597 661 q 552 776 593 746 q 446 806 511 806 q 337 773 376 806 q 298 682 298 741 q 309 618 298 649 q 346 545 321 587 q 378 485 370 503 l 646 485 q 661 479 655 485 q 667 464 667 473 l 667 414 q 661 399 667 404 q 646 393 656 393 l 406 393 q 408 365 408 375 q 315 177 408 248 z "},"¤":{"ha":854,"x_min":51,"x_max":804,"o":"m 708 614 q 751 449 751 539 q 708 283 751 358 l 804 187 l 692 76 l 598 170 q 427 124 521 124 q 256 170 334 124 l 163 76 l 51 187 l 146 283 q 104 449 104 359 q 146 614 104 539 l 51 709 l 163 821 l 256 727 q 427 772 334 772 q 598 727 521 772 l 692 821 l 804 709 l 708 614 m 427 290 q 535 334 492 290 q 578 449 578 378 q 535 563 578 518 q 427 607 492 607 q 319 563 361 607 q 277 449 277 518 q 319 334 277 379 q 427 290 361 290 z "},"¥":{"ha":854,"x_min":42,"x_max":812,"o":"m 626 930 l 796 930 q 812 924 808 930 q 810 905 816 917 l 543 385 l 719 385 q 734 379 728 385 q 740 365 740 374 l 740 316 q 734 301 740 307 q 719 295 728 295 l 528 295 l 528 203 l 719 203 q 734 197 728 203 q 740 182 740 192 l 740 134 q 734 118 740 124 q 719 113 728 113 l 528 113 l 528 21 q 523 6 528 12 q 508 0 517 0 l 347 0 q 332 5 338 0 q 326 21 326 11 l 326 113 l 136 113 q 121 118 127 113 q 115 134 115 123 l 115 182 q 120 197 115 191 q 136 203 126 203 l 326 203 l 326 295 l 136 295 q 121 301 127 295 q 115 316 115 307 l 115 365 q 120 379 115 374 q 136 385 126 385 l 313 385 l 45 905 q 42 923 39 916 q 58 930 46 930 l 229 930 q 254 917 247 930 l 427 553 l 601 917 q 626 930 608 930 z "},"¦":{"ha":854,"x_min":326,"x_max":528,"o":"m 508 582 l 347 582 q 332 587 338 582 q 326 603 326 593 l 326 1090 q 332 1105 326 1100 q 347 1111 338 1111 l 508 1111 q 523 1105 517 1111 q 528 1090 528 1100 l 528 603 q 523 588 528 593 q 508 582 517 582 m 508 -264 l 347 -264 q 332 -258 338 -264 q 326 -243 326 -253 l 326 244 q 332 259 326 254 q 347 265 338 265 l 508 265 q 523 260 517 265 q 528 244 528 254 l 528 -243 q 523 -258 528 -252 q 508 -264 517 -264 z "},"§":{"ha":854,"x_min":78,"x_max":777,"o":"m 777 340 q 711 156 777 225 q 743 18 743 97 q 658 -193 743 -121 q 412 -264 573 -264 q 81 1 93 -264 q 86 17 81 11 q 100 24 92 24 l 244 24 q 264 5 260 24 q 414 -81 288 -81 q 551 28 551 -81 q 521 101 551 74 q 410 150 491 128 q 343 169 372 159 q 277 193 314 178 q 214 225 241 208 q 160 267 187 242 q 116 321 134 292 q 89 390 99 351 q 78 475 78 430 q 141 652 78 582 q 111 787 111 709 q 193 995 111 919 q 424 1070 275 1070 q 635 1007 556 1070 q 728 812 715 943 q 724 795 729 802 q 709 788 718 788 l 576 788 q 556 808 561 788 q 511 867 546 844 q 425 889 476 889 q 334 861 366 889 q 302 780 302 832 q 410 665 302 691 q 482 646 452 654 q 553 623 511 638 q 624 592 595 608 q 683 551 652 576 q 733 497 714 526 q 764 428 751 468 q 777 340 777 388 m 410 326 q 557 281 500 305 q 587 353 587 307 q 546 436 587 406 q 410 489 505 465 q 292 526 342 505 q 267 462 267 500 q 298 377 267 409 q 410 326 330 345 z "},"¨":{"ha":854,"x_min":176,"x_max":678,"o":"m 342 873 q 328 859 342 873 q 273 844 313 844 q 204 873 233 844 q 176 944 176 902 q 204 1013 176 985 q 273 1042 233 1042 q 342 1013 313 1042 q 371 944 371 985 q 342 873 371 903 m 649 873 q 635 859 649 873 q 581 844 621 844 q 512 873 541 844 q 484 944 484 902 q 512 1013 484 985 q 581 1042 541 1042 q 649 1013 621 1042 q 678 944 678 985 q 649 873 678 903 z "},"©":{"ha":854,"x_min":14,"x_max":840,"o":"m 587 97 q 549 81 587 97 q 427 64 511 64 q 268 97 344 64 q 136 184 191 130 q 47 316 80 239 q 14 475 14 392 q 47 634 14 558 q 136 765 80 711 q 268 853 191 820 q 427 886 344 886 q 587 853 511 886 q 719 765 663 820 q 807 634 774 711 q 840 475 840 558 q 807 316 840 392 q 719 184 774 239 q 587 97 663 130 m 427 169 q 641 258 553 169 q 729 475 729 347 q 641 692 729 603 q 427 781 553 781 q 214 692 302 781 q 125 475 125 603 q 214 258 125 347 q 427 169 302 169 m 438 272 q 295 331 355 272 q 235 475 235 389 q 295 619 235 560 q 438 677 355 677 q 556 635 511 677 q 556 604 571 621 l 520 564 q 506 557 511 557 q 490 562 501 557 q 440 574 467 574 q 371 546 399 574 q 343 475 343 517 q 371 405 343 433 q 440 376 399 376 q 491 387 466 376 q 508 393 503 392 q 521 387 513 393 l 558 346 q 557 315 574 330 q 438 272 506 272 z "},"ª":{"ha":854,"x_min":173,"x_max":681,"o":"m 571 972 l 667 972 q 681 958 680 972 l 681 488 q 667 473 681 473 l 572 473 q 555 486 558 473 l 547 521 q 408 473 486 473 q 241 547 309 473 q 173 726 173 621 q 241 906 173 832 q 408 979 309 979 q 547 932 486 979 l 554 961 q 571 972 557 972 m 435 611 q 517 643 484 611 q 551 726 551 675 q 517 810 551 777 q 435 843 484 843 q 351 810 385 843 q 318 726 318 777 q 351 643 318 675 q 435 611 385 611 z "},"«":{"ha":854,"x_min":58,"x_max":800,"o":"m 427 656 l 252 390 l 427 125 q 430 107 434 114 q 413 100 426 100 l 257 100 q 232 114 239 100 l 58 376 q 58 404 47 390 l 232 667 q 257 681 239 680 l 413 681 q 430 674 425 681 q 427 656 434 667 m 797 656 l 621 390 l 797 125 q 799 107 804 114 q 783 100 795 100 l 627 100 q 602 114 608 100 l 428 376 q 428 404 417 390 l 602 667 q 627 681 608 680 l 783 681 q 799 674 795 681 q 797 656 804 667 z "},"¬":{"ha":854,"x_min":80,"x_max":774,"o":"m 100 526 l 753 526 q 768 520 762 526 q 774 505 774 514 l 774 173 q 753 152 774 152 l 629 152 q 608 173 608 152 l 608 381 l 100 381 q 86 387 92 381 q 80 402 80 393 l 80 505 q 86 519 80 513 q 100 526 92 526 z "},"­":{"ha":854,"x_min":80,"x_max":774,"o":"m 100 534 l 753 534 q 768 528 762 534 q 774 513 774 522 l 774 396 q 768 381 774 387 q 753 375 762 375 l 100 375 q 86 380 92 375 q 80 396 80 386 l 80 513 q 86 528 80 522 q 100 534 92 534 z "},"®":{"ha":854,"x_min":14,"x_max":840,"o":"m 268 853 q 306 869 268 853 q 427 886 344 886 q 587 853 511 886 q 719 765 663 820 q 807 634 774 711 q 840 475 840 558 q 807 316 840 392 q 719 184 774 239 q 587 97 663 130 q 427 64 511 64 q 268 97 344 64 q 136 184 191 130 q 47 316 80 239 q 14 475 14 392 q 47 634 14 558 q 136 765 80 711 q 268 853 191 820 m 427 169 q 641 258 553 169 q 729 475 729 347 q 641 692 729 603 q 427 781 553 781 q 214 692 302 781 q 125 475 125 603 q 214 258 125 347 q 427 169 302 169 m 522 408 l 616 313 q 619 304 621 309 q 611 299 617 299 l 523 299 q 509 305 515 299 l 414 404 l 365 404 l 365 311 q 355 299 365 300 l 278 299 q 267 311 267 299 l 267 640 q 278 650 267 650 l 478 650 q 577 620 538 650 q 617 527 617 590 q 591 447 617 475 q 522 408 566 418 m 503 495 q 509 500 503 495 q 515 527 515 506 q 503 559 515 548 q 467 571 490 571 l 365 571 l 365 484 l 467 484 q 503 495 490 484 z "},"¯":{"ha":854,"x_min":218,"x_max":637,"o":"m 616 890 l 238 890 q 223 896 229 890 q 218 911 218 901 l 218 1021 q 223 1036 218 1030 q 238 1042 229 1042 l 616 1042 q 631 1036 625 1042 q 637 1021 637 1031 l 637 911 q 631 896 637 901 q 616 890 625 890 z "},"°":{"ha":854,"x_min":210,"x_max":644,"o":"m 582 573 q 551 543 582 573 q 427 512 519 512 q 273 573 335 512 q 210 730 210 635 q 273 884 210 823 q 427 945 335 945 q 582 884 519 945 q 644 730 644 823 q 582 573 644 635 m 359 665 q 370 651 359 665 q 427 637 381 637 q 495 665 473 637 q 517 730 517 692 q 495 792 517 765 q 427 820 472 820 q 359 792 382 820 q 337 730 337 765 q 359 665 337 692 z "},"±":{"ha":854,"x_min":77,"x_max":777,"o":"m 355 538 l 100 538 q 86 543 92 538 q 80 558 80 549 l 80 661 q 86 675 80 669 q 100 682 92 682 l 355 682 l 355 944 q 361 959 355 953 q 376 964 367 964 l 479 964 q 493 959 488 964 q 499 944 499 953 l 499 682 l 753 682 q 768 675 762 682 q 774 661 774 669 l 774 558 q 768 543 774 549 q 753 538 762 538 l 499 538 l 499 276 q 493 261 499 267 q 479 255 488 255 l 376 255 q 361 261 367 255 q 355 276 355 267 l 355 538 m 98 144 l 756 144 q 771 138 765 144 q 777 123 777 132 l 777 21 q 771 6 777 12 q 756 0 765 0 l 98 0 q 83 5 89 0 q 77 21 77 11 l 77 123 q 83 138 77 132 q 98 144 89 144 z "},"²":{"ha":854,"x_min":77,"x_max":755,"o":"m 319 298 l 734 298 q 750 293 744 298 q 755 278 755 288 l 755 167 q 750 152 755 157 q 734 146 745 146 l 104 146 q 89 151 95 146 q 83 167 83 157 l 83 233 q 104 331 83 288 q 158 400 124 374 q 236 447 193 427 q 324 479 279 467 q 412 503 369 490 q 489 526 455 515 q 543 555 523 537 q 564 598 564 574 q 428 665 564 665 q 308 644 349 665 q 259 566 267 623 q 235 546 257 544 l 96 562 q 77 584 76 564 q 121 725 77 668 q 241 808 165 782 q 419 833 317 833 q 660 770 567 833 q 753 598 753 707 q 729 514 753 550 q 667 456 705 478 q 583 419 629 435 q 490 391 536 403 q 406 368 444 380 q 343 339 368 357 q 319 298 319 322 z "},"³":{"ha":854,"x_min":71,"x_max":798,"o":"m 634 495 q 758 436 718 474 q 798 332 798 399 q 433 127 798 127 q 311 133 363 127 q 212 151 259 138 q 135 186 165 164 q 88 245 106 208 q 71 332 71 282 q 90 354 71 352 l 237 371 q 261 351 258 373 q 305 304 265 317 q 428 291 345 291 q 549 306 511 291 q 587 353 587 320 q 570 391 587 376 q 505 416 554 406 q 368 425 455 425 q 347 446 347 425 l 347 522 q 369 542 347 542 q 506 547 462 542 q 566 564 550 552 q 583 602 583 576 q 433 669 583 669 q 374 666 399 669 q 325 655 349 663 q 287 630 300 646 q 270 588 273 613 q 245 569 268 566 l 99 585 q 80 607 79 587 q 106 714 80 669 q 180 785 132 759 q 292 822 229 810 q 437 833 355 833 q 610 814 536 833 q 728 750 684 794 q 773 640 773 705 q 738 546 773 584 q 634 495 703 508 z "},"´":{"ha":854,"x_min":296,"x_max":557,"o":"m 451 827 l 313 827 q 297 833 302 827 q 296 850 292 839 l 380 1025 q 404 1042 387 1042 l 541 1042 q 557 1036 553 1042 q 557 1018 562 1029 l 474 843 q 451 827 467 827 z "},"µ":{"ha":854,"x_min":94,"x_max":760,"o":"m 585 688 l 740 688 q 754 682 749 688 q 760 667 760 676 l 760 21 q 754 6 760 12 q 740 0 749 0 l 591 0 q 570 21 571 0 l 565 121 l 541 121 q 463 24 514 62 q 336 -14 412 -14 q 290 -9 311 -14 l 290 -243 q 284 -258 290 -252 q 269 -264 278 -264 l 115 -264 q 100 -258 106 -264 q 94 -243 94 -253 l 94 667 q 100 682 94 676 q 115 688 106 688 l 269 688 q 283 682 277 688 q 290 667 290 676 l 290 317 q 325 207 290 247 q 427 168 361 168 q 529 207 494 168 q 565 317 565 247 l 565 667 q 571 682 565 676 q 585 688 576 688 z "},"¶":{"ha":854,"x_min":47,"x_max":807,"o":"m 327 972 l 534 972 q 550 967 544 972 q 555 951 555 961 l 555 -243 q 550 -258 555 -252 q 534 -264 545 -264 l 395 -264 q 380 -258 387 -264 q 374 -243 374 -253 l 374 326 l 327 326 q 192 347 246 326 q 105 411 137 368 q 61 511 74 454 q 47 649 47 568 q 61 788 47 730 q 105 888 74 845 q 192 951 137 930 q 327 972 246 972 m 647 972 l 786 972 q 801 967 795 972 q 807 951 807 961 l 807 -243 q 802 -258 807 -252 q 786 -264 796 -264 l 647 -264 q 632 -258 637 -264 q 627 -243 627 -253 l 627 951 q 632 967 627 961 q 647 972 637 972 z "},"·":{"ha":854,"x_min":284,"x_max":570,"o":"m 528 324 q 507 303 528 324 q 427 282 486 282 q 326 324 368 282 q 284 425 284 366 q 326 526 284 484 q 427 568 368 568 q 528 526 486 568 q 570 425 570 484 q 528 324 570 366 z "},"¸":{"ha":854,"x_min":300,"x_max":561,"o":"m 488 0 l 435 -46 q 524 -81 486 -50 q 561 -161 561 -111 q 539 -239 561 -207 q 483 -286 518 -271 q 403 -306 448 -300 q 313 -302 359 -311 q 300 -287 301 -300 l 300 -219 q 305 -209 300 -213 q 316 -205 309 -204 q 400 -203 370 -213 q 431 -170 431 -193 q 415 -148 431 -157 q 375 -136 400 -138 q 317 -148 350 -135 q 305 -148 310 -151 q 300 -138 300 -146 l 300 -66 q 308 -50 300 -57 l 361 0 l 488 0 z "},"¹":{"ha":854,"x_min":115,"x_max":740,"o":"m 554 305 l 719 305 q 734 299 728 305 q 740 284 740 293 l 740 167 q 734 152 740 157 q 719 146 728 146 l 136 146 q 121 151 127 146 q 115 167 115 157 l 115 284 q 120 299 115 293 q 136 305 126 305 l 358 305 l 358 642 q 151 566 282 565 q 131 585 130 566 l 131 717 q 151 739 131 739 q 358 827 264 739 l 533 827 q 548 821 543 827 q 554 806 554 815 l 554 305 z "},"º":{"ha":854,"x_min":174,"x_max":680,"o":"m 606 547 q 569 510 606 547 q 427 473 532 473 q 248 547 322 473 q 174 726 174 621 q 248 906 174 832 q 427 979 322 979 q 606 906 532 979 q 680 726 680 832 q 606 547 680 621 m 345 644 q 361 628 345 644 q 427 611 378 611 q 510 644 476 611 q 544 726 544 677 q 510 809 544 775 q 427 843 476 843 q 345 809 378 843 q 312 726 312 776 q 345 644 312 677 z "},"»":{"ha":854,"x_min":55,"x_max":797,"o":"m 233 390 l 58 656 q 55 674 51 667 q 72 681 59 681 l 229 681 q 254 667 246 681 l 427 404 q 427 376 437 391 l 254 114 q 229 100 246 100 l 72 100 q 55 107 59 100 q 58 125 51 114 l 233 390 m 603 390 l 428 656 q 425 674 421 667 q 441 681 429 681 l 598 681 q 623 667 616 681 l 797 404 q 797 376 806 391 l 623 114 q 598 100 616 100 l 441 100 q 425 107 429 100 q 428 125 421 114 l 603 390 z "},"¼":{"ha":854,"x_min":10,"x_max":844,"o":"m 718 554 l 134 554 q 119 558 125 554 q 113 571 113 563 l 113 667 q 134 684 113 684 l 357 684 l 357 960 q 150 897 280 897 q 129 913 129 897 l 129 1021 q 150 1040 129 1040 q 357 1111 262 1040 l 532 1111 q 553 1094 553 1111 l 553 684 l 718 684 q 739 667 739 684 l 739 571 q 732 559 739 564 q 718 554 726 554 m 31 491 l 823 491 q 838 485 831 491 q 844 470 844 479 l 844 380 q 838 365 844 371 q 823 359 832 359 l 31 359 q 16 365 22 359 q 10 380 10 371 l 10 470 q 16 485 10 479 q 31 491 22 491 m 684 50 l 780 50 q 801 31 801 50 l 801 -70 q 795 -83 801 -77 q 780 -88 789 -88 l 684 -88 l 684 -245 q 663 -264 684 -264 l 509 -264 q 488 -245 488 -264 l 488 -88 l 73 -88 q 58 -83 64 -88 q 52 -70 52 -78 l 52 307 q 58 319 52 314 q 73 324 64 324 l 227 324 q 242 319 236 324 q 248 307 248 314 l 248 50 l 488 50 l 488 307 q 494 319 488 314 q 509 324 500 324 l 663 324 q 678 319 672 324 q 684 307 684 314 l 684 50 z "},"½":{"ha":854,"x_min":10,"x_max":844,"o":"m 724 554 l 140 554 q 125 558 132 554 q 119 571 119 563 l 119 667 q 140 684 119 684 l 363 684 l 363 960 q 157 897 288 897 q 136 913 136 897 l 136 1021 q 157 1040 136 1040 q 363 1111 269 1040 l 538 1111 q 559 1094 559 1111 l 559 684 l 724 684 q 745 667 745 684 l 745 571 q 739 559 745 564 q 724 554 732 554 m 31 491 l 823 491 q 838 485 831 491 q 844 470 844 479 l 844 380 q 838 365 844 371 q 823 359 832 359 l 31 359 q 16 365 22 359 q 10 380 10 371 l 10 470 q 16 485 10 479 q 31 491 22 491 m 330 -139 l 745 -139 q 760 -143 754 -139 q 766 -155 766 -148 l 766 -247 q 745 -264 766 -264 l 115 -264 q 94 -247 94 -264 l 94 -193 q 114 -113 94 -148 q 169 -56 135 -77 q 246 -17 203 -34 q 334 9 289 -1 q 422 28 379 18 q 499 47 465 38 q 554 71 533 56 q 574 106 574 86 q 438 161 574 161 q 318 143 359 161 q 269 79 277 125 q 245 64 267 62 l 106 77 q 87 95 87 79 q 179 248 87 197 q 430 298 272 298 q 601 276 526 298 q 719 210 675 254 q 762 106 762 166 q 739 38 762 68 q 676 -10 715 7 q 592 -40 638 -27 q 500 -63 546 -54 q 416 -81 454 -72 q 354 -105 378 -91 q 330 -139 330 -119 z "},"¾":{"ha":854,"x_min":10,"x_max":844,"o":"m 627 841 q 751 792 711 823 q 791 707 791 762 q 427 541 791 540 q 276 547 338 541 q 164 571 215 553 q 89 623 114 589 q 64 707 64 656 q 83 726 64 724 l 230 739 q 254 723 252 741 q 298 684 258 694 q 421 673 338 673 q 543 686 505 673 q 580 724 580 698 q 571 749 580 739 q 538 767 562 758 q 471 779 515 775 q 360 783 427 783 q 340 800 339 783 l 340 862 q 362 879 340 880 q 472 881 432 879 q 536 889 512 883 q 568 904 560 895 q 576 928 576 913 q 427 983 576 983 q 368 981 393 983 q 318 971 342 979 q 280 951 294 964 q 263 917 266 937 q 239 901 261 899 l 92 914 q 73 932 73 916 q 99 1021 73 984 q 173 1078 124 1057 q 285 1108 222 1099 q 431 1118 348 1118 q 603 1102 530 1118 q 721 1049 676 1086 q 766 959 766 1013 q 731 882 766 913 q 627 841 696 851 m 31 491 l 823 491 q 838 485 831 491 q 844 470 844 479 l 844 380 q 838 365 844 371 q 823 359 832 359 l 31 359 q 16 365 22 359 q 10 380 10 371 l 10 470 q 16 485 10 479 q 31 491 22 491 m 517 324 l 671 324 q 686 319 680 324 q 692 307 692 314 l 692 50 l 788 50 q 809 31 809 50 l 809 -70 q 803 -83 809 -77 q 788 -88 798 -88 l 692 -88 l 692 -245 q 671 -264 692 -264 l 517 -264 q 496 -245 496 -264 l 496 -88 l 81 -88 q 66 -83 73 -88 q 60 -70 60 -78 l 60 307 q 66 319 60 314 q 81 324 72 324 l 235 324 q 250 319 244 324 q 256 307 256 314 l 256 50 l 496 50 l 496 307 q 503 319 496 314 q 517 324 509 324 z "},"¿":{"ha":854,"x_min":88,"x_max":766,"o":"m 331 665 q 351 684 331 665 q 427 704 371 704 q 523 665 484 704 q 562 568 562 625 q 523 472 562 512 q 427 432 483 432 q 331 472 371 432 q 291 568 291 512 q 331 665 291 625 m 355 363 l 504 363 q 525 340 525 363 q 511 255 525 292 q 476 198 498 219 q 428 161 454 177 q 375 134 401 146 q 327 109 349 122 q 292 73 305 95 q 278 21 278 52 q 421 -82 278 -82 q 583 49 575 -82 q 606 68 583 68 l 747 68 q 766 46 767 68 q 675 -180 766 -102 q 425 -259 585 -259 q 180 -188 272 -259 q 88 20 88 -117 q 101 107 88 70 q 135 168 115 144 q 182 208 156 191 q 233 238 208 225 q 281 264 259 251 q 317 297 302 277 q 334 342 332 316 q 355 363 334 363 z "},"À":{"ha":854,"x_min":46,"x_max":808,"o":"m 331 1093 l 248 1268 q 248 1285 243 1279 q 264 1292 253 1292 l 402 1292 q 426 1275 418 1292 l 509 1100 q 509 1083 514 1089 q 492 1076 504 1076 l 355 1076 q 331 1093 338 1076 m 577 914 l 808 24 q 791 0 814 0 l 628 0 q 604 17 608 0 l 568 171 l 286 171 l 250 17 q 227 0 247 0 l 62 0 q 46 24 40 0 l 277 914 q 300 930 281 931 l 553 930 q 577 914 573 931 m 416 720 l 327 343 l 527 343 l 438 720 l 416 720 z "},"Á":{"ha":854,"x_min":46,"x_max":808,"o":"m 500 1076 l 363 1076 q 347 1083 352 1076 q 347 1100 342 1089 l 430 1275 q 454 1292 437 1292 l 591 1292 q 607 1285 602 1292 q 608 1268 612 1279 l 524 1093 q 500 1076 517 1076 m 577 914 l 808 24 q 791 0 814 0 l 628 0 q 604 17 608 0 l 568 171 l 286 171 l 250 17 q 227 0 247 0 l 62 0 q 46 24 40 0 l 277 914 q 300 930 281 931 l 553 930 q 577 914 573 931 m 416 720 l 327 343 l 527 343 l 438 720 l 416 720 z "},"Â":{"ha":854,"x_min":46,"x_max":808,"o":"m 311 1070 l 156 1070 q 139 1077 143 1070 q 144 1095 136 1084 l 299 1280 q 324 1292 309 1291 l 530 1292 q 555 1280 545 1292 l 711 1095 q 715 1078 719 1085 q 698 1070 711 1070 l 543 1070 q 518 1081 527 1070 l 427 1186 l 336 1081 q 311 1070 328 1070 m 577 914 l 808 24 q 791 0 814 0 l 628 0 q 604 17 608 0 l 568 171 l 286 171 l 250 17 q 227 0 247 0 l 62 0 q 46 24 40 0 l 277 914 q 300 930 281 931 l 553 930 q 577 914 573 931 m 416 720 l 327 343 l 527 343 l 438 720 l 416 720 z "},"Ã":{"ha":854,"x_min":46,"x_max":808,"o":"m 238 1132 l 167 1132 q 153 1150 153 1132 q 161 1204 153 1180 q 185 1245 170 1229 q 219 1273 199 1262 q 260 1289 239 1284 q 303 1294 281 1294 q 377 1278 342 1294 q 434 1243 412 1262 q 483 1207 455 1223 q 537 1192 511 1192 q 579 1204 562 1192 q 602 1233 595 1216 q 616 1244 606 1244 l 688 1244 q 701 1230 701 1244 q 678 1144 701 1179 q 622 1096 655 1109 q 549 1082 588 1082 q 489 1092 517 1082 q 440 1118 460 1103 q 400 1147 419 1133 q 361 1173 382 1162 q 317 1183 340 1183 q 253 1142 270 1183 q 238 1132 248 1132 m 577 914 l 808 24 q 791 0 814 0 l 628 0 q 604 17 608 0 l 568 171 l 286 171 l 250 17 q 227 0 247 0 l 62 0 q 46 24 40 0 l 277 914 q 300 930 281 931 l 553 930 q 577 914 573 931 m 416 720 l 327 343 l 527 343 l 438 720 l 416 720 z "},"Ä":{"ha":854,"x_min":46,"x_max":808,"o":"m 342 1123 q 328 1109 342 1123 q 273 1095 313 1095 q 204 1123 233 1095 q 176 1194 176 1152 q 204 1263 176 1234 q 273 1292 233 1292 q 342 1263 313 1292 q 371 1194 371 1235 q 342 1123 371 1152 m 649 1123 q 635 1109 649 1123 q 581 1095 621 1095 q 512 1123 541 1095 q 484 1194 484 1152 q 512 1263 484 1234 q 581 1292 541 1292 q 649 1263 621 1292 q 678 1194 678 1235 q 649 1123 678 1152 m 577 914 l 808 24 q 791 0 814 0 l 628 0 q 604 17 608 0 l 568 171 l 286 171 l 250 17 q 227 0 247 0 l 62 0 q 46 24 40 0 l 277 914 q 300 930 281 931 l 553 930 q 577 914 573 931 m 416 720 l 327 343 l 527 343 l 438 720 l 416 720 z "},"Å":{"ha":854,"x_min":46,"x_max":808,"o":"m 427 1009 q 325 1050 367 1009 q 283 1149 283 1092 q 325 1250 283 1208 q 427 1292 367 1292 q 528 1250 487 1292 q 570 1149 570 1208 q 528 1050 570 1092 q 427 1009 487 1009 m 427 1192 q 397 1180 409 1192 q 385 1152 385 1169 q 397 1121 385 1133 q 427 1110 408 1110 q 458 1122 446 1110 q 469 1151 470 1133 q 457 1180 469 1169 q 427 1192 445 1192 m 577 914 l 808 24 q 791 0 814 0 l 628 0 q 604 17 608 0 l 568 171 l 286 171 l 250 17 q 227 0 247 0 l 62 0 q 46 24 40 0 l 277 914 q 300 930 281 931 l 553 930 q 577 914 573 931 m 416 720 l 327 343 l 527 343 l 438 720 l 416 720 z "},"Æ":{"ha":854,"x_min":26,"x_max":831,"o":"m 614 179 l 810 179 q 825 174 819 179 q 831 158 831 168 l 831 21 q 825 6 831 12 q 810 0 819 0 l 439 0 q 424 5 429 0 q 418 21 418 11 l 418 111 l 254 111 l 221 17 q 197 0 216 0 l 43 0 q 27 6 31 0 q 26 24 22 13 l 361 914 q 385 930 367 931 l 808 930 q 824 925 818 930 q 829 909 829 920 l 829 772 q 824 757 829 763 q 808 751 818 751 l 614 751 l 614 568 l 781 568 q 796 562 790 568 q 802 547 802 555 l 802 409 q 796 394 802 400 q 781 388 790 388 l 614 388 l 614 179 m 418 589 l 313 283 l 418 283 l 418 589 z "},"Ç":{"ha":854,"x_min":71,"x_max":783,"o":"m 618 332 l 764 332 q 783 310 785 332 q 698 65 777 144 q 471 -20 620 -13 l 441 -46 q 530 -81 492 -50 q 568 -161 568 -111 q 546 -239 568 -207 q 489 -286 524 -271 q 410 -306 454 -300 q 319 -302 366 -311 q 307 -287 307 -300 l 307 -219 q 311 -209 307 -213 q 322 -205 315 -204 q 407 -203 376 -213 q 437 -170 437 -193 q 421 -148 437 -157 q 381 -136 406 -138 q 323 -148 356 -135 q 312 -148 317 -151 q 307 -138 307 -146 l 307 -66 q 314 -50 307 -57 l 351 -15 q 136 122 201 8 q 71 462 71 236 q 155 831 71 718 q 439 945 239 945 q 582 926 522 945 q 687 864 642 907 q 755 750 732 821 q 783 576 779 678 q 764 554 785 554 l 618 554 q 595 572 597 554 q 576 663 590 627 q 542 717 563 699 q 496 743 520 736 q 437 750 471 750 q 363 738 392 750 q 311 694 334 726 q 278 606 288 663 q 268 462 268 549 q 278 317 268 374 q 311 229 288 260 q 363 186 334 198 q 437 174 393 174 q 547 204 510 174 q 595 314 583 234 q 618 332 597 332 z "},"È":{"ha":854,"x_min":107,"x_max":747,"o":"m 492 1076 l 355 1076 q 331 1093 338 1076 l 248 1268 q 248 1285 243 1279 q 264 1292 253 1292 l 402 1292 q 426 1275 418 1292 l 509 1100 q 509 1083 514 1089 q 492 1076 504 1076 m 726 0 l 127 0 q 113 5 118 0 q 107 21 107 11 l 107 909 q 113 925 107 919 q 127 930 118 930 l 725 930 q 740 925 734 930 q 746 909 746 920 l 746 772 q 740 757 746 763 q 725 751 734 751 l 310 751 l 310 556 l 694 556 q 709 550 703 556 q 715 536 715 545 l 715 398 q 709 383 715 389 q 694 377 703 377 l 310 377 l 310 179 l 726 179 q 742 174 736 179 q 747 158 747 168 l 747 21 q 742 6 747 12 q 726 0 736 0 z "},"É":{"ha":854,"x_min":107,"x_max":747,"o":"m 500 1076 l 363 1076 q 347 1083 352 1076 q 347 1100 342 1089 l 430 1275 q 454 1292 437 1292 l 591 1292 q 607 1285 602 1292 q 608 1268 612 1279 l 524 1093 q 500 1076 517 1076 m 726 0 l 127 0 q 113 5 118 0 q 107 21 107 11 l 107 909 q 113 925 107 919 q 127 930 118 930 l 725 930 q 740 925 734 930 q 746 909 746 920 l 746 772 q 740 757 746 763 q 725 751 734 751 l 310 751 l 310 556 l 694 556 q 709 550 703 556 q 715 536 715 545 l 715 398 q 709 383 715 389 q 694 377 703 377 l 310 377 l 310 179 l 726 179 q 742 174 736 179 q 747 158 747 168 l 747 21 q 742 6 747 12 q 726 0 736 0 z "},"Ê":{"ha":854,"x_min":107,"x_max":747,"o":"m 311 1070 l 156 1070 q 139 1077 143 1070 q 144 1095 136 1084 l 299 1280 q 324 1292 309 1291 l 530 1292 q 555 1280 545 1292 l 711 1095 q 715 1078 719 1085 q 698 1070 711 1070 l 543 1070 q 518 1081 527 1070 l 427 1186 l 336 1081 q 311 1070 328 1070 m 726 0 l 127 0 q 113 5 118 0 q 107 21 107 11 l 107 909 q 113 925 107 919 q 127 930 118 930 l 725 930 q 740 925 734 930 q 746 909 746 920 l 746 772 q 740 757 746 763 q 725 751 734 751 l 310 751 l 310 556 l 694 556 q 709 550 703 556 q 715 536 715 545 l 715 398 q 709 383 715 389 q 694 377 703 377 l 310 377 l 310 179 l 726 179 q 742 174 736 179 q 747 158 747 168 l 747 21 q 742 6 747 12 q 726 0 736 0 z "},"Ë":{"ha":854,"x_min":107,"x_max":747,"o":"m 342 1123 q 328 1109 342 1123 q 273 1095 313 1095 q 204 1123 233 1095 q 176 1194 176 1152 q 204 1263 176 1234 q 273 1292 233 1292 q 342 1263 313 1292 q 371 1194 371 1235 q 342 1123 371 1152 m 649 1123 q 635 1109 649 1123 q 581 1095 621 1095 q 512 1123 541 1095 q 484 1194 484 1152 q 512 1263 484 1234 q 581 1292 541 1292 q 649 1263 621 1292 q 678 1194 678 1235 q 649 1123 678 1152 m 726 0 l 127 0 q 113 5 118 0 q 107 21 107 11 l 107 909 q 113 925 107 919 q 127 930 118 930 l 725 930 q 740 925 734 930 q 746 909 746 920 l 746 772 q 740 757 746 763 q 725 751 734 751 l 310 751 l 310 556 l 694 556 q 709 550 703 556 q 715 536 715 545 l 715 398 q 709 383 715 389 q 694 377 703 377 l 310 377 l 310 179 l 726 179 q 742 174 736 179 q 747 158 747 168 l 747 21 q 742 6 747 12 q 726 0 736 0 z "},"Ì":{"ha":854,"x_min":90,"x_max":764,"o":"m 492 1076 l 355 1076 q 331 1093 338 1076 l 248 1268 q 248 1285 243 1279 q 264 1292 253 1292 l 402 1292 q 426 1275 418 1292 l 509 1100 q 509 1083 514 1089 q 492 1076 504 1076 m 744 0 l 111 0 q 96 5 102 0 q 90 21 90 11 l 90 158 q 96 173 90 168 q 111 179 102 179 l 326 179 l 326 751 l 111 751 q 96 757 102 751 q 90 772 90 762 l 90 909 q 96 925 90 919 q 111 930 102 930 l 744 930 q 759 925 753 930 q 764 909 764 920 l 764 772 q 759 757 764 763 q 744 751 753 751 l 528 751 l 528 179 l 744 179 q 759 174 753 179 q 764 158 764 168 l 764 21 q 759 6 764 12 q 744 0 753 0 z "},"Í":{"ha":854,"x_min":90,"x_max":764,"o":"m 500 1076 l 363 1076 q 347 1083 352 1076 q 347 1100 342 1089 l 430 1275 q 454 1292 437 1292 l 591 1292 q 607 1285 602 1292 q 608 1268 612 1279 l 524 1093 q 500 1076 517 1076 m 744 0 l 111 0 q 96 5 102 0 q 90 21 90 11 l 90 158 q 96 173 90 168 q 111 179 102 179 l 326 179 l 326 751 l 111 751 q 96 757 102 751 q 90 772 90 762 l 90 909 q 96 925 90 919 q 111 930 102 930 l 744 930 q 759 925 753 930 q 764 909 764 920 l 764 772 q 759 757 764 763 q 744 751 753 751 l 528 751 l 528 179 l 744 179 q 759 174 753 179 q 764 158 764 168 l 764 21 q 759 6 764 12 q 744 0 753 0 z "},"Î":{"ha":854,"x_min":90,"x_max":764,"o":"m 311 1070 l 156 1070 q 139 1077 143 1070 q 144 1095 136 1084 l 299 1280 q 324 1292 309 1291 l 530 1292 q 555 1280 545 1292 l 711 1095 q 715 1078 719 1085 q 698 1070 711 1070 l 543 1070 q 518 1081 527 1070 l 427 1186 l 336 1081 q 311 1070 328 1070 m 744 0 l 111 0 q 96 5 102 0 q 90 21 90 11 l 90 158 q 96 173 90 168 q 111 179 102 179 l 326 179 l 326 751 l 111 751 q 96 757 102 751 q 90 772 90 762 l 90 909 q 96 925 90 919 q 111 930 102 930 l 744 930 q 759 925 753 930 q 764 909 764 920 l 764 772 q 759 757 764 763 q 744 751 753 751 l 528 751 l 528 179 l 744 179 q 759 174 753 179 q 764 158 764 168 l 764 21 q 759 6 764 12 q 744 0 753 0 z "},"Ï":{"ha":854,"x_min":90,"x_max":764,"o":"m 342 1123 q 328 1109 342 1123 q 273 1095 313 1095 q 204 1123 233 1095 q 176 1194 176 1152 q 204 1263 176 1234 q 273 1292 233 1292 q 342 1263 313 1292 q 371 1194 371 1235 q 342 1123 371 1152 m 649 1123 q 635 1109 649 1123 q 581 1095 621 1095 q 512 1123 541 1095 q 484 1194 484 1152 q 512 1263 484 1234 q 581 1292 541 1292 q 649 1263 621 1292 q 678 1194 678 1235 q 649 1123 678 1152 m 744 0 l 111 0 q 96 5 102 0 q 90 21 90 11 l 90 158 q 96 173 90 168 q 111 179 102 179 l 326 179 l 326 751 l 111 751 q 96 757 102 751 q 90 772 90 762 l 90 909 q 96 925 90 919 q 111 930 102 930 l 744 930 q 759 925 753 930 q 764 909 764 920 l 764 772 q 759 757 764 763 q 744 751 753 751 l 528 751 l 528 179 l 744 179 q 759 174 753 179 q 764 158 764 168 l 764 21 q 759 6 764 12 q 744 0 753 0 z "},"Ð":{"ha":854,"x_min":37,"x_max":812,"o":"m 121 930 l 429 930 q 583 908 516 930 q 692 845 649 885 q 763 745 735 804 q 801 617 790 685 q 812 465 812 549 q 801 313 812 381 q 763 186 790 245 q 692 86 735 126 q 583 23 649 46 q 429 0 516 0 l 121 0 q 106 5 113 0 q 100 21 100 11 l 100 389 l 58 389 q 43 395 49 389 q 37 410 37 401 l 37 520 q 43 535 37 529 q 58 541 49 541 l 100 541 l 100 909 q 106 925 100 919 q 121 930 113 930 m 303 179 l 422 179 q 500 192 468 179 q 554 228 533 205 q 586 288 574 251 q 602 367 598 326 q 606 465 606 408 q 602 564 606 522 q 586 642 598 605 q 554 702 574 680 q 500 738 533 725 q 422 751 467 751 l 303 751 l 303 541 l 436 541 q 451 535 446 541 q 457 520 457 529 l 457 410 q 451 395 457 401 q 436 389 446 389 l 303 389 l 303 179 z "},"Ñ":{"ha":854,"x_min":100,"x_max":755,"o":"m 238 1132 l 167 1132 q 153 1150 153 1132 q 161 1204 153 1180 q 185 1245 170 1229 q 219 1273 199 1262 q 260 1289 239 1284 q 303 1294 281 1294 q 377 1278 342 1294 q 434 1243 412 1262 q 483 1207 455 1223 q 537 1192 511 1192 q 579 1204 562 1192 q 602 1233 595 1216 q 616 1244 606 1244 l 688 1244 q 701 1230 701 1244 q 678 1144 701 1179 q 622 1096 655 1109 q 549 1082 588 1082 q 489 1092 517 1082 q 440 1118 460 1103 q 400 1147 419 1133 q 361 1173 382 1162 q 317 1183 340 1183 q 253 1142 270 1183 q 238 1132 248 1132 m 595 930 l 734 930 q 749 925 743 930 q 755 909 755 920 l 755 21 q 749 6 755 12 q 734 0 743 0 l 557 0 q 532 14 538 0 l 281 591 l 281 21 q 275 6 281 12 q 260 0 269 0 l 121 0 q 105 5 111 0 q 100 21 100 11 l 100 909 q 105 925 100 919 q 121 930 111 930 l 297 930 q 322 917 316 930 l 574 340 l 574 909 q 579 925 574 919 q 595 930 585 930 z "},"Ò":{"ha":854,"x_min":71,"x_max":783,"o":"m 492 1076 l 355 1076 q 331 1093 338 1076 l 248 1268 q 248 1285 243 1279 q 264 1292 253 1292 l 402 1292 q 426 1275 418 1292 l 509 1100 q 509 1083 514 1089 q 492 1076 504 1076 m 700 93 q 659 36 700 93 q 427 -21 618 -21 q 154 93 236 -21 q 71 462 71 208 q 154 831 71 717 q 427 945 236 945 q 700 831 618 945 q 783 462 783 717 q 700 93 783 208 m 358 186 q 372 180 358 186 q 427 174 386 174 q 495 186 468 174 q 545 229 523 198 q 576 318 566 260 q 586 462 586 375 q 576 606 586 549 q 545 694 566 663 q 495 738 523 726 q 427 750 468 750 q 358 738 386 750 q 310 694 331 726 q 278 606 288 663 q 268 462 268 549 q 278 318 268 375 q 310 229 288 260 q 358 186 331 198 z "},"Ó":{"ha":854,"x_min":71,"x_max":783,"o":"m 500 1076 l 363 1076 q 347 1083 352 1076 q 347 1100 342 1089 l 430 1275 q 454 1292 437 1292 l 591 1292 q 607 1285 602 1292 q 608 1268 612 1279 l 524 1093 q 500 1076 517 1076 m 700 93 q 659 36 700 93 q 427 -21 618 -21 q 154 93 236 -21 q 71 462 71 208 q 154 831 71 717 q 427 945 236 945 q 700 831 618 945 q 783 462 783 717 q 700 93 783 208 m 358 186 q 372 180 358 186 q 427 174 386 174 q 495 186 468 174 q 545 229 523 198 q 576 318 566 260 q 586 462 586 375 q 576 606 586 549 q 545 694 566 663 q 495 738 523 726 q 427 750 468 750 q 358 738 386 750 q 310 694 331 726 q 278 606 288 663 q 268 462 268 549 q 278 318 268 375 q 310 229 288 260 q 358 186 331 198 z "},"Ô":{"ha":854,"x_min":71,"x_max":783,"o":"m 311 1070 l 156 1070 q 139 1077 143 1070 q 144 1095 136 1084 l 299 1280 q 324 1292 309 1291 l 530 1292 q 555 1280 545 1292 l 711 1095 q 715 1078 719 1085 q 698 1070 711 1070 l 543 1070 q 518 1081 527 1070 l 427 1186 l 336 1081 q 311 1070 328 1070 m 700 93 q 659 36 700 93 q 427 -21 618 -21 q 154 93 236 -21 q 71 462 71 208 q 154 831 71 717 q 427 945 236 945 q 700 831 618 945 q 783 462 783 717 q 700 93 783 208 m 358 186 q 372 180 358 186 q 427 174 386 174 q 495 186 468 174 q 545 229 523 198 q 576 318 566 260 q 586 462 586 375 q 576 606 586 549 q 545 694 566 663 q 495 738 523 726 q 427 750 468 750 q 358 738 386 750 q 310 694 331 726 q 278 606 288 663 q 268 462 268 549 q 278 318 268 375 q 310 229 288 260 q 358 186 331 198 z "},"Õ":{"ha":854,"x_min":71,"x_max":783,"o":"m 549 1082 q 489 1092 517 1082 q 440 1118 460 1103 q 400 1147 419 1133 q 361 1173 382 1162 q 317 1183 340 1183 q 253 1142 270 1183 q 238 1132 248 1132 l 167 1132 q 153 1150 153 1132 q 161 1204 153 1180 q 185 1245 170 1229 q 219 1273 199 1262 q 260 1289 239 1284 q 303 1294 281 1294 q 377 1278 342 1294 q 434 1243 412 1262 q 483 1207 455 1223 q 537 1192 511 1192 q 579 1204 562 1192 q 602 1233 595 1216 q 616 1244 606 1244 l 688 1244 q 701 1230 701 1244 q 678 1144 701 1179 q 622 1096 655 1109 q 549 1082 588 1082 m 700 93 q 659 36 700 93 q 427 -21 618 -21 q 154 93 236 -21 q 71 462 71 208 q 154 831 71 717 q 427 945 236 945 q 700 831 618 945 q 783 462 783 717 q 700 93 783 208 m 358 186 q 372 180 358 186 q 427 174 386 174 q 495 186 468 174 q 545 229 523 198 q 576 318 566 260 q 586 462 586 375 q 576 606 586 549 q 545 694 566 663 q 495 738 523 726 q 427 750 468 750 q 358 738 386 750 q 310 694 331 726 q 278 606 288 663 q 268 462 268 549 q 278 318 268 375 q 310 229 288 260 q 358 186 331 198 z "},"Ö":{"ha":854,"x_min":71,"x_max":783,"o":"m 342 1123 q 328 1109 342 1123 q 273 1095 313 1095 q 204 1123 233 1095 q 176 1194 176 1152 q 204 1263 176 1234 q 273 1292 233 1292 q 342 1263 313 1292 q 371 1194 371 1235 q 342 1123 371 1152 m 649 1123 q 635 1109 649 1123 q 581 1095 621 1095 q 512 1123 541 1095 q 484 1194 484 1152 q 512 1263 484 1234 q 581 1292 541 1292 q 649 1263 621 1292 q 678 1194 678 1235 q 649 1123 678 1152 m 700 93 q 659 36 700 93 q 427 -21 618 -21 q 154 93 236 -21 q 71 462 71 208 q 154 831 71 717 q 427 945 236 945 q 700 831 618 945 q 783 462 783 717 q 700 93 783 208 m 358 186 q 372 180 358 186 q 427 174 386 174 q 495 186 468 174 q 545 229 523 198 q 576 318 566 260 q 586 462 586 375 q 576 606 586 549 q 545 694 566 663 q 495 738 523 726 q 427 750 468 750 q 358 738 386 750 q 310 694 331 726 q 278 606 288 663 q 268 462 268 549 q 278 318 268 375 q 310 229 288 260 q 358 186 331 198 z "},"×":{"ha":854,"x_min":117,"x_max":736,"o":"m 736 662 l 529 454 l 736 245 q 736 216 751 230 l 665 144 q 635 144 650 129 l 427 352 l 220 144 q 190 144 204 129 l 117 216 q 117 245 102 231 l 326 454 l 117 662 q 117 692 102 677 l 190 764 q 220 764 205 779 l 427 555 l 635 764 q 665 764 650 779 l 736 692 q 736 662 751 677 z "},"Ø":{"ha":854,"x_min":71,"x_max":783,"o":"m 773 989 l 694 839 q 783 462 783 727 q 700 93 783 208 q 427 -21 618 -21 q 259 9 328 -21 l 214 -75 q 191 -90 207 -91 l 97 -90 q 80 -83 85 -90 q 81 -65 76 -77 l 161 85 q 71 462 72 197 q 154 831 71 717 q 427 945 236 945 q 595 915 527 945 l 640 999 q 663 1014 647 1015 l 758 1014 q 774 1007 769 1014 q 773 989 779 1000 m 278 606 q 273 577 278 606 q 268 462 268 549 q 279 313 268 375 l 501 735 q 427 750 471 750 q 359 738 387 750 q 310 694 331 726 q 278 606 288 663 m 427 174 q 495 186 468 174 q 545 229 523 198 q 576 318 566 260 q 586 462 586 375 q 575 611 586 549 l 353 189 q 427 174 382 174 z "},"Ù":{"ha":854,"x_min":85,"x_max":769,"o":"m 492 1076 l 355 1076 q 331 1093 338 1076 l 248 1268 q 248 1285 243 1279 q 264 1292 253 1292 l 402 1292 q 426 1275 418 1292 l 509 1100 q 509 1083 514 1089 q 492 1076 504 1076 m 682 64 q 639 22 682 64 q 427 -21 595 -21 q 172 64 259 -21 q 85 320 85 149 l 85 909 q 91 925 85 919 q 106 930 97 930 l 267 930 q 282 925 276 930 q 288 909 288 920 l 288 336 q 427 174 288 174 q 566 336 566 174 l 566 909 q 572 925 566 919 q 587 930 578 930 l 748 930 q 763 925 757 930 q 769 909 769 920 l 769 320 q 682 64 769 149 z "},"Ú":{"ha":854,"x_min":85,"x_max":769,"o":"m 500 1076 l 363 1076 q 347 1083 352 1076 q 347 1100 342 1089 l 430 1275 q 454 1292 437 1292 l 591 1292 q 607 1285 602 1292 q 608 1268 612 1279 l 524 1093 q 500 1076 517 1076 m 682 64 q 639 22 682 64 q 427 -21 595 -21 q 172 64 259 -21 q 85 320 85 149 l 85 909 q 91 925 85 919 q 106 930 97 930 l 267 930 q 282 925 276 930 q 288 909 288 920 l 288 336 q 427 174 288 174 q 566 336 566 174 l 566 909 q 572 925 566 919 q 587 930 578 930 l 748 930 q 763 925 757 930 q 769 909 769 920 l 769 320 q 682 64 769 149 z "},"Û":{"ha":854,"x_min":85,"x_max":769,"o":"m 311 1070 l 156 1070 q 139 1077 143 1070 q 144 1095 136 1084 l 299 1280 q 324 1292 309 1291 l 530 1292 q 555 1280 545 1292 l 711 1095 q 715 1078 719 1085 q 698 1070 711 1070 l 543 1070 q 518 1081 527 1070 l 427 1186 l 336 1081 q 311 1070 328 1070 m 682 64 q 639 22 682 64 q 427 -21 595 -21 q 172 64 259 -21 q 85 320 85 149 l 85 909 q 91 925 85 919 q 106 930 97 930 l 267 930 q 282 925 276 930 q 288 909 288 920 l 288 336 q 427 174 288 174 q 566 336 566 174 l 566 909 q 572 925 566 919 q 587 930 578 930 l 748 930 q 763 925 757 930 q 769 909 769 920 l 769 320 q 682 64 769 149 z "},"Ü":{"ha":854,"x_min":85,"x_max":769,"o":"m 342 1123 q 328 1109 342 1123 q 273 1095 313 1095 q 204 1123 233 1095 q 176 1194 176 1152 q 204 1263 176 1234 q 273 1292 233 1292 q 342 1263 313 1292 q 371 1194 371 1235 q 342 1123 371 1152 m 649 1123 q 635 1109 649 1123 q 581 1095 621 1095 q 512 1123 541 1095 q 484 1194 484 1152 q 512 1263 484 1234 q 581 1292 541 1292 q 649 1263 621 1292 q 678 1194 678 1235 q 649 1123 678 1152 m 682 64 q 639 22 682 64 q 427 -21 595 -21 q 172 64 259 -21 q 85 320 85 149 l 85 909 q 91 925 85 919 q 106 930 97 930 l 267 930 q 282 925 276 930 q 288 909 288 920 l 288 336 q 427 174 288 174 q 566 336 566 174 l 566 909 q 572 925 566 919 q 587 930 578 930 l 748 930 q 763 925 757 930 q 769 909 769 920 l 769 320 q 682 64 769 149 z "},"Ý":{"ha":854,"x_min":42,"x_max":812,"o":"m 500 1076 l 363 1076 q 347 1083 352 1076 q 347 1100 342 1089 l 430 1275 q 454 1292 437 1292 l 591 1292 q 607 1285 602 1292 q 608 1268 612 1279 l 524 1093 q 500 1076 517 1076 m 626 930 l 796 930 q 812 924 808 930 q 810 905 816 917 l 528 359 l 528 21 q 523 6 528 12 q 508 0 517 0 l 347 0 q 332 5 338 0 q 326 21 326 11 l 326 362 l 45 905 q 42 923 39 916 q 58 930 46 930 l 229 930 q 254 917 247 930 l 427 553 l 601 917 q 626 930 608 930 z "},"Þ":{"ha":854,"x_min":62,"x_max":792,"o":"m 264 785 l 435 785 q 700 701 608 785 q 792 465 792 618 q 700 229 792 313 q 435 146 608 146 l 264 146 l 264 21 q 259 6 264 12 q 243 0 253 0 l 83 0 q 68 5 74 0 q 62 21 62 11 l 62 909 q 68 925 62 919 q 83 930 74 930 l 243 930 q 258 925 252 930 q 264 909 264 920 l 264 785 m 264 325 l 421 325 q 553 355 508 325 q 598 465 598 386 q 553 575 598 545 q 421 606 508 606 l 264 606 l 264 325 z "},"ß":{"ha":854,"x_min":12,"x_max":822,"o":"m 628 520 q 648 472 628 494 q 696 429 668 450 q 753 384 725 408 q 802 320 782 359 q 822 229 822 280 q 737 60 822 121 q 490 0 652 0 l 431 0 q 415 5 421 0 q 410 21 410 11 l 410 131 q 415 146 410 140 q 431 151 421 151 l 476 151 q 627 243 626 151 q 607 305 627 277 q 558 354 587 334 q 502 395 530 374 q 454 443 474 415 q 435 503 435 471 q 448 553 435 529 q 476 594 460 577 q 504 638 491 610 q 517 696 517 665 q 406 795 517 795 q 321 767 350 795 q 292 675 292 740 l 292 21 q 287 6 292 12 q 271 0 281 0 l 117 0 q 102 5 109 0 q 96 21 96 11 l 96 495 l 34 495 q 18 501 24 495 q 12 516 12 507 l 12 632 q 18 647 12 641 q 34 653 24 653 l 96 653 l 96 686 q 181 899 96 826 q 408 972 266 972 q 629 908 545 972 q 713 726 713 843 q 704 663 713 691 q 683 616 695 634 q 657 584 670 599 q 636 553 645 569 q 628 520 628 537 z "},"à":{"ha":854,"x_min":75,"x_max":786,"o":"m 339 850 l 256 1025 q 256 1042 251 1036 q 272 1048 260 1048 l 410 1048 q 433 1032 426 1048 l 517 857 q 517 840 522 846 q 500 833 512 833 l 363 833 q 339 850 347 833 m 759 134 q 774 121 769 125 q 782 106 779 116 q 786 83 786 96 l 786 56 q 699 -10 786 -10 q 601 21 641 -10 q 562 115 562 52 l 562 123 l 547 123 q 475 24 529 65 q 330 -18 422 -18 l 295 -18 q 134 36 193 -18 q 75 190 75 90 q 294 390 75 376 l 543 406 l 543 439 q 516 523 543 501 q 417 545 490 545 q 327 531 355 545 q 292 482 298 517 q 273 469 290 469 l 128 469 q 107 490 108 469 q 423 701 111 701 q 663 636 593 701 q 733 429 733 572 l 733 214 q 737 170 733 186 q 745 148 741 154 q 759 134 749 142 m 366 130 l 385 130 q 496 162 450 130 q 543 255 543 195 l 543 288 l 341 272 q 265 203 265 267 q 366 130 266 130 z "},"á":{"ha":854,"x_min":75,"x_max":786,"o":"m 509 833 l 371 833 q 354 840 359 833 q 354 857 349 846 l 437 1032 q 461 1048 445 1049 l 599 1048 q 615 1042 610 1048 q 615 1025 620 1036 l 532 850 q 509 833 525 833 m 759 134 q 774 121 769 125 q 782 106 779 116 q 786 83 786 96 l 786 56 q 699 -10 786 -10 q 601 21 641 -10 q 562 115 562 52 l 562 123 l 547 123 q 475 24 529 65 q 330 -18 422 -18 l 295 -18 q 134 36 193 -18 q 75 190 75 90 q 294 390 75 376 l 543 406 l 543 439 q 516 523 543 501 q 417 545 490 545 q 327 531 355 545 q 292 482 298 517 q 273 469 290 469 l 128 469 q 107 490 108 469 q 423 701 111 701 q 663 636 593 701 q 733 429 733 572 l 733 214 q 737 170 733 186 q 745 148 741 154 q 759 134 749 142 m 366 130 l 385 130 q 496 162 450 130 q 543 255 543 195 l 543 288 l 341 272 q 265 203 265 267 q 366 130 266 130 z "},"â":{"ha":854,"x_min":75,"x_max":786,"o":"m 319 827 l 164 827 q 147 834 151 827 q 151 852 143 842 l 307 1038 q 332 1048 317 1048 l 538 1048 q 562 1038 553 1048 l 718 852 q 723 834 726 842 q 705 827 720 827 l 551 827 q 526 838 534 827 l 435 943 l 344 838 q 319 827 335 827 m 759 134 q 774 121 769 125 q 782 106 779 116 q 786 83 786 96 l 786 56 q 699 -10 786 -10 q 601 21 641 -10 q 562 115 562 52 l 562 123 l 547 123 q 475 24 529 65 q 330 -18 422 -18 l 295 -18 q 134 36 193 -18 q 75 190 75 90 q 294 390 75 376 l 543 406 l 543 439 q 516 523 543 501 q 417 545 490 545 q 327 531 355 545 q 292 482 298 517 q 273 469 290 469 l 128 469 q 107 490 108 469 q 423 701 111 701 q 663 636 593 701 q 733 429 733 572 l 733 214 q 737 170 733 186 q 745 148 741 154 q 759 134 749 142 m 366 130 l 385 130 q 496 162 450 130 q 543 255 543 195 l 543 288 l 341 272 q 265 203 265 267 q 366 130 266 130 z "},"ã":{"ha":854,"x_min":75,"x_max":786,"o":"m 245 889 l 174 889 q 160 907 160 889 q 169 961 160 937 q 192 1002 177 986 q 226 1030 206 1019 q 267 1046 245 1041 q 311 1050 288 1050 q 385 1035 350 1050 q 440 1000 419 1019 q 490 965 462 981 q 544 949 517 949 q 586 961 569 949 q 608 989 602 973 q 624 1001 612 1000 l 694 1001 q 708 987 708 1001 q 685 901 708 936 q 629 853 662 867 q 556 839 595 839 q 496 849 524 839 q 447 875 467 860 q 408 905 427 890 q 368 930 389 920 q 324 940 347 940 q 260 899 277 940 q 245 889 254 889 m 759 134 q 774 121 769 125 q 782 106 779 116 q 786 83 786 96 l 786 56 q 699 -10 786 -10 q 601 21 641 -10 q 562 115 562 52 l 562 123 l 547 123 q 475 24 529 65 q 330 -18 422 -18 l 295 -18 q 134 36 193 -18 q 75 190 75 90 q 294 390 75 376 l 543 406 l 543 439 q 516 523 543 501 q 417 545 490 545 q 327 531 355 545 q 292 482 298 517 q 273 469 290 469 l 128 469 q 107 490 108 469 q 423 701 111 701 q 663 636 593 701 q 733 429 733 572 l 733 214 q 737 170 733 186 q 745 148 741 154 q 759 134 749 142 m 366 130 l 385 130 q 496 162 450 130 q 543 255 543 195 l 543 288 l 341 272 q 265 203 265 267 q 366 130 266 130 z "},"ä":{"ha":854,"x_min":75,"x_max":786,"o":"m 350 880 q 335 866 350 880 q 280 851 321 851 q 212 880 240 851 q 183 951 183 909 q 212 1020 183 991 q 281 1048 241 1048 q 350 1020 321 1048 q 378 951 378 991 q 350 880 378 909 m 657 880 q 643 866 657 880 q 588 851 629 851 q 519 880 548 851 q 491 951 491 909 q 520 1020 491 991 q 588 1048 549 1048 q 657 1020 628 1048 q 686 951 686 991 q 657 880 686 909 m 759 134 q 774 121 769 125 q 782 106 779 116 q 786 83 786 96 l 786 56 q 699 -10 786 -10 q 601 21 641 -10 q 562 115 562 52 l 562 123 l 547 123 q 475 24 529 65 q 330 -18 422 -18 l 295 -18 q 134 36 193 -18 q 75 190 75 90 q 294 390 75 376 l 543 406 l 543 439 q 516 523 543 501 q 417 545 490 545 q 327 531 355 545 q 292 482 298 517 q 273 469 290 469 l 128 469 q 107 490 108 469 q 423 701 111 701 q 663 636 593 701 q 733 429 733 572 l 733 214 q 737 170 733 186 q 745 148 741 154 q 759 134 749 142 m 366 130 l 385 130 q 496 162 450 130 q 543 255 543 195 l 543 288 l 341 272 q 265 203 265 267 q 366 130 266 130 z "},"å":{"ha":854,"x_min":75,"x_max":786,"o":"m 434 766 q 332 807 374 766 q 290 906 290 848 q 332 1007 290 965 q 434 1048 374 1048 q 535 1007 494 1048 q 576 906 576 965 q 535 807 576 848 q 434 766 494 766 m 434 949 q 404 938 416 949 q 393 908 393 926 q 404 878 393 889 q 434 867 415 867 q 465 879 452 867 q 476 908 477 890 q 464 938 475 926 q 434 949 452 949 m 759 134 q 774 121 769 125 q 782 106 779 116 q 786 83 786 96 l 786 56 q 699 -10 786 -10 q 601 21 641 -10 q 562 115 562 52 l 562 123 l 547 123 q 475 24 529 65 q 330 -18 422 -18 l 295 -18 q 134 36 193 -18 q 75 190 75 90 q 294 390 75 376 l 543 406 l 543 439 q 516 523 543 501 q 417 545 490 545 q 327 531 355 545 q 292 482 298 517 q 273 469 290 469 l 128 469 q 107 490 108 469 q 423 701 111 701 q 663 636 593 701 q 733 429 733 572 l 733 214 q 737 170 733 186 q 745 148 741 154 q 759 134 749 142 m 366 130 l 385 130 q 496 162 450 130 q 543 255 543 195 l 543 288 l 341 272 q 265 203 265 267 q 366 130 266 130 z "},"æ":{"ha":854,"x_min":31,"x_max":823,"o":"m 625 132 q 741 177 689 132 l 816 86 q 612 -18 741 -18 q 419 93 477 -18 q 227 -18 345 -18 q 87 36 144 -18 q 31 193 31 90 q 82 340 31 285 q 235 396 132 396 l 358 396 l 358 454 q 337 527 358 504 q 273 549 317 549 q 194 481 196 549 q 175 465 193 465 l 80 465 q 64 470 71 465 q 59 487 58 476 q 119 653 63 603 q 275 703 174 703 q 442 625 399 703 q 600 703 500 703 q 704 675 660 703 q 774 599 749 648 q 811 488 800 549 q 823 350 823 427 q 811 292 823 306 q 758 277 800 277 l 491 277 q 529 169 498 206 q 625 132 560 132 m 591 549 q 519 511 543 549 q 491 396 496 473 l 682 396 q 660 512 682 475 q 591 549 639 549 m 358 212 l 358 277 l 260 277 q 198 257 216 277 q 180 206 180 237 q 198 156 180 174 q 253 138 216 138 q 358 212 329 137 z "},"ç":{"ha":854,"x_min":86,"x_max":743,"o":"m 629 241 l 736 168 q 743 140 755 157 q 648 42 708 82 q 514 -12 589 1 l 475 -46 q 563 -81 526 -50 q 601 -161 601 -111 q 579 -239 601 -207 q 523 -286 557 -271 q 443 -306 488 -300 q 353 -302 399 -311 q 340 -287 340 -300 l 340 -219 q 345 -209 340 -213 q 355 -205 349 -204 q 440 -203 410 -213 q 470 -170 470 -193 q 455 -148 470 -157 q 414 -136 439 -138 q 357 -148 389 -135 q 345 -148 350 -151 q 340 -138 340 -146 l 340 -66 q 347 -50 340 -57 l 387 -13 q 170 105 254 8 q 86 342 86 203 q 189 600 86 498 q 447 701 292 701 q 622 658 545 701 q 743 544 700 615 q 736 515 755 528 l 629 442 q 601 448 614 433 q 454 519 544 519 q 327 471 377 519 q 277 342 277 422 q 327 214 277 263 q 454 165 377 165 q 601 236 544 165 q 629 241 614 251 z "},"è":{"ha":854,"x_min":83,"x_max":772,"o":"m 331 850 l 248 1025 q 248 1042 243 1036 q 264 1048 253 1048 l 402 1048 q 426 1032 418 1048 l 509 857 q 509 840 514 846 q 492 833 504 833 l 355 833 q 331 850 338 833 m 772 357 q 759 302 772 318 q 705 286 747 286 l 269 286 q 332 176 276 215 q 474 137 387 137 q 624 171 554 137 q 655 176 642 180 q 689 145 668 171 q 713 102 711 117 q 697 66 715 86 q 596 6 660 29 q 452 -18 532 -18 q 184 82 286 -18 q 83 343 83 182 q 181 602 83 502 q 437 701 279 701 q 682 606 592 701 q 772 357 772 510 m 439 536 q 332 506 374 537 q 276 414 289 475 l 598 414 q 546 506 588 475 q 439 536 504 536 z "},"é":{"ha":854,"x_min":83,"x_max":772,"o":"m 500 833 l 363 833 q 347 840 352 833 q 347 857 342 846 l 430 1032 q 454 1048 437 1049 l 591 1048 q 607 1042 602 1048 q 608 1025 612 1036 l 524 850 q 500 833 517 833 m 772 357 q 759 302 772 318 q 705 286 747 286 l 269 286 q 332 176 276 215 q 474 137 387 137 q 624 171 554 137 q 655 176 642 180 q 689 145 668 171 q 713 102 711 117 q 697 66 715 86 q 596 6 660 29 q 452 -18 532 -18 q 184 82 286 -18 q 83 343 83 182 q 181 602 83 502 q 437 701 279 701 q 682 606 592 701 q 772 357 772 510 m 439 536 q 332 506 374 537 q 276 414 289 475 l 598 414 q 546 506 588 475 q 439 536 504 536 z "},"ê":{"ha":854,"x_min":83,"x_max":772,"o":"m 311 827 l 156 827 q 139 834 143 827 q 144 852 136 842 l 299 1038 q 324 1048 309 1048 l 530 1048 q 555 1038 545 1048 l 711 852 q 715 834 719 842 q 698 827 711 827 l 543 827 q 518 838 527 827 l 427 943 l 336 838 q 311 827 328 827 m 772 357 q 759 302 772 318 q 705 286 747 286 l 269 286 q 332 176 276 215 q 474 137 387 137 q 624 171 554 137 q 655 176 642 180 q 689 145 668 171 q 713 102 711 117 q 697 66 715 86 q 596 6 660 29 q 452 -18 532 -18 q 184 82 286 -18 q 83 343 83 182 q 181 602 83 502 q 437 701 279 701 q 682 606 592 701 q 772 357 772 510 m 439 536 q 332 506 374 537 q 276 414 289 475 l 598 414 q 546 506 588 475 q 439 536 504 536 z "},"ë":{"ha":854,"x_min":83,"x_max":772,"o":"m 342 880 q 328 866 342 880 q 273 851 313 851 q 204 880 233 851 q 176 951 176 909 q 204 1020 176 991 q 273 1048 233 1048 q 342 1020 313 1048 q 371 951 371 991 q 342 880 371 909 m 649 880 q 635 866 649 880 q 581 851 621 851 q 512 880 541 851 q 484 951 484 909 q 512 1020 484 991 q 581 1048 541 1048 q 649 1020 621 1048 q 678 951 678 991 q 649 880 678 909 m 772 357 q 759 302 772 318 q 705 286 747 286 l 269 286 q 332 176 276 215 q 474 137 387 137 q 624 171 554 137 q 655 176 642 180 q 689 145 668 171 q 713 102 711 117 q 697 66 715 86 q 596 6 660 29 q 452 -18 532 -18 q 184 82 286 -18 q 83 343 83 182 q 181 602 83 502 q 437 701 279 701 q 682 606 592 701 q 772 357 772 510 m 439 536 q 332 506 374 537 q 276 414 289 475 l 598 414 q 546 506 588 475 q 439 536 504 536 z "},"ì":{"ha":854,"x_min":107,"x_max":751,"o":"m 324 850 l 241 1025 q 241 1042 236 1036 q 258 1048 245 1048 l 395 1048 q 418 1032 412 1048 l 502 857 q 502 840 507 846 q 486 833 497 833 l 348 833 q 324 850 332 833 m 630 159 l 730 159 q 746 153 740 159 q 751 138 751 147 l 751 21 q 746 6 751 12 q 730 0 741 0 l 549 0 q 389 58 444 0 q 334 224 334 117 l 334 528 l 127 528 q 113 534 118 528 q 107 549 107 541 l 107 667 q 113 682 107 676 q 127 688 118 688 l 509 688 q 524 682 518 688 q 529 667 529 676 l 529 261 q 553 184 529 209 q 630 159 578 159 z "},"í":{"ha":854,"x_min":107,"x_max":751,"o":"m 494 833 l 356 833 q 340 840 345 833 q 340 857 335 846 l 423 1032 q 446 1048 431 1049 l 584 1048 q 601 1042 595 1048 q 601 1025 606 1036 l 517 850 q 494 833 510 833 m 630 159 l 730 159 q 746 153 740 159 q 751 138 751 147 l 751 21 q 746 6 751 12 q 730 0 741 0 l 549 0 q 389 58 444 0 q 334 224 334 117 l 334 528 l 127 528 q 113 534 118 528 q 107 549 107 541 l 107 667 q 113 682 107 676 q 127 688 118 688 l 509 688 q 524 682 518 688 q 529 667 529 676 l 529 261 q 553 184 529 209 q 630 159 578 159 z "},"î":{"ha":854,"x_min":107,"x_max":751,"o":"m 304 827 l 149 827 q 132 834 136 827 q 137 852 128 842 l 292 1038 q 317 1048 302 1048 l 523 1048 q 548 1038 538 1048 l 703 852 q 708 834 711 842 q 691 827 704 827 l 536 827 q 511 838 520 827 l 420 943 l 329 838 q 304 827 321 827 m 630 159 l 730 159 q 746 153 740 159 q 751 138 751 147 l 751 21 q 746 6 751 12 q 730 0 741 0 l 549 0 q 389 58 444 0 q 334 224 334 117 l 334 528 l 127 528 q 113 534 118 528 q 107 549 107 541 l 107 667 q 113 682 107 676 q 127 688 118 688 l 509 688 q 524 682 518 688 q 529 667 529 676 l 529 261 q 553 184 529 209 q 630 159 578 159 z "},"ï":{"ha":854,"x_min":107,"x_max":751,"o":"m 335 880 q 321 866 335 880 q 266 851 307 851 q 197 880 226 851 q 169 951 169 909 q 198 1020 169 991 q 266 1048 227 1048 q 335 1020 306 1048 q 364 951 364 991 q 335 880 364 909 m 643 880 q 628 866 643 880 q 573 851 614 851 q 505 880 533 851 q 476 951 476 909 q 505 1020 476 991 q 574 1048 534 1048 q 643 1020 614 1048 q 671 951 671 991 q 643 880 671 909 m 630 159 l 730 159 q 746 153 740 159 q 751 138 751 147 l 751 21 q 746 6 751 12 q 730 0 741 0 l 549 0 q 389 58 444 0 q 334 224 334 117 l 334 528 l 127 528 q 113 534 118 528 q 107 549 107 541 l 107 667 q 113 682 107 676 q 127 688 118 688 l 509 688 q 524 682 518 688 q 529 667 529 676 l 529 261 q 553 184 529 209 q 630 159 578 159 z "},"ð":{"ha":854,"x_min":58,"x_max":838,"o":"m 770 886 l 815 891 q 838 871 838 893 l 838 812 q 818 789 838 791 l 770 785 l 770 21 q 764 6 770 12 q 749 0 758 0 l 613 0 q 593 21 595 0 l 581 128 l 563 128 q 486 24 542 65 q 348 -18 431 -18 q 195 30 261 -18 q 93 158 128 78 q 58 340 58 239 q 147 601 58 500 q 387 701 235 701 q 574 629 512 701 l 574 764 l 457 752 q 435 772 435 750 l 435 831 q 454 853 435 852 l 574 866 l 574 951 q 579 967 574 961 q 595 972 585 972 l 749 972 q 764 967 758 972 q 770 951 770 961 l 770 886 m 416 164 q 535 212 490 164 q 580 342 580 260 q 535 473 580 425 q 416 520 490 520 q 294 473 340 520 q 249 342 249 425 q 294 212 249 260 q 416 164 340 164 z "},"ñ":{"ha":854,"x_min":94,"x_max":760,"o":"m 238 889 l 167 889 q 153 907 153 889 q 161 961 153 937 q 185 1002 170 986 q 219 1030 199 1019 q 260 1046 239 1041 q 303 1050 281 1050 q 377 1035 342 1050 q 434 1000 412 1019 q 483 965 455 981 q 537 949 511 949 q 579 961 562 949 q 602 989 595 973 q 616 1001 606 1000 l 688 1001 q 701 987 701 1001 q 678 901 701 936 q 622 853 655 867 q 549 839 588 839 q 489 849 517 839 q 440 875 460 860 q 400 905 419 890 q 361 930 382 920 q 317 940 340 940 q 253 899 270 940 q 238 889 248 889 m 519 701 q 694 623 629 701 q 760 408 760 544 l 760 21 q 754 6 760 12 q 740 0 749 0 l 585 0 q 571 5 576 0 q 565 21 565 11 l 565 371 q 529 480 565 441 q 427 520 493 520 q 325 480 361 520 q 290 371 290 441 l 290 21 q 284 6 290 12 q 269 0 278 0 l 115 0 q 100 5 106 0 q 94 21 94 11 l 94 667 q 100 682 94 676 q 115 688 106 688 l 263 688 q 284 667 283 688 l 290 567 l 314 567 q 391 664 340 626 q 519 701 442 701 z "},"ò":{"ha":854,"x_min":71,"x_max":783,"o":"m 492 833 l 355 833 q 331 850 338 833 l 248 1025 q 248 1042 243 1036 q 264 1048 253 1048 l 402 1048 q 426 1032 418 1048 l 509 857 q 509 840 514 846 q 492 833 504 833 m 427 -18 q 173 86 274 -18 q 71 342 71 189 q 172 598 71 496 q 427 701 273 701 q 610 654 529 701 q 737 525 692 608 q 783 342 783 443 q 737 159 783 241 q 610 30 692 77 q 427 -18 529 -18 m 309 214 q 332 190 309 214 q 427 165 355 165 q 545 214 499 165 q 591 342 591 264 q 545 470 591 421 q 427 519 499 519 q 309 470 355 519 q 262 342 262 421 q 309 214 262 264 z "},"ó":{"ha":854,"x_min":71,"x_max":783,"o":"m 500 833 l 363 833 q 347 840 352 833 q 347 857 342 846 l 430 1032 q 454 1048 437 1049 l 591 1048 q 607 1042 602 1048 q 608 1025 612 1036 l 524 850 q 500 833 517 833 m 427 -18 q 173 86 274 -18 q 71 342 71 189 q 172 598 71 496 q 427 701 273 701 q 610 654 529 701 q 737 525 692 608 q 783 342 783 443 q 737 159 783 241 q 610 30 692 77 q 427 -18 529 -18 m 309 214 q 332 190 309 214 q 427 165 355 165 q 545 214 499 165 q 591 342 591 264 q 545 470 591 421 q 427 519 499 519 q 309 470 355 519 q 262 342 262 421 q 309 214 262 264 z "},"ô":{"ha":854,"x_min":71,"x_max":783,"o":"m 311 827 l 156 827 q 139 834 143 827 q 144 852 136 842 l 299 1038 q 324 1048 309 1048 l 530 1048 q 555 1038 545 1048 l 711 852 q 715 834 719 842 q 698 827 711 827 l 543 827 q 518 838 527 827 l 427 943 l 336 838 q 311 827 328 827 m 427 -18 q 173 86 274 -18 q 71 342 71 189 q 172 598 71 496 q 427 701 273 701 q 610 654 529 701 q 737 525 692 608 q 783 342 783 443 q 737 159 783 241 q 610 30 692 77 q 427 -18 529 -18 m 309 214 q 332 190 309 214 q 427 165 355 165 q 545 214 499 165 q 591 342 591 264 q 545 470 591 421 q 427 519 499 519 q 309 470 355 519 q 262 342 262 421 q 309 214 262 264 z "},"õ":{"ha":854,"x_min":71,"x_max":783,"o":"m 549 839 q 489 849 517 839 q 440 875 460 860 q 400 905 419 890 q 361 930 382 920 q 317 940 340 940 q 253 899 270 940 q 238 889 248 889 l 167 889 q 153 907 153 889 q 161 961 153 937 q 185 1002 170 986 q 219 1030 199 1019 q 260 1046 239 1041 q 303 1050 281 1050 q 377 1035 342 1050 q 434 1000 412 1019 q 483 965 455 981 q 537 949 511 949 q 579 961 562 949 q 602 989 595 973 q 616 1001 606 1000 l 688 1001 q 701 987 701 1001 q 678 901 701 936 q 622 853 655 867 q 549 839 588 839 m 427 -18 q 173 86 274 -18 q 71 342 71 189 q 172 598 71 496 q 427 701 273 701 q 610 654 529 701 q 737 525 692 608 q 783 342 783 443 q 737 159 783 241 q 610 30 692 77 q 427 -18 529 -18 m 309 214 q 332 190 309 214 q 427 165 355 165 q 545 214 499 165 q 591 342 591 264 q 545 470 591 421 q 427 519 499 519 q 309 470 355 519 q 262 342 262 421 q 309 214 262 264 z "},"ö":{"ha":854,"x_min":71,"x_max":783,"o":"m 342 880 q 328 866 342 880 q 273 851 313 851 q 204 880 233 851 q 176 951 176 909 q 204 1020 176 991 q 273 1048 233 1048 q 342 1020 313 1048 q 371 951 371 991 q 342 880 371 909 m 649 880 q 635 866 649 880 q 581 851 621 851 q 512 880 541 851 q 484 951 484 909 q 512 1020 484 991 q 581 1048 541 1048 q 649 1020 621 1048 q 678 951 678 991 q 649 880 678 909 m 427 -18 q 173 86 274 -18 q 71 342 71 189 q 172 598 71 496 q 427 701 273 701 q 610 654 529 701 q 737 525 692 608 q 783 342 783 443 q 737 159 783 241 q 610 30 692 77 q 427 -18 529 -18 m 309 214 q 332 190 309 214 q 427 165 355 165 q 545 214 499 165 q 591 342 591 264 q 545 470 591 421 q 427 519 499 519 q 309 470 355 519 q 262 342 262 421 q 309 214 262 264 z "},"÷":{"ha":854,"x_min":79,"x_max":775,"o":"m 517 683 q 499 664 517 683 q 427 646 480 646 q 336 683 374 646 q 298 774 298 721 q 336 865 298 827 q 427 902 374 902 q 517 865 480 902 q 555 774 555 827 q 517 683 555 721 m 754 370 l 100 370 q 85 375 90 370 q 79 390 79 380 l 79 493 q 85 508 79 503 q 100 514 90 514 l 754 514 q 769 508 764 514 q 775 493 775 503 l 775 390 q 769 375 775 380 q 754 370 764 370 m 517 18 q 499 -1 517 18 q 427 -20 480 -20 q 336 18 374 -20 q 298 109 298 56 q 336 199 298 162 q 427 237 374 237 q 517 199 480 237 q 555 109 555 162 q 517 18 555 56 z "},"ø":{"ha":854,"x_min":71,"x_max":783,"o":"m 691 750 l 636 637 q 744 512 705 589 q 783 342 783 435 q 737 160 783 242 q 610 30 692 77 q 427 -18 528 -18 q 323 -3 372 -18 l 284 -82 q 260 -97 276 -98 l 178 -97 q 162 -90 167 -97 q 163 -72 157 -83 l 221 45 q 111 172 151 94 q 71 342 71 250 q 172 598 71 496 q 427 701 273 701 q 534 686 483 701 l 571 760 q 595 775 578 775 l 675 775 q 692 768 687 775 q 691 750 696 761 m 262 342 q 306 218 262 267 l 452 518 q 427 519 437 519 q 309 470 355 519 q 262 342 262 421 m 427 165 q 545 214 499 165 q 591 342 591 264 q 551 464 591 414 l 406 166 q 427 165 420 165 z "},"ù":{"ha":854,"x_min":94,"x_max":760,"o":"m 331 850 l 248 1025 q 248 1042 243 1036 q 264 1048 253 1048 l 402 1048 q 426 1032 418 1048 l 509 857 q 509 840 514 846 q 492 833 504 833 l 355 833 q 331 850 338 833 m 585 688 l 740 688 q 754 682 749 688 q 760 667 760 676 l 760 21 q 754 6 760 12 q 740 0 749 0 l 591 0 q 570 21 571 0 l 565 121 l 541 121 q 463 24 514 62 q 336 -14 412 -14 q 160 65 226 -14 q 94 279 94 144 l 94 667 q 100 682 94 676 q 115 688 106 688 l 269 688 q 283 682 277 688 q 290 667 290 676 l 290 317 q 325 207 290 247 q 427 168 361 168 q 529 207 494 168 q 565 317 565 247 l 565 667 q 571 682 565 676 q 585 688 576 688 z "},"ú":{"ha":854,"x_min":94,"x_max":760,"o":"m 500 833 l 363 833 q 347 840 352 833 q 347 857 342 846 l 430 1032 q 454 1048 437 1049 l 591 1048 q 607 1042 602 1048 q 608 1025 612 1036 l 524 850 q 500 833 517 833 m 585 688 l 740 688 q 754 682 749 688 q 760 667 760 676 l 760 21 q 754 6 760 12 q 740 0 749 0 l 591 0 q 570 21 571 0 l 565 121 l 541 121 q 463 24 514 62 q 336 -14 412 -14 q 160 65 226 -14 q 94 279 94 144 l 94 667 q 100 682 94 676 q 115 688 106 688 l 269 688 q 283 682 277 688 q 290 667 290 676 l 290 317 q 325 207 290 247 q 427 168 361 168 q 529 207 494 168 q 565 317 565 247 l 565 667 q 571 682 565 676 q 585 688 576 688 z "},"û":{"ha":854,"x_min":94,"x_max":760,"o":"m 311 827 l 156 827 q 139 834 143 827 q 144 852 136 842 l 299 1038 q 324 1048 309 1048 l 530 1048 q 555 1038 545 1048 l 711 852 q 715 834 719 842 q 698 827 711 827 l 543 827 q 518 838 527 827 l 427 943 l 336 838 q 311 827 328 827 m 585 688 l 740 688 q 754 682 749 688 q 760 667 760 676 l 760 21 q 754 6 760 12 q 740 0 749 0 l 591 0 q 570 21 571 0 l 565 121 l 541 121 q 463 24 514 62 q 336 -14 412 -14 q 160 65 226 -14 q 94 279 94 144 l 94 667 q 100 682 94 676 q 115 688 106 688 l 269 688 q 283 682 277 688 q 290 667 290 676 l 290 317 q 325 207 290 247 q 427 168 361 168 q 529 207 494 168 q 565 317 565 247 l 565 667 q 571 682 565 676 q 585 688 576 688 z "},"ü":{"ha":854,"x_min":94,"x_max":760,"o":"m 342 880 q 328 866 342 880 q 273 851 313 851 q 204 880 233 851 q 176 951 176 909 q 204 1020 176 991 q 273 1048 233 1048 q 342 1020 313 1048 q 371 951 371 991 q 342 880 371 909 m 649 880 q 635 866 649 880 q 581 851 621 851 q 512 880 541 851 q 484 951 484 909 q 512 1020 484 991 q 581 1048 541 1048 q 649 1020 621 1048 q 678 951 678 991 q 649 880 678 909 m 585 688 l 740 688 q 754 682 749 688 q 760 667 760 676 l 760 21 q 754 6 760 12 q 740 0 749 0 l 591 0 q 570 21 571 0 l 565 121 l 541 121 q 463 24 514 62 q 336 -14 412 -14 q 160 65 226 -14 q 94 279 94 144 l 94 667 q 100 682 94 676 q 115 688 106 688 l 269 688 q 283 682 277 688 q 290 667 290 676 l 290 317 q 325 207 290 247 q 427 168 361 168 q 529 207 494 168 q 565 317 565 247 l 565 667 q 571 682 565 676 q 585 688 576 688 z "},"ý":{"ha":854,"x_min":67,"x_max":787,"o":"m 500 833 l 363 833 q 347 840 352 833 q 347 857 342 846 l 430 1032 q 454 1048 437 1049 l 591 1048 q 607 1042 602 1048 q 608 1025 612 1036 l 524 850 q 500 833 517 833 m 616 688 l 771 688 q 787 664 796 688 l 431 -248 q 406 -264 427 -264 l 253 -264 q 236 -258 241 -264 q 236 -240 231 -252 l 330 -2 l 67 664 q 67 681 62 675 q 84 688 72 688 l 237 688 q 262 671 257 688 l 427 222 l 591 671 q 616 688 597 688 z "},"þ":{"ha":854,"x_min":86,"x_max":798,"o":"m 713 596 q 798 340 798 496 q 718 84 798 186 q 508 -18 637 -18 l 498 -18 l 489 -18 q 370 10 418 -18 q 298 86 322 38 l 278 86 l 278 -243 q 272 -258 278 -252 q 257 -264 267 -264 l 107 -264 q 92 -258 98 -264 q 86 -243 86 -253 l 86 951 q 92 967 86 961 q 107 972 97 972 l 261 972 q 276 967 271 972 q 282 951 282 961 l 282 629 q 468 701 343 702 l 479 701 l 489 701 q 713 596 631 702 m 319 472 q 297 448 319 472 q 275 342 275 425 q 319 213 275 260 q 437 164 363 165 q 555 213 511 165 q 599 342 599 260 q 555 472 599 425 q 437 520 511 519 q 319 472 363 519 z "},"ÿ":{"ha":854,"x_min":67,"x_max":787,"o":"m 342 880 q 328 866 342 880 q 273 851 313 851 q 204 880 233 851 q 176 951 176 909 q 204 1020 176 991 q 273 1048 233 1048 q 342 1020 313 1048 q 371 951 371 991 q 342 880 371 909 m 649 880 q 635 866 649 880 q 581 851 621 851 q 512 880 541 851 q 484 951 484 909 q 512 1020 484 991 q 581 1048 541 1048 q 649 1020 621 1048 q 678 951 678 991 q 649 880 678 909 m 616 688 l 771 688 q 787 664 796 688 l 431 -248 q 406 -264 427 -264 l 253 -264 q 236 -258 241 -264 q 236 -240 231 -252 l 330 -2 l 67 664 q 67 681 62 675 q 84 688 72 688 l 237 688 q 262 671 257 688 l 427 222 l 591 671 q 616 688 597 688 z "},"Ā":{"ha":854,"x_min":46,"x_max":808,"o":"m 616 1140 l 238 1140 q 223 1146 229 1140 q 218 1161 218 1152 l 218 1271 q 223 1286 218 1280 q 238 1292 229 1292 l 616 1292 q 631 1286 625 1292 q 637 1271 637 1280 l 637 1161 q 631 1146 637 1152 q 616 1140 625 1140 m 577 914 l 808 24 q 791 0 814 0 l 628 0 q 604 17 608 0 l 568 171 l 286 171 l 250 17 q 227 0 247 0 l 62 0 q 46 24 40 0 l 277 914 q 300 930 281 931 l 553 930 q 577 914 573 931 m 416 720 l 327 343 l 527 343 l 438 720 l 416 720 z "},"ā":{"ha":854,"x_min":75,"x_max":786,"o":"m 624 897 l 245 897 q 231 903 236 897 q 225 918 225 908 l 225 1028 q 231 1043 225 1038 q 245 1048 236 1048 l 624 1048 q 639 1043 633 1048 q 644 1028 644 1038 l 644 918 q 639 903 644 909 q 624 897 633 897 m 759 134 q 774 121 769 125 q 782 106 779 116 q 786 83 786 96 l 786 56 q 699 -10 786 -10 q 601 21 641 -10 q 562 115 562 52 l 562 123 l 547 123 q 475 24 529 65 q 330 -18 422 -18 l 295 -18 q 134 36 193 -18 q 75 190 75 90 q 294 390 75 376 l 543 406 l 543 439 q 516 523 543 501 q 417 545 490 545 q 327 531 355 545 q 292 482 298 517 q 273 469 290 469 l 128 469 q 107 490 108 469 q 423 701 111 701 q 663 636 593 701 q 733 429 733 572 l 733 214 q 737 170 733 186 q 745 148 741 154 q 759 134 749 142 m 366 130 l 385 130 q 496 162 450 130 q 543 255 543 195 l 543 288 l 341 272 q 265 203 265 267 q 366 130 266 130 z "},"Ă":{"ha":854,"x_min":46,"x_max":808,"o":"m 590 1124 q 559 1096 590 1124 q 427 1067 528 1067 q 264 1124 326 1067 q 193 1270 202 1182 q 214 1292 191 1292 l 297 1292 q 319 1271 315 1292 q 355 1214 327 1238 q 427 1190 384 1190 q 498 1214 470 1190 q 534 1271 527 1238 q 557 1292 539 1292 l 640 1292 q 661 1270 663 1292 q 590 1124 652 1182 m 577 914 l 808 24 q 791 0 814 0 l 628 0 q 604 17 608 0 l 568 171 l 286 171 l 250 17 q 227 0 247 0 l 62 0 q 46 24 40 0 l 277 914 q 300 930 281 931 l 553 930 q 577 914 573 931 m 416 720 l 327 343 l 527 343 l 438 720 l 416 720 z "},"ă":{"ha":854,"x_min":75,"x_max":786,"o":"m 598 881 q 567 852 598 881 q 435 823 536 823 q 272 881 334 823 q 201 1026 210 939 q 222 1048 199 1048 l 305 1048 q 327 1028 323 1048 q 363 971 334 996 q 435 947 392 947 q 506 971 478 947 q 543 1028 534 995 q 565 1048 547 1049 l 648 1048 q 669 1026 671 1048 q 598 881 660 939 m 759 134 q 774 121 769 125 q 782 106 779 116 q 786 83 786 96 l 786 56 q 699 -10 786 -10 q 601 21 641 -10 q 562 115 562 52 l 562 123 l 547 123 q 475 24 529 65 q 330 -18 422 -18 l 295 -18 q 134 36 193 -18 q 75 190 75 90 q 294 390 75 376 l 543 406 l 543 439 q 516 523 543 501 q 417 545 490 545 q 327 531 355 545 q 292 482 298 517 q 273 469 290 469 l 128 469 q 107 490 108 469 q 423 701 111 701 q 663 636 593 701 q 733 429 733 572 l 733 214 q 737 170 733 186 q 745 148 741 154 q 759 134 749 142 m 366 130 l 385 130 q 496 162 450 130 q 543 255 543 195 l 543 288 l 341 272 q 265 203 265 267 q 366 130 266 130 z "},"Ą":{"ha":854,"x_min":46,"x_max":808,"o":"m 577 914 l 808 24 q 791 0 814 0 l 739 0 q 657 -20 684 0 q 631 -71 631 -40 q 654 -120 631 -101 q 720 -140 677 -140 l 749 -140 q 763 -153 763 -140 l 763 -244 q 749 -258 763 -258 l 707 -258 q 631 -251 666 -258 q 563 -227 595 -243 q 511 -177 530 -210 q 492 -98 492 -144 q 597 47 492 9 l 568 171 l 286 171 l 250 17 q 227 0 247 0 l 62 0 q 46 24 40 0 l 277 914 q 300 930 281 931 l 553 930 q 577 914 573 931 m 416 720 l 327 343 l 527 343 l 438 720 l 416 720 z "},"ą":{"ha":854,"x_min":75,"x_max":786,"o":"m 759 134 q 774 121 769 125 q 782 106 779 116 q 786 83 786 96 l 786 56 q 707 -10 786 -6 q 627 -31 653 -10 q 600 -82 600 -51 q 624 -131 600 -112 q 690 -150 647 -150 l 719 -150 q 732 -164 732 -150 l 732 -255 q 719 -269 732 -269 l 677 -269 q 601 -261 636 -269 q 532 -237 566 -254 q 480 -188 499 -220 q 461 -109 461 -155 q 582 42 461 5 q 562 115 562 73 l 562 123 l 547 123 q 475 24 529 65 q 330 -18 422 -18 l 295 -18 q 134 36 193 -18 q 75 190 75 90 q 294 390 75 376 l 543 406 l 543 439 q 516 523 543 501 q 417 545 490 545 q 327 531 355 545 q 292 482 298 517 q 273 469 290 469 l 128 469 q 107 490 108 469 q 423 701 111 701 q 663 636 593 701 q 733 429 733 572 l 733 214 q 737 170 733 186 q 745 148 741 154 q 759 134 749 142 m 366 130 l 385 130 q 496 162 450 130 q 543 255 543 195 l 543 288 l 341 272 q 265 203 265 267 q 366 130 266 130 z "},"Ć":{"ha":854,"x_min":71,"x_max":783,"o":"m 513 1076 l 375 1076 q 358 1083 363 1076 q 358 1100 353 1089 l 441 1275 q 465 1292 449 1292 l 603 1292 q 620 1285 614 1292 q 619 1268 625 1279 l 536 1093 q 513 1076 529 1076 m 439 -21 q 155 93 239 -21 q 71 462 71 207 q 155 831 71 718 q 439 945 239 945 q 582 926 522 945 q 687 864 642 907 q 755 750 732 821 q 783 576 779 678 q 764 554 785 554 l 618 554 q 595 572 597 554 q 576 663 590 627 q 542 717 563 699 q 496 743 520 736 q 437 750 471 750 q 363 738 392 750 q 311 694 334 726 q 278 606 288 663 q 268 462 268 549 q 278 317 268 374 q 311 229 288 260 q 363 186 334 198 q 437 174 393 174 q 547 204 510 174 q 595 314 583 234 q 618 332 598 332 l 764 332 q 783 310 785 332 q 690 57 776 136 q 439 -21 604 -21 z "},"ć":{"ha":854,"x_min":86,"x_max":743,"o":"m 533 833 l 396 833 q 379 840 385 833 q 379 857 374 846 l 463 1032 q 486 1048 470 1049 l 624 1048 q 640 1042 635 1048 q 640 1025 645 1036 l 557 850 q 533 833 549 833 m 454 165 q 601 236 544 165 q 629 241 614 252 l 736 168 q 743 140 755 157 q 622 26 699 69 q 447 -18 545 -18 q 189 84 292 -18 q 86 342 86 186 q 189 600 86 498 q 447 701 292 701 q 622 658 545 701 q 743 544 700 615 q 736 515 755 528 l 629 442 q 601 448 614 433 q 454 519 544 519 q 327 471 377 519 q 277 342 277 422 q 327 214 277 263 q 454 165 377 165 z "},"Ċ":{"ha":854,"x_min":71,"x_max":783,"o":"m 508 1123 q 494 1109 508 1123 q 439 1095 479 1095 q 370 1123 399 1095 q 341 1194 341 1152 q 370 1263 341 1234 q 439 1292 399 1292 q 508 1263 479 1292 q 537 1194 537 1235 q 508 1123 537 1152 m 439 -21 q 155 93 239 -21 q 71 462 71 207 q 155 831 71 718 q 439 945 239 945 q 582 926 522 945 q 687 864 642 907 q 755 750 732 821 q 783 576 779 678 q 764 554 785 554 l 618 554 q 595 572 597 554 q 576 663 590 627 q 542 717 563 699 q 496 743 520 736 q 437 750 471 750 q 363 738 392 750 q 311 694 334 726 q 278 606 288 663 q 268 462 268 549 q 278 317 268 374 q 311 229 288 260 q 363 186 334 198 q 437 174 393 174 q 547 204 510 174 q 595 314 583 234 q 618 332 598 332 l 764 332 q 783 310 785 332 q 690 57 776 136 q 439 -21 604 -21 z "},"ċ":{"ha":854,"x_min":86,"x_max":743,"o":"m 529 880 q 514 866 529 880 q 459 851 500 851 q 391 880 419 851 q 362 951 362 909 q 391 1020 362 991 q 459 1048 419 1048 q 529 1020 500 1048 q 557 951 557 991 q 529 880 557 909 m 454 165 q 601 236 544 165 q 629 241 614 252 l 736 168 q 743 140 755 157 q 622 26 699 69 q 447 -18 545 -18 q 189 84 292 -18 q 86 342 86 186 q 189 600 86 498 q 447 701 292 701 q 622 658 545 701 q 743 544 700 615 q 736 515 755 528 l 629 442 q 601 448 614 433 q 454 519 544 519 q 327 471 377 519 q 277 342 277 422 q 327 214 277 263 q 454 165 377 165 z "},"Č":{"ha":854,"x_min":71,"x_max":783,"o":"m 542 1070 l 336 1070 q 311 1081 321 1070 l 155 1267 q 151 1284 147 1277 q 168 1292 154 1292 l 323 1292 q 348 1280 339 1292 l 439 1176 l 530 1280 q 555 1292 538 1291 l 710 1292 q 727 1284 724 1292 q 722 1267 730 1277 l 567 1081 q 542 1070 557 1070 m 439 -21 q 155 93 239 -21 q 71 462 71 207 q 155 831 71 718 q 439 945 239 945 q 582 926 522 945 q 687 864 642 907 q 755 750 732 821 q 783 576 779 678 q 764 554 785 554 l 618 554 q 595 572 597 554 q 576 663 590 627 q 542 717 563 699 q 496 743 520 736 q 437 750 471 750 q 363 738 392 750 q 311 694 334 726 q 278 606 288 663 q 268 462 268 549 q 278 317 268 374 q 311 229 288 260 q 363 186 334 198 q 437 174 393 174 q 547 204 510 174 q 595 314 583 234 q 618 332 598 332 l 764 332 q 783 310 785 332 q 690 57 776 136 q 439 -21 604 -21 z "},"č":{"ha":854,"x_min":86,"x_max":748,"o":"m 562 827 l 357 827 q 332 838 342 827 l 176 1023 q 172 1041 168 1034 q 189 1048 175 1048 l 344 1048 q 369 1038 360 1048 l 460 932 l 551 1038 q 576 1048 559 1048 l 730 1048 q 748 1041 744 1048 q 743 1023 751 1034 l 587 838 q 562 827 577 827 m 454 165 q 601 236 544 165 q 629 241 614 252 l 736 168 q 743 140 755 157 q 622 26 699 69 q 447 -18 545 -18 q 189 84 292 -18 q 86 342 86 186 q 189 600 86 498 q 447 701 292 701 q 622 658 545 701 q 743 544 700 615 q 736 515 755 528 l 629 442 q 601 448 614 433 q 454 519 544 519 q 327 471 377 519 q 277 342 277 422 q 327 214 277 263 q 454 165 377 165 z "},"Ď":{"ha":854,"x_min":85,"x_max":798,"o":"m 530 1070 l 324 1070 q 299 1081 309 1070 l 144 1267 q 139 1284 136 1277 q 156 1292 143 1292 l 311 1292 q 336 1280 328 1292 l 427 1176 l 518 1280 q 543 1292 527 1291 l 698 1292 q 715 1284 711 1292 q 711 1267 719 1277 l 555 1081 q 530 1070 545 1070 m 414 0 l 106 0 q 92 5 98 0 q 85 21 85 11 l 85 909 q 91 925 85 919 q 106 930 97 930 l 414 930 q 568 908 501 930 q 678 845 635 885 q 748 745 721 804 q 786 617 775 685 q 798 465 798 549 q 786 313 798 381 q 748 186 775 245 q 678 86 721 126 q 568 23 635 46 q 414 0 501 0 m 288 751 l 288 179 l 407 179 q 485 192 452 179 q 538 228 518 205 q 571 288 559 251 q 587 367 583 326 q 591 465 591 408 q 587 564 591 522 q 571 642 583 605 q 538 702 559 680 q 485 738 518 725 q 407 751 452 751 l 288 751 z "},"ď":{"ha":854,"x_min":58,"x_max":1115,"o":"m 960 1149 l 1098 1149 q 1115 1142 1109 1149 q 1115 1125 1120 1136 l 1031 950 q 1008 933 1024 933 l 870 933 q 853 940 859 933 q 853 957 848 946 l 937 1132 q 960 1149 944 1149 m 595 972 l 749 972 q 764 967 758 972 q 770 951 770 961 l 770 21 q 764 6 770 12 q 749 0 758 0 l 613 0 q 593 21 595 0 l 581 128 l 563 128 q 486 24 542 65 q 348 -18 431 -18 q 195 30 261 -18 q 93 158 128 78 q 58 340 58 239 q 147 601 58 500 q 387 701 235 701 q 574 629 512 701 l 574 951 q 579 967 574 961 q 595 972 585 972 m 416 164 q 535 212 490 164 q 580 342 580 260 q 535 473 580 425 q 416 520 490 520 q 294 473 340 520 q 249 342 249 425 q 294 212 249 260 q 416 164 340 164 z "},"Đ":{"ha":854,"x_min":37,"x_max":812,"o":"m 121 930 l 429 930 q 583 908 516 930 q 692 845 649 885 q 763 745 735 804 q 801 617 790 685 q 812 465 812 549 q 801 313 812 381 q 763 186 790 245 q 692 86 735 126 q 583 23 649 46 q 429 0 516 0 l 121 0 q 106 5 113 0 q 100 21 100 11 l 100 389 l 58 389 q 43 395 49 389 q 37 410 37 401 l 37 520 q 43 535 37 529 q 58 541 49 541 l 100 541 l 100 909 q 106 925 100 919 q 121 930 113 930 m 303 179 l 422 179 q 500 192 468 179 q 554 228 533 205 q 586 288 574 251 q 602 367 598 326 q 606 465 606 408 q 602 564 606 522 q 586 642 598 605 q 554 702 574 680 q 500 738 533 725 q 422 751 467 751 l 303 751 l 303 541 l 436 541 q 451 535 446 541 q 457 520 457 529 l 457 410 q 451 395 457 401 q 436 389 446 389 l 303 389 l 303 179 z "},"đ":{"ha":854,"x_min":58,"x_max":823,"o":"m 770 876 l 802 876 q 817 871 811 876 q 823 856 823 865 l 823 798 q 817 782 823 788 q 802 777 811 777 l 770 777 l 770 21 q 764 6 770 12 q 749 0 758 0 l 613 0 q 593 21 595 0 l 581 128 l 563 128 q 486 24 542 65 q 348 -18 431 -18 q 195 30 261 -18 q 93 158 128 78 q 58 340 58 239 q 147 601 58 500 q 387 701 235 701 q 574 629 512 701 l 574 777 l 404 777 q 389 782 395 777 q 382 798 382 787 l 382 856 q 389 871 382 865 q 404 876 395 876 l 574 876 l 574 951 q 579 967 574 961 q 595 972 585 972 l 749 972 q 764 967 758 972 q 770 951 770 961 l 770 876 m 416 164 q 535 212 490 164 q 580 342 580 260 q 535 473 580 425 q 416 520 490 520 q 294 473 340 520 q 249 342 249 425 q 294 212 249 260 q 416 164 340 164 z "},"Ē":{"ha":854,"x_min":107,"x_max":747,"o":"m 616 1140 l 238 1140 q 223 1146 229 1140 q 218 1161 218 1152 l 218 1271 q 223 1286 218 1280 q 238 1292 229 1292 l 616 1292 q 631 1286 625 1292 q 637 1271 637 1280 l 637 1161 q 631 1146 637 1152 q 616 1140 625 1140 m 726 0 l 127 0 q 113 5 118 0 q 107 21 107 11 l 107 909 q 113 925 107 919 q 127 930 118 930 l 725 930 q 740 925 734 930 q 746 909 746 920 l 746 772 q 740 757 746 763 q 725 751 734 751 l 310 751 l 310 556 l 694 556 q 709 550 703 556 q 715 536 715 545 l 715 398 q 709 383 715 389 q 694 377 703 377 l 310 377 l 310 179 l 726 179 q 742 174 736 179 q 747 158 747 168 l 747 21 q 742 6 747 12 q 726 0 736 0 z "},"ē":{"ha":854,"x_min":83,"x_max":772,"o":"m 616 897 l 238 897 q 223 903 229 897 q 218 918 218 908 l 218 1028 q 223 1043 218 1038 q 238 1048 229 1048 l 616 1048 q 631 1043 625 1048 q 637 1028 637 1038 l 637 918 q 631 903 637 909 q 616 897 625 897 m 772 357 q 759 302 772 318 q 705 286 747 286 l 269 286 q 332 176 276 215 q 474 137 387 137 q 624 171 554 137 q 655 176 642 180 q 689 145 668 171 q 713 102 711 117 q 697 66 715 86 q 596 6 660 29 q 452 -18 532 -18 q 184 82 286 -18 q 83 343 83 182 q 181 602 83 502 q 437 701 279 701 q 682 606 592 701 q 772 357 772 510 m 439 536 q 332 506 374 537 q 276 414 289 475 l 598 414 q 546 506 588 475 q 439 536 504 536 z "},"Ė":{"ha":854,"x_min":107,"x_max":747,"o":"m 496 1123 q 482 1109 496 1123 q 427 1095 467 1095 q 358 1123 387 1095 q 329 1194 329 1152 q 358 1263 329 1234 q 427 1292 387 1292 q 496 1263 467 1292 q 525 1194 525 1235 q 496 1123 525 1152 m 726 0 l 127 0 q 113 5 118 0 q 107 21 107 11 l 107 909 q 113 925 107 919 q 127 930 118 930 l 725 930 q 740 925 734 930 q 746 909 746 920 l 746 772 q 740 757 746 763 q 725 751 734 751 l 310 751 l 310 556 l 694 556 q 709 550 703 556 q 715 536 715 545 l 715 398 q 709 383 715 389 q 694 377 703 377 l 310 377 l 310 179 l 726 179 q 742 174 736 179 q 747 158 747 168 l 747 21 q 742 6 747 12 q 726 0 736 0 z "},"ė":{"ha":854,"x_min":83,"x_max":772,"o":"m 496 880 q 482 866 496 880 q 427 851 467 851 q 358 880 387 851 q 329 951 329 909 q 358 1020 329 991 q 427 1048 387 1048 q 496 1020 467 1048 q 525 951 525 991 q 496 880 525 909 m 772 357 q 759 302 772 318 q 705 286 747 286 l 269 286 q 332 176 276 215 q 474 137 387 137 q 624 171 554 137 q 655 176 642 180 q 689 145 668 171 q 713 102 711 117 q 697 66 715 86 q 596 6 660 29 q 452 -18 532 -18 q 184 82 286 -18 q 83 343 83 182 q 181 602 83 502 q 437 701 279 701 q 682 606 592 701 q 772 357 772 510 m 439 536 q 332 506 374 537 q 276 414 289 475 l 598 414 q 546 506 588 475 q 439 536 504 536 z "},"Ę":{"ha":854,"x_min":107,"x_max":758,"o":"m 715 -140 l 745 -140 q 758 -153 758 -140 l 758 -244 q 745 -258 758 -258 l 702 -258 q 626 -251 661 -258 q 557 -227 590 -243 q 506 -177 525 -210 q 487 -98 487 -144 q 520 0 487 -39 l 127 0 q 113 5 118 0 q 107 21 107 11 l 107 909 q 113 925 107 919 q 127 930 118 930 l 725 930 q 740 925 734 930 q 746 909 746 920 l 746 772 q 740 757 746 763 q 725 751 734 751 l 310 751 l 310 556 l 694 556 q 709 550 703 556 q 715 536 715 545 l 715 398 q 709 383 715 389 q 694 377 703 377 l 310 377 l 310 179 l 726 179 q 742 174 736 179 q 747 158 747 168 l 747 21 q 733 1 747 5 l 733 0 q 652 -20 679 0 q 626 -71 626 -40 q 650 -120 626 -101 q 715 -140 673 -140 z "},"ę":{"ha":854,"x_min":83,"x_max":772,"o":"m 772 357 q 759 302 772 318 q 705 286 747 286 l 269 286 q 332 176 276 215 q 474 137 387 137 q 624 171 554 137 q 655 176 642 180 q 689 145 668 171 q 713 102 711 117 q 697 66 715 86 q 524 -12 636 5 q 468 -41 486 -23 q 450 -86 450 -59 q 470 -133 450 -115 q 532 -150 490 -150 l 569 -150 q 583 -164 583 -150 l 583 -255 q 569 -269 583 -269 l 527 -269 q 451 -262 487 -269 q 382 -239 415 -255 q 330 -192 349 -222 q 311 -118 311 -161 q 373 -11 311 -42 q 161 107 239 12 q 83 343 83 203 q 181 602 83 502 q 437 701 279 701 q 682 606 592 701 q 772 357 772 510 m 439 536 q 332 506 374 537 q 276 414 289 475 l 598 414 q 546 506 588 475 q 439 536 504 536 z "},"Ě":{"ha":854,"x_min":107,"x_max":747,"o":"m 530 1070 l 324 1070 q 299 1081 309 1070 l 144 1267 q 139 1284 136 1277 q 156 1292 143 1292 l 311 1292 q 336 1280 328 1292 l 427 1176 l 518 1280 q 543 1292 527 1291 l 698 1292 q 715 1284 711 1292 q 711 1267 719 1277 l 555 1081 q 530 1070 545 1070 m 726 0 l 127 0 q 113 5 118 0 q 107 21 107 11 l 107 909 q 113 925 107 919 q 127 930 118 930 l 725 930 q 740 925 734 930 q 746 909 746 920 l 746 772 q 740 757 746 763 q 725 751 734 751 l 310 751 l 310 556 l 694 556 q 709 550 703 556 q 715 536 715 545 l 715 398 q 709 383 715 389 q 694 377 703 377 l 310 377 l 310 179 l 726 179 q 742 174 736 179 q 747 158 747 168 l 747 21 q 742 6 747 12 q 726 0 736 0 z "},"ě":{"ha":854,"x_min":83,"x_max":772,"o":"m 299 838 l 144 1023 q 139 1041 136 1034 q 156 1048 143 1048 l 311 1048 q 336 1038 328 1048 l 427 932 l 518 1038 q 543 1048 527 1048 l 698 1048 q 715 1041 711 1048 q 711 1023 719 1034 l 555 838 q 530 827 545 827 l 324 827 q 299 838 309 827 m 772 357 q 759 302 772 318 q 705 286 747 286 l 269 286 q 332 176 276 215 q 474 137 387 137 q 624 171 554 137 q 655 176 642 180 q 689 145 668 171 q 713 102 711 117 q 697 66 715 86 q 596 6 660 29 q 452 -18 532 -18 q 184 82 286 -18 q 83 343 83 182 q 181 602 83 502 q 437 701 279 701 q 682 606 592 701 q 772 357 772 510 m 439 536 q 332 506 374 537 q 276 414 289 475 l 598 414 q 546 506 588 475 q 439 536 504 536 z "},"Ğ":{"ha":854,"x_min":71,"x_max":789,"o":"m 597 1124 q 567 1096 597 1124 q 434 1067 536 1067 q 271 1124 332 1067 q 200 1270 209 1182 q 221 1292 198 1292 l 304 1292 q 326 1271 322 1292 q 362 1214 334 1238 q 434 1190 391 1190 q 505 1214 477 1190 q 542 1271 534 1238 q 564 1292 547 1292 l 647 1292 q 668 1270 670 1292 q 597 1124 659 1182 m 769 504 q 784 498 778 504 q 789 484 789 493 l 789 363 q 705 71 789 162 q 438 -21 621 -21 q 155 93 239 -21 q 71 462 71 207 q 155 831 71 718 q 439 945 239 945 q 691 868 606 945 q 783 610 776 791 q 764 587 785 587 l 618 587 q 595 606 597 587 q 545 719 584 688 q 437 750 506 750 q 363 738 392 750 q 311 694 334 726 q 278 606 288 663 q 268 462 268 549 q 288 282 268 346 q 345 196 309 219 q 446 174 382 174 q 561 211 524 174 q 598 344 598 248 l 598 348 l 422 348 q 407 354 413 348 q 401 369 401 359 l 401 484 q 407 498 401 493 q 422 504 412 504 l 769 504 z "},"ğ":{"ha":854,"x_min":68,"x_max":773,"o":"m 590 881 q 559 852 590 881 q 427 823 528 823 q 264 881 326 823 q 193 1026 202 939 q 214 1048 191 1048 l 297 1048 q 319 1028 315 1048 q 355 971 327 996 q 427 947 384 947 q 498 971 470 947 q 534 1028 527 995 q 557 1048 539 1049 l 640 1048 q 661 1026 663 1048 q 590 881 652 939 m 608 688 l 752 688 q 767 682 761 688 q 773 667 773 676 l 773 42 q 749 -91 773 -33 q 688 -182 725 -148 q 598 -238 650 -216 q 497 -268 547 -260 q 393 -275 447 -275 q 127 -210 221 -275 q 120 -183 113 -201 l 155 -82 q 182 -71 161 -64 q 374 -112 270 -111 q 587 50 587 -112 l 587 170 l 568 170 q 491 72 549 108 q 355 35 433 35 q 148 127 227 35 q 68 359 68 219 q 155 605 68 508 q 378 701 242 701 q 584 608 507 701 l 587 667 q 608 688 589 688 m 304 247 q 326 224 304 247 q 419 202 349 202 q 533 246 489 202 q 577 362 577 290 q 533 478 577 435 q 419 522 489 522 q 304 478 349 522 q 259 363 259 435 q 304 247 259 291 z "},"Ġ":{"ha":854,"x_min":71,"x_max":789,"o":"m 503 1123 q 488 1109 503 1123 q 434 1095 474 1095 q 365 1123 394 1095 q 336 1194 336 1152 q 365 1263 336 1234 q 434 1292 394 1292 q 503 1263 474 1292 q 532 1194 532 1235 q 503 1123 532 1152 m 769 504 q 784 498 778 504 q 789 484 789 493 l 789 363 q 705 71 789 162 q 438 -21 621 -21 q 155 93 239 -21 q 71 462 71 207 q 155 831 71 718 q 439 945 239 945 q 691 868 606 945 q 783 610 776 791 q 764 587 785 587 l 618 587 q 595 606 597 587 q 545 719 584 688 q 437 750 506 750 q 363 738 392 750 q 311 694 334 726 q 278 606 288 663 q 268 462 268 549 q 288 282 268 346 q 345 196 309 219 q 446 174 382 174 q 561 211 524 174 q 598 344 598 248 l 598 348 l 422 348 q 407 354 413 348 q 401 369 401 359 l 401 484 q 407 498 401 493 q 422 504 412 504 l 769 504 z "},"ġ":{"ha":854,"x_min":68,"x_max":773,"o":"m 496 880 q 482 866 496 880 q 427 851 467 851 q 358 880 387 851 q 329 951 329 909 q 358 1020 329 991 q 427 1048 387 1048 q 496 1020 467 1048 q 525 951 525 991 q 496 880 525 909 m 608 688 l 752 688 q 767 682 761 688 q 773 667 773 676 l 773 42 q 749 -91 773 -33 q 688 -182 725 -148 q 598 -238 650 -216 q 497 -268 547 -260 q 393 -275 447 -275 q 127 -210 221 -275 q 120 -183 113 -201 l 155 -82 q 182 -71 161 -64 q 374 -112 270 -111 q 587 50 587 -112 l 587 170 l 568 170 q 491 72 549 108 q 355 35 433 35 q 148 127 227 35 q 68 359 68 219 q 155 605 68 508 q 378 701 242 701 q 584 608 507 701 l 587 667 q 608 688 589 688 m 304 247 q 326 224 304 247 q 419 202 349 202 q 533 246 489 202 q 577 362 577 290 q 533 478 577 435 q 419 522 489 522 q 304 478 349 522 q 259 363 259 435 q 304 247 259 291 z "},"Ģ":{"ha":854,"x_min":71,"x_max":789,"o":"m 769 504 q 784 498 778 504 q 789 484 789 493 l 789 363 q 705 71 789 162 q 438 -21 621 -21 q 155 93 239 -21 q 71 462 71 207 q 155 831 71 718 q 439 945 239 945 q 691 868 606 945 q 783 610 776 791 q 764 587 785 587 l 618 587 q 595 606 597 587 q 545 719 584 688 q 437 750 506 750 q 363 738 392 750 q 311 694 334 726 q 278 606 288 663 q 268 462 268 549 q 288 282 268 346 q 345 196 309 219 q 446 174 382 174 q 561 211 524 174 q 598 344 598 248 l 598 348 l 422 348 q 407 354 413 348 q 401 369 401 359 l 401 484 q 407 498 401 493 q 422 504 412 504 l 769 504 m 288 -125 l 589 -125 q 603 -130 597 -125 q 608 -144 608 -136 l 608 -207 q 581 -502 608 -398 q 557 -516 577 -515 l 459 -516 q 441 -496 439 -516 q 452 -271 452 -369 l 288 -271 q 274 -266 279 -271 q 269 -253 269 -261 l 269 -144 q 274 -130 269 -136 q 288 -125 279 -125 z "},"ģ":{"ha":854,"x_min":68,"x_max":773,"o":"m 591 834 l 290 834 q 277 839 282 834 q 271 852 271 844 l 271 916 q 298 1211 271 1105 q 321 1225 302 1225 l 420 1225 q 439 1205 441 1225 q 428 981 427 1091 l 591 981 q 605 976 600 981 q 610 962 610 970 l 610 852 q 605 839 610 844 q 591 834 600 834 m 608 688 l 752 688 q 767 682 761 688 q 773 667 773 676 l 773 42 q 749 -91 773 -33 q 688 -182 725 -148 q 598 -238 650 -216 q 497 -268 547 -260 q 393 -275 447 -275 q 127 -210 221 -275 q 120 -183 113 -201 l 155 -82 q 182 -71 161 -64 q 374 -112 270 -111 q 587 50 587 -112 l 587 170 l 568 170 q 491 72 549 108 q 355 35 433 35 q 148 127 227 35 q 68 359 68 219 q 155 605 68 508 q 378 701 242 701 q 584 608 507 701 l 587 667 q 608 688 589 688 m 304 247 q 326 224 304 247 q 419 202 349 202 q 533 246 489 202 q 577 362 577 290 q 533 478 577 435 q 419 522 489 522 q 304 478 349 522 q 259 363 259 435 q 304 247 259 291 z "},"Ħ":{"ha":854,"x_min":92,"x_max":762,"o":"m 580 930 l 741 930 q 756 925 750 930 q 762 909 762 920 l 762 21 q 756 6 762 12 q 741 0 750 0 l 580 0 q 565 5 571 0 q 559 21 559 11 l 559 367 l 295 367 l 295 21 q 289 6 295 12 q 274 0 283 0 l 113 0 q 98 5 104 0 q 92 21 92 11 l 92 909 q 98 925 92 919 q 113 930 104 930 l 274 930 q 289 925 283 930 q 295 909 295 920 l 295 814 l 559 814 l 559 909 q 565 925 559 919 q 580 930 571 930 m 295 652 l 295 546 l 559 546 l 559 652 l 295 652 z "},"ħ":{"ha":854,"x_min":2,"x_max":760,"o":"m 519 701 q 694 623 629 701 q 760 408 760 544 l 760 21 q 754 6 760 12 q 740 0 749 0 l 585 0 q 571 5 576 0 q 565 21 565 11 l 565 371 q 529 480 565 441 q 427 520 493 520 q 325 480 361 520 q 290 371 290 441 l 290 21 q 284 6 290 12 q 269 0 278 0 l 115 0 q 100 5 106 0 q 94 21 94 11 l 94 768 l 23 768 q 8 773 14 768 q 2 788 2 779 l 2 869 q 8 884 2 878 q 23 890 14 890 l 94 890 l 94 951 q 100 967 94 961 q 115 972 106 972 l 269 972 q 283 967 277 972 q 290 951 290 961 l 290 890 l 497 890 q 512 884 507 890 q 518 869 518 878 l 518 788 q 513 773 518 779 q 497 768 507 768 l 290 768 l 290 567 l 314 567 q 391 664 340 626 q 519 701 442 701 z "},"Ī":{"ha":854,"x_min":90,"x_max":764,"o":"m 616 1140 l 238 1140 q 223 1146 229 1140 q 218 1161 218 1152 l 218 1271 q 223 1286 218 1280 q 238 1292 229 1292 l 616 1292 q 631 1286 625 1292 q 637 1271 637 1280 l 637 1161 q 631 1146 637 1152 q 616 1140 625 1140 m 744 0 l 111 0 q 96 5 102 0 q 90 21 90 11 l 90 158 q 96 173 90 168 q 111 179 102 179 l 326 179 l 326 751 l 111 751 q 96 757 102 751 q 90 772 90 762 l 90 909 q 96 925 90 919 q 111 930 102 930 l 744 930 q 759 925 753 930 q 764 909 764 920 l 764 772 q 759 757 764 763 q 744 751 753 751 l 528 751 l 528 179 l 744 179 q 759 174 753 179 q 764 158 764 168 l 764 21 q 759 6 764 12 q 744 0 753 0 z "},"ī":{"ha":854,"x_min":107,"x_max":751,"o":"m 609 897 l 231 897 q 216 903 222 897 q 210 918 210 908 l 210 1028 q 216 1043 210 1038 q 231 1048 222 1048 l 609 1048 q 624 1043 618 1048 q 630 1028 630 1038 l 630 918 q 624 903 630 909 q 609 897 618 897 m 630 159 l 730 159 q 746 153 740 159 q 751 138 751 147 l 751 21 q 746 6 751 12 q 730 0 741 0 l 549 0 q 389 58 444 0 q 334 224 334 117 l 334 528 l 127 528 q 113 534 118 528 q 107 549 107 541 l 107 667 q 113 682 107 676 q 127 688 118 688 l 509 688 q 524 682 518 688 q 529 667 529 676 l 529 261 q 553 184 529 209 q 630 159 578 159 z "},"Į":{"ha":854,"x_min":90,"x_max":764,"o":"m 744 751 l 528 751 l 528 179 l 744 179 q 759 174 753 179 q 764 158 764 168 l 764 21 q 759 6 764 12 q 744 0 753 0 l 558 0 q 477 -20 504 0 q 451 -71 451 -40 q 474 -120 451 -101 q 541 -140 498 -140 l 570 -140 q 583 -153 583 -140 l 583 -244 q 570 -258 583 -258 l 527 -258 q 451 -251 486 -258 q 382 -227 415 -243 q 331 -177 350 -210 q 312 -98 312 -144 q 345 0 312 -39 l 111 0 q 96 5 102 0 q 90 21 90 11 l 90 158 q 96 173 90 168 q 111 179 102 179 l 326 179 l 326 751 l 111 751 q 96 757 102 751 q 90 772 90 762 l 90 909 q 96 925 90 919 q 111 930 102 930 l 744 930 q 759 925 753 930 q 764 909 764 920 l 764 772 q 759 757 764 763 q 744 751 753 751 z "},"į":{"ha":854,"x_min":107,"x_max":751,"o":"m 489 880 q 475 866 489 880 q 420 851 460 851 q 351 880 380 851 q 322 951 322 909 q 351 1020 322 991 q 420 1048 380 1048 q 489 1020 460 1048 q 518 951 518 991 q 489 880 518 909 m 630 159 l 730 159 q 746 153 740 159 q 751 138 751 147 l 751 21 q 746 6 751 12 q 730 0 741 0 l 572 0 q 491 -20 517 0 q 464 -71 464 -40 q 488 -120 464 -101 q 553 -140 511 -140 l 583 -140 q 597 -153 596 -140 l 597 -244 q 583 -258 597 -258 l 541 -258 q 464 -251 500 -258 q 396 -227 429 -243 q 344 -177 363 -210 q 325 -98 325 -144 q 411 39 325 -2 q 334 224 333 96 l 334 528 l 127 528 q 113 534 118 528 q 107 549 107 541 l 107 667 q 113 682 107 676 q 127 688 118 688 l 509 688 q 524 682 518 688 q 529 667 529 676 l 529 261 q 553 184 529 209 q 630 159 578 159 z "},"İ":{"ha":854,"x_min":90,"x_max":764,"o":"m 496 1123 q 482 1109 496 1123 q 427 1095 467 1095 q 358 1123 387 1095 q 329 1194 329 1152 q 358 1263 329 1234 q 427 1292 387 1292 q 496 1263 467 1292 q 525 1194 525 1235 q 496 1123 525 1152 m 744 0 l 111 0 q 96 5 102 0 q 90 21 90 11 l 90 158 q 96 173 90 168 q 111 179 102 179 l 326 179 l 326 751 l 111 751 q 96 757 102 751 q 90 772 90 762 l 90 909 q 96 925 90 919 q 111 930 102 930 l 744 930 q 759 925 753 930 q 764 909 764 920 l 764 772 q 759 757 764 763 q 744 751 753 751 l 528 751 l 528 179 l 744 179 q 759 174 753 179 q 764 158 764 168 l 764 21 q 759 6 764 12 q 744 0 753 0 z "},"ı":{"ha":854,"x_min":107,"x_max":751,"o":"m 630 159 l 730 159 q 746 153 740 159 q 751 138 751 147 l 751 21 q 746 6 751 12 q 730 0 741 0 l 549 0 q 389 58 444 0 q 334 224 334 117 l 334 528 l 127 528 q 113 534 118 528 q 107 549 107 541 l 107 667 q 113 682 107 676 q 127 688 118 688 l 509 688 q 524 682 518 688 q 529 667 529 676 l 529 261 q 553 184 529 209 q 630 159 578 159 z "},"Ĳ":{"ha":854,"x_min":35,"x_max":819,"o":"m 56 930 l 216 930 q 232 925 226 930 q 237 909 237 920 l 237 21 q 232 6 237 12 q 216 0 227 0 l 56 0 q 40 5 46 0 q 35 21 35 11 l 35 909 q 40 925 35 919 q 56 930 46 930 m 799 930 q 814 925 808 930 q 819 909 819 920 l 819 351 q 793 185 819 257 q 719 72 766 114 q 613 8 672 29 q 484 -12 554 -12 q 313 28 378 -12 q 304 58 296 39 l 355 177 q 382 186 363 195 q 454 174 416 174 q 616 388 617 174 l 616 751 l 344 751 q 329 757 335 751 q 323 772 323 762 l 323 909 q 329 925 323 919 q 344 930 335 930 l 799 930 z "},"ĳ":{"ha":854,"x_min":46,"x_max":827,"o":"m 717 839 q 638 871 671 839 q 606 949 606 903 q 638 1027 606 995 q 717 1059 671 1059 q 794 1027 762 1059 q 827 949 827 995 q 794 871 827 903 q 717 839 762 839 m 234 864 q 218 848 234 864 q 156 832 202 832 q 78 864 111 832 q 46 942 46 897 q 78 1020 46 988 q 156 1052 111 1052 q 234 1020 202 1052 q 266 942 266 988 q 234 864 266 897 m 503 -267 q 414 -258 457 -267 q 339 -235 370 -250 q 287 -205 309 -221 q 256 -172 264 -189 q 255 -144 248 -156 l 311 -51 q 345 -45 322 -31 q 485 -90 414 -90 q 537 -83 513 -90 q 581 -60 560 -76 q 614 -14 602 -44 q 627 59 627 17 l 627 528 l 329 528 q 314 534 319 528 q 309 549 309 541 l 309 667 q 314 682 309 676 q 329 688 319 688 l 802 688 q 817 682 811 688 q 822 667 822 676 l 822 37 q 802 -85 822 -31 q 751 -173 783 -140 q 676 -228 720 -206 q 591 -259 633 -250 q 503 -267 549 -267 m 233 -1 l 79 -1 q 64 4 70 -1 q 58 20 58 9 l 58 665 q 79 686 58 686 l 233 686 q 254 665 254 686 l 254 20 q 248 4 254 10 q 233 -1 241 -1 z "},"Ķ":{"ha":854,"x_min":71,"x_max":823,"o":"m 487 508 l 819 25 q 822 7 826 15 q 806 0 819 0 l 630 0 q 605 12 614 0 l 369 355 l 273 232 l 273 21 q 268 6 273 12 q 253 0 262 0 l 92 0 q 76 5 82 0 q 71 21 71 11 l 71 909 q 76 925 71 919 q 92 930 82 930 l 253 930 q 268 925 262 930 q 273 909 273 920 l 273 516 l 566 920 q 590 930 574 930 l 783 930 q 799 923 795 930 q 793 905 802 916 l 487 508 m 274 -125 l 576 -125 q 590 -130 585 -125 q 595 -144 595 -136 l 595 -207 q 568 -502 595 -398 q 545 -516 564 -515 l 446 -516 q 428 -496 425 -516 q 438 -271 439 -369 l 274 -271 q 261 -266 266 -271 q 256 -253 256 -261 l 256 -144 q 261 -130 256 -136 q 274 -125 266 -125 z "},"ķ":{"ha":854,"x_min":105,"x_max":789,"o":"m 496 389 l 785 25 q 789 7 793 15 q 773 0 785 0 l 600 0 q 575 12 585 0 l 378 260 l 300 177 l 300 21 q 295 6 300 12 q 280 0 289 0 l 125 0 q 111 5 117 0 q 105 21 105 11 l 105 951 q 111 967 105 961 q 125 972 117 972 l 280 972 q 295 967 289 972 q 300 951 300 961 l 300 417 l 528 676 q 553 688 538 687 l 737 688 q 754 680 750 688 q 749 663 758 672 l 496 389 m 274 -125 l 576 -125 q 590 -130 585 -125 q 595 -144 595 -136 l 595 -207 q 568 -502 595 -398 q 545 -516 564 -515 l 446 -516 q 428 -496 425 -516 q 438 -271 439 -369 l 274 -271 q 261 -266 266 -271 q 256 -253 256 -261 l 256 -144 q 261 -130 256 -136 q 274 -125 266 -125 z "},"Ĺ":{"ha":854,"x_min":117,"x_max":758,"o":"m 283 1059 l 146 1059 q 129 1065 134 1059 q 129 1082 124 1071 l 212 1257 q 236 1274 220 1274 l 374 1274 q 390 1267 385 1274 q 390 1250 395 1261 l 307 1075 q 283 1059 300 1059 m 736 0 l 138 0 q 123 5 130 0 q 117 21 117 11 l 117 909 q 123 925 117 919 q 138 930 129 930 l 299 930 q 314 925 308 930 q 320 909 320 920 l 320 179 l 736 179 q 751 174 745 179 q 758 158 758 168 l 758 21 q 751 6 758 12 q 736 0 745 0 z "},"ĺ":{"ha":854,"x_min":86,"x_max":764,"o":"m 500 1133 l 363 1133 q 347 1140 352 1133 q 347 1157 342 1146 l 430 1332 q 454 1349 437 1349 l 591 1349 q 607 1342 602 1349 q 608 1325 612 1336 l 524 1150 q 500 1133 517 1133 m 744 0 l 560 0 q 390 62 450 0 q 330 237 330 125 l 330 813 l 107 813 q 92 819 98 813 q 86 834 86 825 l 86 951 q 92 967 86 961 q 107 972 97 972 l 505 972 q 519 967 513 972 q 526 951 526 961 l 526 267 q 553 187 526 215 q 633 159 581 159 l 744 159 q 759 153 753 159 q 764 138 764 147 l 764 21 q 759 6 764 12 q 744 0 753 0 z "},"Ļ":{"ha":854,"x_min":117,"x_max":758,"o":"m 736 0 l 138 0 q 123 5 130 0 q 117 21 117 11 l 117 909 q 123 925 117 919 q 138 930 129 930 l 299 930 q 314 925 308 930 q 320 909 320 920 l 320 179 l 736 179 q 751 174 745 179 q 758 158 758 168 l 758 21 q 751 6 758 12 q 736 0 745 0 m 274 -125 l 576 -125 q 590 -130 585 -125 q 595 -144 595 -136 l 595 -207 q 568 -502 595 -398 q 545 -516 564 -515 l 446 -516 q 428 -496 425 -516 q 438 -271 439 -369 l 274 -271 q 261 -266 266 -271 q 256 -253 256 -261 l 256 -144 q 261 -130 256 -136 q 274 -125 266 -125 z "},"ļ":{"ha":854,"x_min":86,"x_max":764,"o":"m 744 0 l 560 0 q 390 62 450 0 q 330 237 330 125 l 330 813 l 107 813 q 92 819 98 813 q 86 834 86 825 l 86 951 q 92 967 86 961 q 107 972 97 972 l 505 972 q 519 967 513 972 q 526 951 526 961 l 526 267 q 553 187 526 215 q 633 159 581 159 l 744 159 q 759 153 753 159 q 764 138 764 147 l 764 21 q 759 6 764 12 q 744 0 753 0 m 274 -125 l 576 -125 q 590 -130 585 -125 q 595 -144 595 -136 l 595 -207 q 568 -502 595 -398 q 545 -516 564 -515 l 446 -516 q 428 -496 425 -516 q 438 -271 439 -369 l 274 -271 q 261 -266 266 -271 q 256 -253 256 -261 l 256 -144 q 261 -130 256 -136 q 274 -125 266 -125 z "},"Ľ":{"ha":854,"x_min":117,"x_max":764,"o":"m 736 0 l 138 0 q 123 5 130 0 q 117 21 117 11 l 117 909 q 123 925 117 919 q 138 930 129 930 l 299 930 q 314 925 308 930 q 320 909 320 920 l 320 179 l 736 179 q 751 174 745 179 q 758 158 758 168 l 758 21 q 751 6 758 12 q 736 0 745 0 m 410 930 l 744 930 q 759 925 753 930 q 764 909 764 920 l 764 840 q 734 513 764 630 q 708 497 730 497 l 600 497 q 579 519 577 497 q 591 768 592 661 l 410 768 q 394 774 400 768 q 389 789 389 779 l 389 909 q 394 925 389 919 q 410 930 400 930 z "},"ľ":{"ha":854,"x_min":18,"x_max":838,"o":"m 549 975 l 821 975 q 833 968 829 975 q 838 954 838 962 l 838 884 q 813 556 838 670 q 793 541 810 541 l 703 541 q 688 563 685 541 q 696 812 699 690 l 549 812 q 532 833 532 812 l 532 954 q 549 975 532 975 m 675 0 l 492 0 q 321 62 381 0 q 261 237 261 125 l 261 813 l 38 813 q 23 819 29 813 q 18 834 18 825 l 18 951 q 23 967 18 961 q 38 972 29 972 l 436 972 q 451 967 446 972 q 457 951 457 961 l 457 267 q 485 187 457 215 q 564 159 512 159 l 675 159 q 690 153 684 159 q 696 138 696 147 l 696 21 q 690 6 696 12 q 675 0 684 0 z "},"Ŀ":{"ha":854,"x_min":117,"x_max":758,"o":"m 736 0 l 138 0 q 123 5 130 0 q 117 21 117 11 l 117 909 q 123 925 117 919 q 138 930 129 930 l 299 930 q 314 925 308 930 q 320 909 320 920 l 320 179 l 736 179 q 751 174 745 179 q 758 158 758 168 l 758 21 q 751 6 758 12 q 736 0 745 0 m 655 446 q 635 425 655 446 q 555 404 614 404 q 454 446 496 404 q 412 547 412 488 q 454 648 412 606 q 555 690 496 690 q 655 648 614 690 q 697 547 697 606 q 655 446 697 488 z "},"ŀ":{"ha":854,"x_min":86,"x_max":821,"o":"m 744 0 l 560 0 q 390 62 450 0 q 330 237 330 125 l 330 813 l 107 813 q 92 819 98 813 q 86 834 86 825 l 86 951 q 92 967 86 961 q 107 972 97 972 l 505 972 q 519 967 513 972 q 526 951 526 961 l 526 267 q 553 187 526 215 q 633 159 581 159 l 744 159 q 759 153 753 159 q 764 138 764 147 l 764 21 q 759 6 764 12 q 744 0 753 0 m 788 464 q 771 448 788 464 q 709 431 755 431 q 630 464 663 431 q 597 543 597 496 q 630 622 597 589 q 709 655 663 655 q 788 622 755 655 q 821 543 821 589 q 788 464 821 496 z "},"Ł":{"ha":854,"x_min":37,"x_max":726,"o":"m 345 179 l 705 179 q 721 174 715 179 q 726 158 726 168 l 726 21 q 721 6 726 12 q 705 0 715 0 l 163 0 q 148 5 153 0 q 142 21 142 11 l 142 308 l 62 229 q 44 223 52 220 q 37 240 37 227 l 37 370 q 48 396 37 385 l 142 488 l 142 951 q 147 967 142 961 q 163 972 153 972 l 323 972 q 339 967 333 972 q 345 951 345 961 l 345 686 l 450 789 q 467 795 460 798 q 474 778 474 791 l 474 650 q 463 624 474 634 l 345 507 l 345 179 z "},"ł":{"ha":854,"x_min":86,"x_max":764,"o":"m 633 159 l 744 159 q 759 153 753 159 q 764 138 764 147 l 764 21 q 759 6 764 12 q 744 0 753 0 l 559 0 q 389 62 449 0 q 330 237 330 125 l 330 351 l 229 264 l 229 431 l 330 517 l 330 813 l 107 813 q 92 819 98 813 q 86 834 86 825 l 86 951 q 92 967 86 961 q 107 972 97 972 l 505 972 q 519 967 513 972 q 526 951 526 961 l 526 687 l 636 782 l 637 616 l 526 520 l 526 267 q 553 187 526 215 q 633 159 581 159 z "},"Ń":{"ha":854,"x_min":100,"x_max":755,"o":"m 500 1076 l 363 1076 q 347 1083 352 1076 q 347 1100 342 1089 l 430 1275 q 454 1292 437 1292 l 591 1292 q 607 1285 602 1292 q 608 1268 612 1279 l 524 1093 q 500 1076 517 1076 m 595 930 l 734 930 q 749 925 743 930 q 755 909 755 920 l 755 21 q 749 6 755 12 q 734 0 743 0 l 557 0 q 532 14 538 0 l 281 591 l 281 21 q 275 6 281 12 q 260 0 269 0 l 121 0 q 105 5 111 0 q 100 21 100 11 l 100 909 q 105 925 100 919 q 121 930 111 930 l 297 930 q 322 917 316 930 l 574 340 l 574 909 q 579 925 574 919 q 595 930 585 930 z "},"ń":{"ha":854,"x_min":94,"x_max":760,"o":"m 500 833 l 363 833 q 347 840 352 833 q 347 857 342 846 l 430 1032 q 454 1048 437 1049 l 591 1048 q 607 1042 602 1048 q 608 1025 612 1036 l 524 850 q 500 833 517 833 m 519 701 q 694 623 629 701 q 760 408 760 544 l 760 21 q 754 6 760 12 q 740 0 749 0 l 585 0 q 571 5 576 0 q 565 21 565 11 l 565 371 q 529 480 565 441 q 427 520 493 520 q 325 480 361 520 q 290 371 290 441 l 290 21 q 284 6 290 12 q 269 0 278 0 l 115 0 q 100 5 106 0 q 94 21 94 11 l 94 667 q 100 682 94 676 q 115 688 106 688 l 263 688 q 284 667 283 688 l 290 567 l 314 567 q 391 664 340 626 q 519 701 442 701 z "},"Ņ":{"ha":854,"x_min":100,"x_max":755,"o":"m 595 930 l 734 930 q 749 925 743 930 q 755 909 755 920 l 755 21 q 749 6 755 12 q 734 0 743 0 l 557 0 q 532 14 538 0 l 281 591 l 281 21 q 275 6 281 12 q 260 0 269 0 l 121 0 q 105 5 111 0 q 100 21 100 11 l 100 909 q 105 925 100 919 q 121 930 111 930 l 297 930 q 322 917 316 930 l 574 340 l 574 909 q 579 925 574 919 q 595 930 585 930 m 274 -125 l 576 -125 q 590 -130 585 -125 q 595 -144 595 -136 l 595 -207 q 568 -502 595 -398 q 545 -516 564 -515 l 446 -516 q 428 -496 425 -516 q 438 -271 439 -369 l 274 -271 q 261 -266 266 -271 q 256 -253 256 -261 l 256 -144 q 261 -130 256 -136 q 274 -125 266 -125 z "},"ņ":{"ha":854,"x_min":94,"x_max":760,"o":"m 519 701 q 694 623 629 701 q 760 408 760 544 l 760 21 q 754 6 760 12 q 740 0 749 0 l 585 0 q 571 5 576 0 q 565 21 565 11 l 565 371 q 529 480 565 441 q 427 520 493 520 q 325 480 361 520 q 290 371 290 441 l 290 21 q 284 6 290 12 q 269 0 278 0 l 115 0 q 100 5 106 0 q 94 21 94 11 l 94 667 q 100 682 94 676 q 115 688 106 688 l 263 688 q 284 667 283 688 l 290 567 l 314 567 q 391 664 340 626 q 519 701 442 701 m 274 -125 l 576 -125 q 590 -130 585 -125 q 595 -144 595 -136 l 595 -207 q 568 -502 595 -398 q 545 -516 564 -515 l 446 -516 q 428 -496 425 -516 q 438 -271 439 -369 l 274 -271 q 261 -266 266 -271 q 256 -253 256 -261 l 256 -144 q 261 -130 256 -136 q 274 -125 266 -125 z "},"Ň":{"ha":854,"x_min":100,"x_max":755,"o":"m 299 1081 l 144 1267 q 139 1284 136 1277 q 156 1292 143 1292 l 311 1292 q 336 1280 328 1292 l 427 1176 l 518 1280 q 543 1292 527 1291 l 698 1292 q 715 1284 711 1292 q 711 1267 719 1277 l 555 1081 q 530 1070 545 1070 l 324 1070 q 299 1081 309 1070 m 595 930 l 734 930 q 749 925 743 930 q 755 909 755 920 l 755 21 q 749 6 755 12 q 734 0 743 0 l 557 0 q 532 14 538 0 l 281 591 l 281 21 q 275 6 281 12 q 260 0 269 0 l 121 0 q 105 5 111 0 q 100 21 100 11 l 100 909 q 105 925 100 919 q 121 930 111 930 l 297 930 q 322 917 316 930 l 574 340 l 574 909 q 579 925 574 919 q 595 930 585 930 z "},"ň":{"ha":854,"x_min":94,"x_max":760,"o":"m 299 838 l 144 1023 q 139 1041 136 1034 q 156 1048 143 1048 l 311 1048 q 336 1038 328 1048 l 427 932 l 518 1038 q 543 1048 527 1048 l 698 1048 q 715 1041 711 1048 q 711 1023 719 1034 l 555 838 q 530 827 545 827 l 324 827 q 299 838 309 827 m 519 701 q 694 623 629 701 q 760 408 760 544 l 760 21 q 754 6 760 12 q 740 0 749 0 l 585 0 q 571 5 576 0 q 565 21 565 11 l 565 371 q 529 480 565 441 q 427 520 493 520 q 325 480 361 520 q 290 371 290 441 l 290 21 q 284 6 290 12 q 269 0 278 0 l 115 0 q 100 5 106 0 q 94 21 94 11 l 94 667 q 100 682 94 676 q 115 688 106 688 l 263 688 q 284 667 283 688 l 290 567 l 314 567 q 391 664 340 626 q 519 701 442 701 z "},"Ŋ":{"ha":854,"x_min":100,"x_max":755,"o":"m 595 930 l 734 930 q 749 925 743 930 q 755 909 755 920 l 755 0 q 730 -138 755 -81 q 656 -227 706 -194 q 537 -274 606 -260 q 373 -288 469 -288 l 373 -106 q 523 -81 472 -106 q 574 0 574 -57 l 557 0 q 532 14 538 0 l 281 591 l 281 21 q 275 6 281 12 q 260 0 269 0 l 121 0 q 105 5 111 0 q 100 21 100 11 l 100 909 q 105 925 100 919 q 121 930 111 930 l 297 930 q 322 917 316 930 l 574 340 l 574 909 q 579 925 574 919 q 595 930 585 930 z "},"ŋ":{"ha":854,"x_min":94,"x_max":760,"o":"m 519 701 q 694 623 629 701 q 760 408 760 544 l 760 15 q 683 -200 760 -125 q 475 -275 606 -275 q 459 -264 463 -275 l 410 -107 q 411 -96 408 -101 q 419 -92 414 -92 q 522 -55 478 -92 q 565 52 565 -19 l 565 371 q 529 480 565 441 q 427 520 493 520 q 325 480 361 520 q 290 371 290 441 l 290 21 q 284 6 290 12 q 269 0 278 0 l 115 0 q 100 5 106 0 q 94 21 94 11 l 94 667 q 100 682 94 676 q 115 688 106 688 l 263 688 q 284 667 283 688 l 290 567 l 314 567 q 391 664 340 626 q 519 701 442 701 z "},"Ō":{"ha":854,"x_min":71,"x_max":783,"o":"m 616 1140 l 238 1140 q 223 1146 229 1140 q 218 1161 218 1152 l 218 1271 q 223 1286 218 1280 q 238 1292 229 1292 l 616 1292 q 631 1286 625 1292 q 637 1271 637 1280 l 637 1161 q 631 1146 637 1152 q 616 1140 625 1140 m 700 93 q 659 36 700 93 q 427 -21 618 -21 q 154 93 236 -21 q 71 462 71 208 q 154 831 71 717 q 427 945 236 945 q 700 831 618 945 q 783 462 783 717 q 700 93 783 208 m 358 186 q 372 180 358 186 q 427 174 386 174 q 495 186 468 174 q 545 229 523 198 q 576 318 566 260 q 586 462 586 375 q 576 606 586 549 q 545 694 566 663 q 495 738 523 726 q 427 750 468 750 q 358 738 386 750 q 310 694 331 726 q 278 606 288 663 q 268 462 268 549 q 278 318 268 375 q 310 229 288 260 q 358 186 331 198 z "},"ō":{"ha":854,"x_min":71,"x_max":783,"o":"m 616 897 l 238 897 q 223 903 229 897 q 218 918 218 908 l 218 1028 q 223 1043 218 1038 q 238 1048 229 1048 l 616 1048 q 631 1043 625 1048 q 637 1028 637 1038 l 637 918 q 631 903 637 909 q 616 897 625 897 m 427 -18 q 173 86 274 -18 q 71 342 71 189 q 172 598 71 496 q 427 701 273 701 q 610 654 529 701 q 737 525 692 608 q 783 342 783 443 q 737 159 783 241 q 610 30 692 77 q 427 -18 529 -18 m 309 214 q 332 190 309 214 q 427 165 355 165 q 545 214 499 165 q 591 342 591 264 q 545 470 591 421 q 427 519 499 519 q 309 470 355 519 q 262 342 262 421 q 309 214 262 264 z "},"Ő":{"ha":854,"x_min":71,"x_max":783,"o":"m 366 1076 l 229 1076 q 212 1083 217 1076 q 212 1100 207 1089 l 295 1275 q 319 1292 302 1292 l 456 1292 q 473 1285 468 1292 q 473 1268 478 1279 l 389 1093 q 366 1076 382 1076 m 629 1076 l 491 1076 q 474 1083 479 1076 q 474 1100 469 1089 l 557 1275 q 581 1292 565 1292 l 719 1292 q 735 1285 730 1292 q 735 1268 741 1279 l 652 1093 q 629 1076 645 1076 m 700 93 q 659 36 700 93 q 427 -21 618 -21 q 154 93 236 -21 q 71 462 71 208 q 154 831 71 717 q 427 945 236 945 q 700 831 618 945 q 783 462 783 717 q 700 93 783 208 m 358 186 q 372 180 358 186 q 427 174 386 174 q 495 186 468 174 q 545 229 523 198 q 576 318 566 260 q 586 462 586 375 q 576 606 586 549 q 545 694 566 663 q 495 738 523 726 q 427 750 468 750 q 358 738 386 750 q 310 694 331 726 q 278 606 288 663 q 268 462 268 549 q 278 318 268 375 q 310 229 288 260 q 358 186 331 198 z "},"ő":{"ha":854,"x_min":71,"x_max":783,"o":"m 366 833 l 229 833 q 212 840 217 833 q 212 857 207 846 l 295 1032 q 319 1048 302 1049 l 456 1048 q 473 1042 468 1048 q 473 1025 478 1036 l 389 850 q 366 833 382 833 m 629 833 l 491 833 q 474 840 479 833 q 474 857 469 846 l 557 1032 q 581 1048 565 1049 l 719 1048 q 735 1042 730 1048 q 735 1025 741 1036 l 652 850 q 629 833 645 833 m 427 -18 q 173 86 274 -18 q 71 342 71 189 q 172 598 71 496 q 427 701 273 701 q 610 654 529 701 q 737 525 692 608 q 783 342 783 443 q 737 159 783 241 q 610 30 692 77 q 427 -18 529 -18 m 309 214 q 332 190 309 214 q 427 165 355 165 q 545 214 499 165 q 591 342 591 264 q 545 470 591 421 q 427 519 499 519 q 309 470 355 519 q 262 342 262 421 q 309 214 262 264 z "},"Œ":{"ha":854,"x_min":58,"x_max":797,"o":"m 616 179 l 776 179 q 791 174 785 179 q 797 158 797 168 l 797 21 q 791 6 797 12 q 776 0 785 0 l 413 0 q 276 14 333 -1 q 177 60 220 28 q 108 146 134 92 q 70 277 83 200 q 58 463 58 355 q 76 686 58 597 q 138 830 95 774 q 248 908 182 885 q 413 930 314 931 l 774 930 q 789 925 783 930 q 795 909 795 920 l 795 772 q 789 757 795 763 q 774 751 783 751 l 616 751 l 616 556 l 747 556 q 763 550 757 556 q 768 536 768 545 l 768 398 q 763 383 768 389 q 747 377 757 377 l 616 377 l 616 179 m 413 184 l 413 747 q 360 743 381 747 q 320 729 340 740 q 290 700 300 719 q 270 649 279 681 q 258 571 261 616 q 254 463 254 526 q 260 335 254 385 q 276 254 266 286 q 307 208 286 223 q 351 188 328 193 q 413 184 374 183 z "},"œ":{"ha":854,"x_min":24,"x_max":831,"o":"m 635 134 q 748 177 697 134 l 823 86 q 619 -18 748 -18 q 432 96 488 -18 q 254 -18 375 -18 q 82 77 140 -18 q 24 343 24 173 q 82 608 24 513 q 254 703 140 703 q 433 587 376 703 q 612 703 490 703 q 714 676 671 703 q 783 600 758 649 q 819 490 808 551 q 831 354 831 429 q 821 289 831 308 q 781 269 811 269 l 502 269 q 542 168 511 203 q 635 134 573 134 m 600 548 q 528 510 551 548 q 499 395 505 472 l 690 395 q 669 511 690 473 q 600 548 648 548 m 261 136 q 366 342 366 136 q 261 546 366 546 q 156 342 156 546 q 261 136 156 136 z "},"Ŕ":{"ha":854,"x_min":95,"x_max":791,"o":"m 500 1076 l 363 1076 q 347 1083 352 1076 q 347 1100 342 1089 l 430 1275 q 454 1292 437 1292 l 591 1292 q 607 1285 602 1292 q 608 1268 612 1279 l 524 1093 q 500 1076 517 1076 m 632 329 l 785 24 q 786 7 790 14 q 769 0 781 0 l 611 0 q 587 16 594 0 l 447 296 l 445 296 l 298 296 l 298 21 q 292 6 298 12 q 277 0 286 0 l 116 0 q 101 5 107 0 q 95 21 95 11 l 95 909 q 101 925 95 919 q 116 930 107 930 l 445 930 q 708 850 625 930 q 791 614 791 770 q 632 329 791 396 m 437 751 l 298 751 l 298 475 l 437 475 q 557 507 517 475 q 597 614 597 538 q 557 721 597 690 q 437 751 518 751 z "},"ŕ":{"ha":854,"x_min":109,"x_max":791,"o":"m 515 833 l 377 833 q 360 840 366 833 q 360 857 355 846 l 444 1032 q 467 1048 451 1049 l 605 1048 q 622 1042 616 1048 q 621 1025 627 1036 l 538 850 q 515 833 531 833 m 553 701 q 727 630 662 701 q 791 456 791 559 q 774 381 791 403 q 724 359 756 359 l 633 359 q 611 366 620 359 q 602 387 602 373 q 463 520 595 520 q 347 472 389 520 q 304 320 304 424 l 304 21 q 299 6 304 12 q 283 0 293 0 l 129 0 q 114 5 119 0 q 109 21 109 11 l 109 667 q 114 682 109 676 q 129 688 119 688 l 278 688 q 298 667 297 688 l 304 547 l 332 547 q 412 659 355 616 q 553 701 470 701 z "},"Ŗ":{"ha":854,"x_min":95,"x_max":791,"o":"m 632 329 l 785 24 q 786 7 790 14 q 769 0 781 0 l 611 0 q 587 16 594 0 l 447 296 l 445 296 l 298 296 l 298 21 q 292 6 298 12 q 277 0 286 0 l 116 0 q 101 5 107 0 q 95 21 95 11 l 95 909 q 101 925 95 919 q 116 930 107 930 l 445 930 q 708 850 625 930 q 791 614 791 770 q 632 329 791 396 m 437 751 l 298 751 l 298 475 l 437 475 q 557 507 517 475 q 597 614 597 538 q 557 721 597 690 q 437 751 518 751 m 274 -125 l 576 -125 q 590 -130 585 -125 q 595 -144 595 -136 l 595 -207 q 568 -502 595 -398 q 545 -516 564 -515 l 446 -516 q 428 -496 425 -516 q 438 -271 439 -369 l 274 -271 q 261 -266 266 -271 q 256 -253 256 -261 l 256 -144 q 261 -130 256 -136 q 274 -125 266 -125 z "},"ŗ":{"ha":854,"x_min":5,"x_max":791,"o":"m 553 701 q 727 630 662 701 q 791 456 791 559 q 774 381 791 403 q 724 359 756 359 l 633 359 q 611 366 620 359 q 602 387 602 373 q 463 520 595 520 q 347 472 389 520 q 304 320 304 424 l 304 21 q 299 6 304 12 q 283 0 293 0 l 129 0 q 114 5 119 0 q 109 21 109 11 l 109 667 q 114 682 109 676 q 129 688 119 688 l 278 688 q 298 667 297 688 l 304 547 l 332 547 q 412 659 355 616 q 553 701 470 701 m 24 -125 l 326 -125 q 340 -130 334 -125 q 345 -144 345 -136 l 345 -207 q 317 -502 345 -398 q 294 -516 314 -515 l 196 -516 q 178 -496 176 -516 q 189 -271 189 -369 l 24 -271 q 11 -266 16 -271 q 5 -253 5 -261 l 5 -144 q 11 -130 5 -136 q 24 -125 16 -125 z "},"Ř":{"ha":854,"x_min":95,"x_max":791,"o":"m 299 1081 l 144 1267 q 139 1284 136 1277 q 156 1292 143 1292 l 311 1292 q 336 1280 328 1292 l 427 1176 l 518 1280 q 543 1292 527 1291 l 698 1292 q 715 1284 711 1292 q 711 1267 719 1277 l 555 1081 q 530 1070 545 1070 l 324 1070 q 299 1081 309 1070 m 632 329 l 785 24 q 786 7 790 14 q 769 0 781 0 l 611 0 q 587 16 594 0 l 447 296 l 445 296 l 298 296 l 298 21 q 292 6 298 12 q 277 0 286 0 l 116 0 q 101 5 107 0 q 95 21 95 11 l 95 909 q 101 925 95 919 q 116 930 107 930 l 445 930 q 708 850 625 930 q 791 614 791 770 q 632 329 791 396 m 437 751 l 298 751 l 298 475 l 437 475 q 557 507 517 475 q 597 614 597 538 q 557 721 597 690 q 437 751 518 751 z "},"ř":{"ha":854,"x_min":109,"x_max":791,"o":"m 313 838 l 157 1023 q 153 1041 149 1034 q 170 1048 157 1048 l 325 1048 q 350 1038 341 1048 l 441 932 l 532 1038 q 557 1048 541 1048 l 712 1048 q 729 1041 725 1048 q 724 1023 732 1034 l 569 838 q 544 827 559 827 l 338 827 q 313 838 323 827 m 553 701 q 727 630 662 701 q 791 456 791 559 q 774 381 791 403 q 724 359 756 359 l 633 359 q 611 366 620 359 q 602 387 602 373 q 463 520 595 520 q 347 472 389 520 q 304 320 304 424 l 304 21 q 299 6 304 12 q 283 0 293 0 l 129 0 q 114 5 119 0 q 109 21 109 11 l 109 667 q 114 682 109 676 q 129 688 119 688 l 278 688 q 298 667 297 688 l 304 547 l 332 547 q 412 659 355 616 q 553 701 470 701 z "},"Ś":{"ha":854,"x_min":71,"x_max":783,"o":"m 503 1076 l 366 1076 q 350 1083 355 1076 q 349 1100 345 1089 l 433 1275 q 456 1292 440 1292 l 594 1292 q 610 1285 606 1292 q 610 1268 615 1279 l 527 1093 q 503 1076 519 1076 m 422 -21 q 172 46 260 -21 q 71 264 83 113 q 76 281 71 274 q 91 288 81 288 l 239 288 q 259 268 256 288 q 429 158 282 158 q 585 264 585 158 q 549 338 585 309 q 411 387 513 367 q 316 410 359 397 q 231 447 274 424 q 158 501 187 471 q 110 577 128 531 q 91 677 91 623 q 177 872 91 800 q 431 945 263 945 q 662 881 580 945 q 757 675 744 817 q 752 658 758 665 q 737 652 747 652 l 600 652 q 581 671 584 652 q 427 765 559 765 q 289 669 289 765 q 326 600 289 629 q 463 550 362 570 q 531 535 503 542 q 596 515 559 528 q 657 488 632 503 q 707 452 682 474 q 748 405 732 431 q 773 342 764 378 q 783 261 783 305 q 691 51 783 123 q 422 -21 598 -21 z "},"ś":{"ha":854,"x_min":104,"x_max":750,"o":"m 500 833 l 363 833 q 347 840 352 833 q 347 857 342 846 l 430 1032 q 454 1048 437 1049 l 591 1048 q 607 1042 602 1048 q 608 1025 612 1036 l 524 850 q 500 833 517 833 m 440 413 q 605 381 554 398 q 750 199 750 332 q 667 39 750 96 q 427 -18 584 -18 q 200 29 287 -18 q 104 172 114 75 q 110 187 104 181 q 125 193 116 193 l 269 193 q 290 179 286 193 q 429 127 311 127 q 559 197 559 127 q 550 228 559 216 q 520 249 541 241 q 476 262 499 257 q 412 271 452 267 q 241 309 294 287 q 117 484 117 358 q 196 644 117 587 q 425 701 275 701 q 641 656 555 701 q 735 518 726 611 q 730 503 736 509 q 715 497 724 497 l 570 497 q 549 511 554 497 q 507 544 541 531 q 422 556 473 556 q 308 489 308 556 q 338 438 308 454 q 440 413 369 422 z "},"Ş":{"ha":854,"x_min":71,"x_max":783,"o":"m 783 261 q 704 63 783 134 q 474 -19 625 -8 l 444 -46 q 532 -81 494 -50 q 570 -161 570 -111 q 548 -239 570 -207 q 491 -286 526 -271 q 412 -306 456 -300 q 321 -302 368 -311 q 309 -287 309 -300 l 309 -219 q 313 -209 309 -213 q 324 -205 317 -204 q 409 -203 378 -213 q 439 -170 439 -193 q 424 -148 439 -157 q 383 -136 408 -138 q 326 -148 358 -135 q 314 -148 318 -151 q 309 -138 309 -146 l 309 -66 q 316 -50 309 -57 l 351 -18 q 152 63 223 -5 q 71 264 81 131 q 76 281 71 274 q 91 288 81 288 l 239 288 q 259 268 256 288 q 429 158 282 158 q 585 264 585 158 q 549 338 585 309 q 411 387 513 367 q 316 410 359 397 q 231 447 274 424 q 158 501 187 471 q 110 577 128 531 q 91 677 91 623 q 177 872 91 800 q 431 945 263 945 q 662 881 580 945 q 757 675 744 817 q 752 658 758 665 q 737 652 747 652 l 600 652 q 581 671 584 652 q 427 765 559 765 q 289 669 289 765 q 326 600 289 629 q 463 550 362 570 q 531 535 503 542 q 596 515 559 528 q 657 488 632 503 q 707 452 682 474 q 748 405 732 431 q 773 342 764 378 q 783 261 783 305 z "},"ş":{"ha":854,"x_min":104,"x_max":750,"o":"m 750 199 q 680 49 750 105 q 477 -16 610 -7 l 443 -46 q 531 -81 494 -50 q 569 -161 569 -111 q 547 -239 569 -207 q 491 -286 526 -271 q 411 -306 456 -300 q 321 -302 367 -311 q 309 -287 309 -300 l 309 -219 q 313 -209 309 -213 q 323 -205 317 -204 q 408 -203 378 -213 q 438 -170 438 -193 q 423 -148 438 -157 q 382 -136 408 -138 q 325 -148 357 -135 q 313 -148 318 -151 q 309 -138 309 -146 l 309 -66 q 315 -50 309 -57 l 354 -14 q 178 43 244 -3 q 104 172 113 88 q 110 187 104 181 q 125 193 116 193 l 269 193 q 290 179 286 193 q 429 127 311 127 q 559 197 559 127 q 550 228 559 216 q 520 249 541 241 q 476 262 499 257 q 412 271 452 267 q 241 309 294 287 q 117 484 117 358 q 196 644 117 587 q 425 701 275 701 q 641 656 555 701 q 735 518 726 611 q 730 503 736 509 q 715 497 724 497 l 570 497 q 549 511 554 497 q 507 544 541 531 q 422 556 473 556 q 308 489 308 556 q 338 438 308 454 q 440 413 369 422 q 605 381 554 398 q 750 199 750 332 z "},"Š":{"ha":854,"x_min":71,"x_max":783,"o":"m 532 1070 l 327 1070 q 302 1081 312 1070 l 146 1267 q 142 1284 138 1277 q 159 1292 146 1292 l 314 1292 q 339 1280 330 1292 l 430 1176 l 521 1280 q 546 1292 530 1291 l 701 1292 q 718 1284 713 1292 q 713 1267 722 1277 l 557 1081 q 532 1070 547 1070 m 422 -21 q 172 46 260 -21 q 71 264 83 113 q 76 281 71 274 q 91 288 81 288 l 239 288 q 259 268 256 288 q 429 158 282 158 q 585 264 585 158 q 549 338 585 309 q 411 387 513 367 q 316 410 359 397 q 231 447 274 424 q 158 501 187 471 q 110 577 128 531 q 91 677 91 623 q 177 872 91 800 q 431 945 263 945 q 662 881 580 945 q 757 675 744 817 q 752 658 758 665 q 737 652 747 652 l 600 652 q 581 671 584 652 q 427 765 559 765 q 289 669 289 765 q 326 600 289 629 q 463 550 362 570 q 531 535 503 542 q 596 515 559 528 q 657 488 632 503 q 707 452 682 474 q 748 405 732 431 q 773 342 764 378 q 783 261 783 305 q 691 51 783 123 q 422 -21 598 -21 z "},"š":{"ha":854,"x_min":104,"x_max":750,"o":"m 530 827 l 324 827 q 299 838 309 827 l 144 1023 q 139 1041 136 1034 q 156 1048 143 1048 l 311 1048 q 336 1038 328 1048 l 427 932 l 518 1038 q 543 1048 527 1048 l 698 1048 q 715 1041 711 1048 q 711 1023 719 1034 l 555 838 q 530 827 545 827 m 440 413 q 605 381 554 398 q 750 199 750 332 q 667 39 750 96 q 427 -18 584 -18 q 200 29 287 -18 q 104 172 114 75 q 110 187 104 181 q 125 193 116 193 l 269 193 q 290 179 286 193 q 429 127 311 127 q 559 197 559 127 q 550 228 559 216 q 520 249 541 241 q 476 262 499 257 q 412 271 452 267 q 241 309 294 287 q 117 484 117 358 q 196 644 117 587 q 425 701 275 701 q 641 656 555 701 q 735 518 726 611 q 730 503 736 509 q 715 497 724 497 l 570 497 q 549 511 554 497 q 507 544 541 531 q 422 556 473 556 q 308 489 308 556 q 338 438 308 454 q 440 413 369 422 z "},"Ţ":{"ha":854,"x_min":69,"x_max":785,"o":"m 90 930 l 764 930 q 779 925 773 930 q 785 909 785 920 l 785 772 q 779 757 785 763 q 764 751 774 751 l 528 751 l 528 21 q 523 6 528 12 q 508 0 517 0 l 495 0 l 443 -46 q 531 -81 494 -50 q 569 -161 569 -111 q 547 -239 569 -207 q 491 -286 526 -271 q 411 -306 456 -300 q 321 -302 367 -311 q 309 -287 309 -300 l 309 -219 q 313 -209 309 -213 q 323 -205 317 -204 q 408 -203 378 -213 q 438 -170 438 -193 q 423 -148 438 -157 q 382 -136 408 -138 q 325 -148 357 -135 q 313 -148 318 -151 q 309 -138 309 -146 l 309 -66 q 315 -50 309 -57 l 369 0 l 347 0 q 332 5 338 0 q 326 21 326 11 l 326 751 l 90 751 q 75 757 81 751 q 69 772 69 762 l 69 909 q 75 925 69 919 q 90 930 81 930 z "},"ţ":{"ha":854,"x_min":47,"x_max":797,"o":"m 762 185 q 791 147 783 163 q 797 120 800 131 q 785 94 794 109 q 712 30 764 63 q 585 -14 660 -3 l 549 -46 q 637 -81 600 -50 q 674 -161 674 -111 q 653 -239 674 -207 q 596 -286 631 -271 q 516 -306 561 -300 q 427 -302 472 -311 q 414 -287 414 -300 l 414 -219 q 418 -209 414 -213 q 429 -205 422 -204 q 514 -203 484 -213 q 544 -170 544 -193 q 529 -148 544 -157 q 488 -136 513 -138 q 431 -148 463 -135 q 419 -148 424 -151 q 414 -138 414 -146 l 414 -66 q 421 -50 414 -57 l 463 -11 q 388 15 422 -3 q 323 64 353 33 q 276 147 293 96 q 258 266 258 199 l 258 524 l 67 524 q 53 529 58 524 q 47 545 47 534 l 47 660 q 53 675 47 669 q 67 681 58 681 l 258 681 l 258 875 q 264 890 258 884 q 279 896 269 896 l 433 896 q 449 890 443 896 q 454 875 454 885 l 454 681 l 726 681 q 741 675 734 681 q 747 660 747 669 l 747 545 q 741 529 747 535 q 726 524 734 524 l 454 524 l 454 294 q 465 227 454 255 q 493 184 475 198 q 530 163 511 170 q 572 157 549 157 q 695 205 637 157 q 722 216 710 219 q 762 185 734 212 z "},"Ť":{"ha":854,"x_min":69,"x_max":785,"o":"m 530 1070 l 324 1070 q 299 1081 309 1070 l 144 1267 q 139 1284 136 1277 q 156 1292 143 1292 l 311 1292 q 336 1280 328 1292 l 427 1176 l 518 1280 q 543 1292 527 1291 l 698 1292 q 715 1284 711 1292 q 711 1267 719 1277 l 555 1081 q 530 1070 545 1070 m 508 0 l 347 0 q 332 5 338 0 q 326 21 326 11 l 326 751 l 90 751 q 75 757 81 751 q 69 772 69 762 l 69 909 q 75 925 69 919 q 90 930 81 930 l 764 930 q 779 925 773 930 q 785 909 785 920 l 785 772 q 779 757 785 763 q 764 751 774 751 l 528 751 l 528 21 q 523 6 528 12 q 508 0 517 0 z "},"ť":{"ha":854,"x_min":47,"x_max":831,"o":"m 677 1149 l 814 1149 q 831 1142 826 1149 q 831 1125 836 1136 l 748 950 q 724 933 741 933 l 587 933 q 570 940 575 933 q 570 957 566 946 l 654 1132 q 677 1149 661 1149 m 695 205 q 722 216 710 219 q 762 185 734 212 q 791 147 783 163 q 797 120 800 131 q 785 94 794 109 q 755 62 775 79 q 705 26 736 45 q 629 -5 675 7 q 532 -18 583 -18 q 459 -11 494 -18 q 386 16 424 -3 q 321 66 349 35 q 276 148 294 96 q 258 266 258 199 l 258 524 l 67 524 q 53 529 58 524 q 47 545 47 534 l 47 660 q 53 675 47 669 q 67 681 58 681 l 258 681 l 258 875 q 264 890 258 884 q 279 896 269 896 l 433 896 q 449 890 443 896 q 454 875 454 885 l 454 681 l 726 681 q 741 675 734 681 q 747 660 747 669 l 747 545 q 741 529 747 535 q 726 524 734 524 l 454 524 l 454 294 q 465 227 454 255 q 493 184 475 198 q 530 163 511 170 q 572 157 549 157 q 695 205 637 157 z "},"Ŧ":{"ha":854,"x_min":69,"x_max":785,"o":"m 90 930 l 764 930 q 779 925 773 930 q 785 909 785 920 l 785 772 q 779 757 785 763 q 764 751 774 751 l 528 751 l 528 631 l 661 631 q 682 610 682 631 l 682 499 q 661 479 682 478 l 528 479 l 528 21 q 523 6 528 12 q 508 0 517 0 l 347 0 q 332 5 338 0 q 326 21 326 11 l 326 479 l 193 479 q 178 485 184 479 q 172 499 172 490 l 172 610 q 177 625 172 618 q 193 631 183 631 l 326 631 l 326 751 l 90 751 q 75 757 81 751 q 69 772 69 762 l 69 909 q 75 925 69 919 q 90 930 81 930 z "},"ŧ":{"ha":854,"x_min":47,"x_max":797,"o":"m 762 185 q 791 147 783 163 q 797 120 800 131 q 785 94 794 109 q 755 62 775 79 q 705 26 736 45 q 629 -5 675 7 q 532 -18 583 -18 q 459 -11 494 -18 q 386 16 424 -3 q 321 66 349 35 q 276 148 294 96 q 258 266 258 199 l 258 325 l 67 325 q 53 331 58 325 q 47 346 47 336 l 47 444 q 53 459 47 454 q 67 465 58 465 l 258 465 l 258 524 l 67 524 q 53 529 58 524 q 47 545 47 534 l 47 660 q 53 675 47 669 q 67 681 58 681 l 258 681 l 258 875 q 264 890 258 884 q 279 896 269 896 l 433 896 q 449 890 443 896 q 454 875 454 885 l 454 681 l 726 681 q 741 675 734 681 q 747 660 747 669 l 747 545 q 741 529 747 535 q 726 524 734 524 l 454 524 l 454 465 l 724 465 q 739 460 733 465 q 745 444 745 454 l 745 346 q 739 331 745 336 q 724 325 733 325 l 454 325 l 454 294 q 465 227 454 255 q 493 184 475 198 q 530 163 511 170 q 572 157 549 157 q 695 205 637 157 q 722 216 710 219 q 762 185 734 212 z "},"Ū":{"ha":854,"x_min":85,"x_max":769,"o":"m 616 1140 l 238 1140 q 223 1146 229 1140 q 218 1161 218 1152 l 218 1271 q 223 1286 218 1280 q 238 1292 229 1292 l 616 1292 q 631 1286 625 1292 q 637 1271 637 1280 l 637 1161 q 631 1146 637 1152 q 616 1140 625 1140 m 682 64 q 639 22 682 64 q 427 -21 595 -21 q 172 64 259 -21 q 85 320 85 149 l 85 909 q 91 925 85 919 q 106 930 97 930 l 267 930 q 282 925 276 930 q 288 909 288 920 l 288 336 q 427 174 288 174 q 566 336 566 174 l 566 909 q 572 925 566 919 q 587 930 578 930 l 748 930 q 763 925 757 930 q 769 909 769 920 l 769 320 q 682 64 769 149 z "},"ū":{"ha":854,"x_min":94,"x_max":760,"o":"m 616 897 l 238 897 q 223 903 229 897 q 218 918 218 908 l 218 1028 q 223 1043 218 1038 q 238 1048 229 1048 l 616 1048 q 631 1043 625 1048 q 637 1028 637 1038 l 637 918 q 631 903 637 909 q 616 897 625 897 m 585 688 l 740 688 q 754 682 749 688 q 760 667 760 676 l 760 21 q 754 6 760 12 q 740 0 749 0 l 591 0 q 570 21 571 0 l 565 121 l 541 121 q 463 24 514 62 q 336 -14 412 -14 q 160 65 226 -14 q 94 279 94 144 l 94 667 q 100 682 94 676 q 115 688 106 688 l 269 688 q 283 682 277 688 q 290 667 290 676 l 290 317 q 325 207 290 247 q 427 168 361 168 q 529 207 494 168 q 565 317 565 247 l 565 667 q 571 682 565 676 q 585 688 576 688 z "},"Ŭ":{"ha":854,"x_min":85,"x_max":769,"o":"m 590 1124 q 559 1096 590 1124 q 427 1067 528 1067 q 264 1124 326 1067 q 193 1270 202 1182 q 214 1292 191 1292 l 297 1292 q 319 1271 315 1292 q 355 1214 327 1238 q 427 1190 384 1190 q 498 1214 470 1190 q 534 1271 527 1238 q 557 1292 539 1292 l 640 1292 q 661 1270 663 1292 q 590 1124 652 1182 m 682 64 q 639 22 682 64 q 427 -21 595 -21 q 172 64 259 -21 q 85 320 85 149 l 85 909 q 91 925 85 919 q 106 930 97 930 l 267 930 q 282 925 276 930 q 288 909 288 920 l 288 336 q 427 174 288 174 q 566 336 566 174 l 566 909 q 572 925 566 919 q 587 930 578 930 l 748 930 q 763 925 757 930 q 769 909 769 920 l 769 320 q 682 64 769 149 z "},"ŭ":{"ha":854,"x_min":94,"x_max":760,"o":"m 590 881 q 559 852 590 881 q 427 823 528 823 q 264 881 326 823 q 193 1026 202 939 q 214 1048 191 1048 l 297 1048 q 319 1028 315 1048 q 355 971 327 996 q 427 947 384 947 q 498 971 470 947 q 534 1028 527 995 q 557 1048 539 1049 l 640 1048 q 661 1026 663 1048 q 590 881 652 939 m 585 688 l 740 688 q 754 682 749 688 q 760 667 760 676 l 760 21 q 754 6 760 12 q 740 0 749 0 l 591 0 q 570 21 571 0 l 565 121 l 541 121 q 463 24 514 62 q 336 -14 412 -14 q 160 65 226 -14 q 94 279 94 144 l 94 667 q 100 682 94 676 q 115 688 106 688 l 269 688 q 283 682 277 688 q 290 667 290 676 l 290 317 q 325 207 290 247 q 427 168 361 168 q 529 207 494 168 q 565 317 565 247 l 565 667 q 571 682 565 676 q 585 688 576 688 z "},"Ů":{"ha":854,"x_min":85,"x_max":769,"o":"m 427 1009 q 325 1050 367 1009 q 283 1149 283 1092 q 325 1250 283 1208 q 427 1292 367 1292 q 528 1250 487 1292 q 570 1149 570 1208 q 528 1050 570 1092 q 427 1009 487 1009 m 427 1110 q 458 1122 446 1110 q 469 1151 470 1133 q 456 1180 469 1169 q 427 1192 444 1192 q 397 1180 409 1192 q 385 1152 385 1169 q 397 1121 385 1133 q 427 1110 408 1110 m 682 64 q 639 22 682 64 q 427 -21 595 -21 q 172 64 259 -21 q 85 320 85 149 l 85 909 q 91 925 85 919 q 106 930 97 930 l 267 930 q 282 925 276 930 q 288 909 288 920 l 288 336 q 427 174 288 174 q 566 336 566 174 l 566 909 q 572 925 566 919 q 587 930 578 930 l 748 930 q 763 925 757 930 q 769 909 769 920 l 769 320 q 682 64 769 149 z "},"ů":{"ha":854,"x_min":94,"x_max":760,"o":"m 427 766 q 325 807 367 766 q 283 906 283 848 q 325 1007 283 965 q 427 1048 367 1048 q 528 1007 487 1048 q 570 906 570 965 q 528 807 570 848 q 427 766 487 766 m 427 949 q 397 938 409 949 q 385 908 385 926 q 397 878 385 889 q 427 867 408 867 q 458 879 446 867 q 469 908 470 890 q 457 938 469 926 q 427 949 445 949 m 585 688 l 740 688 q 754 682 749 688 q 760 667 760 676 l 760 21 q 754 6 760 12 q 740 0 749 0 l 591 0 q 570 21 571 0 l 565 121 l 541 121 q 463 24 514 62 q 336 -14 412 -14 q 160 65 226 -14 q 94 279 94 144 l 94 667 q 100 682 94 676 q 115 688 106 688 l 269 688 q 283 682 277 688 q 290 667 290 676 l 290 317 q 325 207 290 247 q 427 168 361 168 q 529 207 494 168 q 565 317 565 247 l 565 667 q 571 682 565 676 q 585 688 576 688 z "},"Ű":{"ha":854,"x_min":85,"x_max":769,"o":"m 366 1076 l 229 1076 q 212 1083 217 1076 q 212 1100 207 1089 l 295 1275 q 319 1292 302 1292 l 456 1292 q 473 1285 468 1292 q 473 1268 478 1279 l 389 1093 q 366 1076 382 1076 m 629 1076 l 491 1076 q 474 1083 479 1076 q 474 1100 469 1089 l 557 1275 q 581 1292 565 1292 l 719 1292 q 735 1285 730 1292 q 735 1268 741 1279 l 652 1093 q 629 1076 645 1076 m 682 64 q 639 22 682 64 q 427 -21 595 -21 q 172 64 259 -21 q 85 320 85 149 l 85 909 q 91 925 85 919 q 106 930 97 930 l 267 930 q 282 925 276 930 q 288 909 288 920 l 288 336 q 427 174 288 174 q 566 336 566 174 l 566 909 q 572 925 566 919 q 587 930 578 930 l 748 930 q 763 925 757 930 q 769 909 769 920 l 769 320 q 682 64 769 149 z "},"ű":{"ha":854,"x_min":94,"x_max":760,"o":"m 366 833 l 229 833 q 212 840 217 833 q 212 857 207 846 l 295 1032 q 319 1048 302 1049 l 456 1048 q 473 1042 468 1048 q 473 1025 478 1036 l 389 850 q 366 833 382 833 m 629 833 l 491 833 q 474 840 479 833 q 474 857 469 846 l 557 1032 q 581 1048 565 1049 l 719 1048 q 735 1042 730 1048 q 735 1025 741 1036 l 652 850 q 629 833 645 833 m 585 688 l 740 688 q 754 682 749 688 q 760 667 760 676 l 760 21 q 754 6 760 12 q 740 0 749 0 l 591 0 q 570 21 571 0 l 565 121 l 541 121 q 463 24 514 62 q 336 -14 412 -14 q 160 65 226 -14 q 94 279 94 144 l 94 667 q 100 682 94 676 q 115 688 106 688 l 269 688 q 283 682 277 688 q 290 667 290 676 l 290 317 q 325 207 290 247 q 427 168 361 168 q 529 207 494 168 q 565 317 565 247 l 565 667 q 571 682 565 676 q 585 688 576 688 z "},"Ų":{"ha":854,"x_min":85,"x_max":769,"o":"m 587 930 l 748 930 q 763 925 757 930 q 769 909 769 920 l 769 320 q 553 -6 769 50 q 480 -37 503 -18 q 458 -86 458 -56 q 478 -133 458 -115 q 540 -150 498 -150 l 576 -150 q 590 -164 590 -150 l 590 -255 q 576 -269 590 -269 l 534 -269 q 458 -262 494 -269 q 390 -239 423 -255 q 338 -192 357 -222 q 319 -118 319 -161 q 369 -18 319 -51 q 85 320 85 10 l 85 909 q 91 925 85 919 q 106 930 97 930 l 267 930 q 282 925 276 930 q 288 909 288 920 l 288 336 q 427 174 288 174 q 566 336 566 174 l 566 909 q 572 925 566 919 q 587 930 578 930 z "},"ų":{"ha":854,"x_min":94,"x_max":764,"o":"m 721 -140 l 750 -140 q 764 -153 764 -140 l 764 -244 q 750 -258 764 -258 l 707 -258 q 631 -251 667 -258 q 563 -227 596 -243 q 511 -177 530 -210 q 492 -98 492 -144 q 570 35 492 -7 l 565 121 l 541 121 q 463 24 514 62 q 336 -14 412 -14 q 160 65 226 -14 q 94 279 94 144 l 94 667 q 100 682 94 676 q 115 688 106 688 l 269 688 q 283 682 277 688 q 290 667 290 676 l 290 317 q 325 207 290 247 q 427 168 361 168 q 529 207 494 168 q 565 317 565 247 l 565 667 q 571 682 565 676 q 585 688 576 688 l 740 688 q 754 682 749 688 q 760 667 760 676 l 760 21 q 754 6 760 12 q 740 0 749 0 l 739 0 q 658 -20 685 0 q 631 -71 631 -40 q 655 -120 631 -101 q 721 -140 679 -140 z "},"Ŵ":{"ha":854,"x_min":45,"x_max":810,"o":"m 311 1070 l 156 1070 q 139 1077 143 1070 q 144 1095 136 1084 l 299 1280 q 324 1292 309 1291 l 530 1292 q 555 1280 545 1292 l 711 1095 q 715 1078 719 1085 q 698 1070 711 1070 l 543 1070 q 518 1081 527 1070 l 427 1186 l 336 1081 q 311 1070 328 1070 m 648 930 l 793 930 q 810 907 812 930 l 711 17 q 702 5 711 9 q 685 0 694 0 l 505 0 q 482 17 484 0 l 427 415 l 372 17 q 349 0 370 0 l 170 0 q 152 4 161 0 q 143 17 144 9 l 45 907 q 61 930 43 930 l 206 930 q 230 914 228 930 l 281 268 l 364 831 q 387 847 367 848 l 467 847 q 490 831 488 847 l 574 268 l 625 914 q 648 930 626 930 z "},"ŵ":{"ha":854,"x_min":45,"x_max":809,"o":"m 310 827 l 155 827 q 138 834 142 827 q 142 852 134 842 l 298 1038 q 323 1048 308 1048 l 528 1048 q 553 1038 543 1048 l 709 852 q 714 834 718 842 q 696 827 710 827 l 542 827 q 517 838 526 827 l 426 943 l 335 838 q 310 827 326 827 m 667 688 l 792 688 q 809 664 813 688 l 693 17 q 668 0 690 0 l 522 0 q 497 17 500 0 l 427 413 l 357 17 q 332 0 354 0 l 186 0 q 161 17 163 0 l 45 664 q 62 688 41 688 l 187 688 q 204 683 196 688 q 212 671 212 678 l 271 229 l 355 664 q 380 681 358 681 l 474 681 q 499 664 496 681 l 583 229 l 642 671 q 650 683 642 678 q 667 688 658 688 z "},"Ŷ":{"ha":854,"x_min":42,"x_max":812,"o":"m 311 1070 l 156 1070 q 139 1077 143 1070 q 144 1095 136 1084 l 299 1280 q 324 1292 309 1291 l 530 1292 q 555 1280 545 1292 l 711 1095 q 715 1078 719 1085 q 698 1070 711 1070 l 543 1070 q 518 1081 527 1070 l 427 1186 l 336 1081 q 311 1070 328 1070 m 626 930 l 796 930 q 812 924 808 930 q 810 905 816 917 l 528 359 l 528 21 q 523 6 528 12 q 508 0 517 0 l 347 0 q 332 5 338 0 q 326 21 326 11 l 326 362 l 45 905 q 42 923 39 916 q 58 930 46 930 l 229 930 q 254 917 247 930 l 427 553 l 601 917 q 626 930 608 930 z "},"ŷ":{"ha":854,"x_min":67,"x_max":787,"o":"m 311 827 l 156 827 q 139 834 143 827 q 144 852 136 842 l 299 1038 q 324 1048 309 1048 l 530 1048 q 555 1038 545 1048 l 711 852 q 715 834 719 842 q 698 827 711 827 l 543 827 q 518 838 527 827 l 427 943 l 336 838 q 311 827 328 827 m 616 688 l 771 688 q 787 664 796 688 l 431 -248 q 406 -264 427 -264 l 253 -264 q 236 -258 241 -264 q 236 -240 231 -252 l 330 -2 l 67 664 q 67 681 62 675 q 84 688 72 688 l 237 688 q 262 671 257 688 l 427 222 l 591 671 q 616 688 597 688 z "},"Ÿ":{"ha":854,"x_min":42,"x_max":812,"o":"m 342 1123 q 328 1109 342 1123 q 273 1095 313 1095 q 204 1123 233 1095 q 176 1194 176 1152 q 204 1263 176 1234 q 273 1292 233 1292 q 342 1263 313 1292 q 371 1194 371 1235 q 342 1123 371 1152 m 649 1123 q 635 1109 649 1123 q 581 1095 621 1095 q 512 1123 541 1095 q 484 1194 484 1152 q 512 1263 484 1234 q 581 1292 541 1292 q 649 1263 621 1292 q 678 1194 678 1235 q 649 1123 678 1152 m 626 930 l 796 930 q 812 924 808 930 q 810 905 816 917 l 528 359 l 528 21 q 523 6 528 12 q 508 0 517 0 l 347 0 q 332 5 338 0 q 326 21 326 11 l 326 362 l 45 905 q 42 923 39 916 q 58 930 46 930 l 229 930 q 254 917 247 930 l 427 553 l 601 917 q 626 930 608 930 z "},"Ź":{"ha":854,"x_min":86,"x_max":768,"o":"m 500 1076 l 363 1076 q 347 1083 352 1076 q 347 1100 342 1089 l 430 1275 q 454 1292 437 1292 l 591 1292 q 607 1285 602 1292 q 608 1268 612 1279 l 524 1093 q 500 1076 517 1076 m 747 0 l 107 0 q 92 5 98 0 q 86 21 86 11 l 86 165 q 94 191 86 179 l 534 751 l 121 751 q 105 757 111 751 q 100 772 100 762 l 100 909 q 105 925 100 919 q 121 930 111 930 l 733 930 q 748 925 743 930 q 754 909 754 920 l 754 765 q 746 741 754 751 l 307 179 l 747 179 q 763 174 757 179 q 768 158 768 168 l 768 21 q 763 6 768 12 q 747 0 757 0 z "},"ź":{"ha":854,"x_min":117,"x_max":734,"o":"m 500 833 l 363 833 q 347 840 352 833 q 347 857 342 846 l 430 1032 q 454 1048 437 1049 l 591 1048 q 607 1042 602 1048 q 608 1025 612 1036 l 524 850 q 500 833 517 833 m 730 667 l 730 544 q 721 517 730 527 l 353 159 l 713 159 q 728 153 722 159 q 734 138 734 147 l 734 21 q 728 6 734 12 q 713 0 722 0 l 141 0 q 126 5 132 0 q 120 21 120 11 l 120 144 q 130 170 120 161 l 497 528 l 138 528 q 122 534 128 528 q 117 549 117 541 l 117 667 q 122 682 117 676 q 138 688 127 688 l 710 688 q 725 682 720 688 q 730 667 730 676 z "},"Ż":{"ha":854,"x_min":86,"x_max":768,"o":"m 496 1123 q 482 1109 496 1123 q 427 1095 467 1095 q 358 1123 387 1095 q 329 1194 329 1152 q 358 1263 329 1234 q 427 1292 387 1292 q 496 1263 467 1292 q 525 1194 525 1235 q 496 1123 525 1152 m 747 0 l 107 0 q 92 5 98 0 q 86 21 86 11 l 86 165 q 94 191 86 179 l 534 751 l 121 751 q 105 757 111 751 q 100 772 100 762 l 100 909 q 105 925 100 919 q 121 930 111 930 l 733 930 q 748 925 743 930 q 754 909 754 920 l 754 765 q 746 741 754 751 l 307 179 l 747 179 q 763 174 757 179 q 768 158 768 168 l 768 21 q 763 6 768 12 q 747 0 757 0 z "},"ż":{"ha":854,"x_min":117,"x_max":734,"o":"m 496 880 q 482 866 496 880 q 427 851 467 851 q 358 880 387 851 q 329 951 329 909 q 358 1020 329 991 q 427 1048 387 1048 q 496 1020 467 1048 q 525 951 525 991 q 496 880 525 909 m 730 667 l 730 544 q 721 517 730 527 l 353 159 l 713 159 q 728 153 722 159 q 734 138 734 147 l 734 21 q 728 6 734 12 q 713 0 722 0 l 141 0 q 126 5 132 0 q 120 21 120 11 l 120 144 q 130 170 120 161 l 497 528 l 138 528 q 122 534 128 528 q 117 549 117 541 l 117 667 q 122 682 117 676 q 138 688 127 688 l 710 688 q 725 682 720 688 q 730 667 730 676 z "},"Ž":{"ha":854,"x_min":86,"x_max":768,"o":"m 530 1070 l 324 1070 q 299 1081 309 1070 l 144 1267 q 139 1284 136 1277 q 156 1292 143 1292 l 311 1292 q 336 1280 328 1292 l 427 1176 l 518 1280 q 543 1292 527 1291 l 698 1292 q 715 1284 711 1292 q 711 1267 719 1277 l 555 1081 q 530 1070 545 1070 m 747 0 l 107 0 q 92 5 98 0 q 86 21 86 11 l 86 165 q 94 191 86 179 l 534 751 l 121 751 q 105 757 111 751 q 100 772 100 762 l 100 909 q 105 925 100 919 q 121 930 111 930 l 733 930 q 748 925 743 930 q 754 909 754 920 l 754 765 q 746 741 754 751 l 307 179 l 747 179 q 763 174 757 179 q 768 158 768 168 l 768 21 q 763 6 768 12 q 747 0 757 0 z "},"ž":{"ha":854,"x_min":117,"x_max":734,"o":"m 530 827 l 324 827 q 299 838 309 827 l 144 1023 q 139 1041 136 1034 q 156 1048 143 1048 l 311 1048 q 336 1038 328 1048 l 427 932 l 518 1038 q 543 1048 527 1048 l 698 1048 q 715 1041 711 1048 q 711 1023 719 1034 l 555 838 q 530 827 545 827 m 730 667 l 730 544 q 721 517 730 527 l 353 159 l 713 159 q 728 153 722 159 q 734 138 734 147 l 734 21 q 728 6 734 12 q 713 0 722 0 l 141 0 q 126 5 132 0 q 120 21 120 11 l 120 144 q 130 170 120 161 l 497 528 l 138 528 q 122 534 128 528 q 117 549 117 541 l 117 667 q 122 682 117 676 q 138 688 127 688 l 710 688 q 725 682 720 688 q 730 667 730 676 z "},"ſ":{"ha":854,"x_min":80,"x_max":774,"o":"m 762 998 q 774 979 774 992 l 774 866 q 749 846 774 843 q 732 849 746 847 q 707 852 719 850 q 677 855 696 853 q 641 857 659 857 q 511 825 555 857 q 466 717 466 793 l 466 21 q 460 6 466 12 q 445 0 454 0 l 291 0 q 276 5 282 0 q 270 21 270 11 l 270 522 l 100 522 q 86 527 92 522 q 80 543 80 533 l 80 660 q 86 675 80 669 q 100 681 92 681 l 270 681 l 270 740 q 288 852 270 803 q 335 933 306 901 q 407 985 365 964 q 495 1014 450 1006 q 593 1022 541 1022 q 762 998 704 1022 z "},"Ə":{"ha":854,"x_min":68,"x_max":785,"o":"m 429 945 q 564 930 507 945 q 663 882 620 916 q 733 791 707 848 q 772 654 760 735 q 785 462 785 574 q 772 269 785 350 q 732 132 759 189 q 662 42 706 75 q 561 -7 618 8 q 425 -21 503 -22 q 152 67 235 -20 q 68 351 68 155 l 68 486 q 75 500 68 494 q 90 506 81 506 l 588 506 q 574 632 585 583 q 540 706 562 681 q 490 740 517 730 q 421 749 463 749 q 310 724 345 749 q 262 627 275 699 q 238 608 260 608 l 92 608 q 73 631 71 608 q 167 872 80 799 q 429 945 254 945 m 425 174 q 532 207 494 174 q 582 336 569 240 l 260 336 q 300 209 263 243 q 425 174 336 174 z "},"ƒ":{"ha":854,"x_min":44,"x_max":810,"o":"m 616 1022 q 748 1010 686 1022 q 810 977 810 999 l 810 867 q 804 851 810 857 q 785 847 797 845 q 663 859 719 858 q 563 825 601 859 q 526 716 526 791 l 526 681 l 756 681 q 771 675 765 681 q 777 660 777 669 l 777 543 q 771 528 777 534 q 756 522 765 522 l 526 522 l 526 271 q 510 160 526 209 q 468 81 494 112 q 404 30 441 50 q 326 1 366 9 q 238 -7 286 -7 q 106 5 168 -7 q 44 39 44 17 l 44 149 q 51 164 44 159 q 68 168 58 170 q 192 157 135 157 q 292 190 254 157 q 330 299 330 224 l 330 522 l 92 522 q 77 527 83 522 q 71 543 71 533 l 71 660 q 77 675 71 669 q 92 681 83 681 l 330 681 l 330 744 q 353 877 330 821 q 418 964 376 933 q 508 1008 460 994 q 616 1022 557 1022 z "},"Ǎ":{"ha":854,"x_min":46,"x_max":808,"o":"m 299 1081 l 144 1267 q 139 1284 136 1277 q 156 1292 143 1292 l 311 1292 q 336 1280 328 1292 l 427 1176 l 518 1280 q 543 1292 527 1291 l 698 1292 q 715 1284 711 1292 q 711 1267 719 1277 l 555 1081 q 530 1070 545 1070 l 324 1070 q 299 1081 309 1070 m 577 914 l 808 24 q 791 0 814 0 l 628 0 q 604 17 608 0 l 568 171 l 286 171 l 250 17 q 227 0 247 0 l 62 0 q 46 24 40 0 l 277 914 q 300 930 281 931 l 553 930 q 577 914 573 931 m 416 720 l 327 343 l 527 343 l 438 720 l 416 720 z "},"ǎ":{"ha":854,"x_min":75,"x_max":786,"o":"m 307 838 l 151 1023 q 146 1041 143 1034 q 164 1048 150 1048 l 319 1048 q 344 1038 335 1048 l 435 932 l 526 1038 q 551 1048 534 1048 l 705 1048 q 723 1041 719 1048 q 718 1023 726 1034 l 562 838 q 538 827 552 827 l 332 827 q 307 838 317 827 m 759 134 q 774 121 769 125 q 782 106 779 116 q 786 83 786 96 l 786 56 q 699 -10 786 -10 q 601 21 641 -10 q 562 115 562 52 l 562 123 l 547 123 q 475 24 529 65 q 330 -18 422 -18 l 295 -18 q 134 36 193 -18 q 75 190 75 90 q 294 390 75 376 l 543 406 l 543 439 q 516 523 543 501 q 417 545 490 545 q 327 531 355 545 q 292 482 298 517 q 273 469 290 469 l 128 469 q 107 490 108 469 q 423 701 111 701 q 663 636 593 701 q 733 429 733 572 l 733 214 q 737 170 733 186 q 745 148 741 154 q 759 134 749 142 m 366 130 l 385 130 q 496 162 450 130 q 543 255 543 195 l 543 288 l 341 272 q 265 203 265 267 q 366 130 266 130 z "},"Ǐ":{"ha":854,"x_min":90,"x_max":764,"o":"m 530 1070 l 324 1070 q 299 1081 309 1070 l 144 1267 q 139 1284 136 1277 q 156 1292 143 1292 l 311 1292 q 336 1280 328 1292 l 427 1176 l 518 1280 q 543 1292 527 1291 l 698 1292 q 715 1284 711 1292 q 711 1267 719 1277 l 555 1081 q 530 1070 545 1070 m 744 0 l 111 0 q 96 5 102 0 q 90 21 90 11 l 90 158 q 96 173 90 168 q 111 179 102 179 l 326 179 l 326 751 l 111 751 q 96 757 102 751 q 90 772 90 762 l 90 909 q 96 925 90 919 q 111 930 102 930 l 744 930 q 759 925 753 930 q 764 909 764 920 l 764 772 q 759 757 764 763 q 744 751 753 751 l 528 751 l 528 179 l 744 179 q 759 174 753 179 q 764 158 764 168 l 764 21 q 759 6 764 12 q 744 0 753 0 z "},"ǐ":{"ha":854,"x_min":107,"x_max":751,"o":"m 292 838 l 137 1023 q 133 1041 129 1034 q 149 1048 136 1048 l 304 1048 q 329 1038 321 1048 l 420 932 l 511 1038 q 536 1048 520 1048 l 691 1048 q 708 1041 704 1048 q 703 1023 712 1034 l 548 838 q 523 827 538 827 l 317 827 q 292 838 302 827 m 630 159 l 730 159 q 746 153 740 159 q 751 138 751 147 l 751 21 q 746 6 751 12 q 730 0 741 0 l 549 0 q 389 58 444 0 q 334 224 334 117 l 334 528 l 127 528 q 113 534 118 528 q 107 549 107 541 l 107 667 q 113 682 107 676 q 127 688 118 688 l 509 688 q 524 682 518 688 q 529 667 529 676 l 529 261 q 553 184 529 209 q 630 159 578 159 z "},"Ǒ":{"ha":854,"x_min":71,"x_max":783,"o":"m 530 1070 l 324 1070 q 299 1081 309 1070 l 144 1267 q 139 1284 136 1277 q 156 1292 143 1292 l 311 1292 q 336 1280 328 1292 l 427 1176 l 518 1280 q 543 1292 527 1291 l 698 1292 q 715 1284 711 1292 q 711 1267 719 1277 l 555 1081 q 530 1070 545 1070 m 700 93 q 659 36 700 93 q 427 -21 618 -21 q 154 93 236 -21 q 71 462 71 208 q 154 831 71 717 q 427 945 236 945 q 700 831 618 945 q 783 462 783 717 q 700 93 783 208 m 358 186 q 372 180 358 186 q 427 174 386 174 q 495 186 468 174 q 545 229 523 198 q 576 318 566 260 q 586 462 586 375 q 576 606 586 549 q 545 694 566 663 q 495 738 523 726 q 427 750 468 750 q 358 738 386 750 q 310 694 331 726 q 278 606 288 663 q 268 462 268 549 q 278 318 268 375 q 310 229 288 260 q 358 186 331 198 z "},"ǒ":{"ha":854,"x_min":71,"x_max":783,"o":"m 530 827 l 324 827 q 299 838 309 827 l 144 1023 q 139 1041 136 1034 q 156 1048 143 1048 l 311 1048 q 336 1038 328 1048 l 427 932 l 518 1038 q 543 1048 527 1048 l 698 1048 q 715 1041 711 1048 q 711 1023 719 1034 l 555 838 q 530 827 545 827 m 427 -18 q 173 86 274 -18 q 71 342 71 189 q 172 598 71 496 q 427 701 273 701 q 610 654 529 701 q 737 525 692 608 q 783 342 783 443 q 737 159 783 241 q 610 30 692 77 q 427 -18 529 -18 m 309 214 q 332 190 309 214 q 427 165 355 165 q 545 214 499 165 q 591 342 591 264 q 545 470 591 421 q 427 519 499 519 q 309 470 355 519 q 262 342 262 421 q 309 214 262 264 z "},"Ǔ":{"ha":854,"x_min":85,"x_max":769,"o":"m 530 1070 l 324 1070 q 299 1081 309 1070 l 144 1267 q 139 1284 136 1277 q 156 1292 143 1292 l 311 1292 q 336 1280 328 1292 l 427 1176 l 518 1280 q 543 1292 527 1291 l 698 1292 q 715 1284 711 1292 q 711 1267 719 1277 l 555 1081 q 530 1070 545 1070 m 682 64 q 639 22 682 64 q 427 -21 595 -21 q 172 64 259 -21 q 85 320 85 149 l 85 909 q 91 925 85 919 q 106 930 97 930 l 267 930 q 282 925 276 930 q 288 909 288 920 l 288 336 q 427 174 288 174 q 566 336 566 174 l 566 909 q 572 925 566 919 q 587 930 578 930 l 748 930 q 763 925 757 930 q 769 909 769 920 l 769 320 q 682 64 769 149 z "},"ǔ":{"ha":854,"x_min":94,"x_max":760,"o":"m 299 838 l 144 1023 q 139 1041 136 1034 q 156 1048 143 1048 l 311 1048 q 336 1038 328 1048 l 427 932 l 518 1038 q 543 1048 527 1048 l 698 1048 q 715 1041 711 1048 q 711 1023 719 1034 l 555 838 q 530 827 545 827 l 324 827 q 299 838 309 827 m 585 688 l 740 688 q 754 682 749 688 q 760 667 760 676 l 760 21 q 754 6 760 12 q 740 0 749 0 l 591 0 q 570 21 571 0 l 565 121 l 541 121 q 463 24 514 62 q 336 -14 412 -14 q 160 65 226 -14 q 94 279 94 144 l 94 667 q 100 682 94 676 q 115 688 106 688 l 269 688 q 283 682 277 688 q 290 667 290 676 l 290 317 q 325 207 290 247 q 427 168 361 168 q 529 207 494 168 q 565 317 565 247 l 565 667 q 571 682 565 676 q 585 688 576 688 z "},"Ǫ":{"ha":854,"x_min":71,"x_max":783,"o":"m 564 -3 l 564 -6 q 485 -37 509 -18 q 461 -86 461 -56 q 481 -133 461 -115 q 543 -150 501 -150 l 580 -150 q 594 -164 593 -150 l 594 -255 q 580 -269 594 -269 l 538 -269 q 462 -262 498 -269 q 393 -239 427 -255 q 341 -192 360 -222 q 322 -118 322 -161 q 372 -18 322 -51 q 141 112 212 -3 q 71 462 71 227 q 154 831 71 717 q 427 945 236 945 q 700 831 618 945 q 783 462 783 717 q 731 146 783 258 q 564 -3 679 34 m 278 606 q 273 577 278 606 q 268 462 268 549 q 278 318 268 375 q 310 229 288 260 q 358 186 331 198 q 427 174 386 174 q 495 186 468 174 q 545 229 523 198 q 576 318 566 260 q 586 462 586 375 q 576 606 586 549 q 545 694 566 663 q 495 738 523 726 q 427 750 468 750 q 358 738 386 750 q 310 694 331 726 q 278 606 288 663 z "},"ǫ":{"ha":854,"x_min":71,"x_max":783,"o":"m 521 -6 q 449 -37 471 -18 q 426 -86 426 -56 q 446 -133 426 -115 q 509 -150 466 -150 l 545 -150 q 558 -164 558 -150 l 558 -255 q 545 -269 558 -269 l 503 -269 q 427 -262 463 -269 q 358 -239 391 -255 q 306 -192 325 -222 q 287 -118 287 -161 q 351 -9 287 -42 q 149 113 227 16 q 71 342 71 210 q 172 598 71 496 q 427 701 273 701 q 610 654 529 701 q 737 525 692 608 q 783 342 783 443 q 710 119 783 215 q 521 -6 638 24 m 309 470 q 286 446 309 470 q 262 342 262 421 q 309 214 262 264 q 427 165 355 165 q 545 214 499 165 q 591 342 591 264 q 545 470 591 421 q 427 519 499 519 q 309 470 355 519 z "},"Ș":{"ha":854,"x_min":71,"x_max":783,"o":"m 422 -21 q 172 46 260 -21 q 71 264 83 113 q 76 281 71 274 q 91 288 81 288 l 239 288 q 259 268 256 288 q 429 158 282 158 q 585 264 585 158 q 549 338 585 309 q 411 387 513 367 q 316 410 359 397 q 231 447 274 424 q 158 501 187 471 q 110 577 128 531 q 91 677 91 623 q 177 872 91 800 q 431 945 263 945 q 662 881 580 945 q 757 675 744 817 q 752 658 758 665 q 737 652 747 652 l 600 652 q 581 671 584 652 q 427 765 559 765 q 289 669 289 765 q 326 600 289 629 q 463 550 362 570 q 531 535 503 542 q 596 515 559 528 q 657 488 632 503 q 707 452 682 474 q 748 405 732 431 q 773 342 764 378 q 783 261 783 305 q 691 51 783 123 q 422 -21 598 -21 m 275 -125 l 577 -125 q 591 -130 585 -125 q 596 -144 596 -136 l 596 -207 q 568 -502 596 -398 q 545 -516 565 -515 l 446 -516 q 429 -496 426 -516 q 439 -271 440 -369 l 275 -271 q 262 -266 267 -271 q 256 -253 256 -261 l 256 -144 q 262 -130 256 -136 q 275 -125 267 -125 z "},"ș":{"ha":854,"x_min":104,"x_max":750,"o":"m 440 413 q 605 381 554 398 q 750 199 750 332 q 667 39 750 96 q 427 -18 584 -18 q 200 29 287 -18 q 104 172 114 75 q 110 187 104 181 q 125 193 116 193 l 269 193 q 290 179 286 193 q 429 127 311 127 q 559 197 559 127 q 550 228 559 216 q 520 249 541 241 q 476 262 499 257 q 412 271 452 267 q 241 309 294 287 q 117 484 117 358 q 196 644 117 587 q 425 701 275 701 q 641 656 555 701 q 735 518 726 611 q 730 503 736 509 q 715 497 724 497 l 570 497 q 549 511 554 497 q 507 544 541 531 q 422 556 473 556 q 308 489 308 556 q 338 438 308 454 q 440 413 369 422 m 274 -125 l 576 -125 q 590 -130 585 -125 q 595 -144 595 -136 l 595 -207 q 568 -502 595 -398 q 545 -516 564 -515 l 446 -516 q 428 -496 425 -516 q 438 -271 439 -369 l 274 -271 q 261 -266 266 -271 q 256 -253 256 -261 l 256 -144 q 261 -130 256 -136 q 274 -125 266 -125 z "},"Ț":{"ha":854,"x_min":69,"x_max":785,"o":"m 508 0 l 347 0 q 332 5 338 0 q 326 21 326 11 l 326 751 l 90 751 q 75 757 81 751 q 69 772 69 762 l 69 909 q 75 925 69 919 q 90 930 81 930 l 764 930 q 779 925 773 930 q 785 909 785 920 l 785 772 q 779 757 785 763 q 764 751 774 751 l 528 751 l 528 21 q 523 6 528 12 q 508 0 517 0 m 274 -125 l 576 -125 q 590 -130 585 -125 q 595 -144 595 -136 l 595 -207 q 568 -502 595 -398 q 545 -516 564 -515 l 446 -516 q 428 -496 425 -516 q 438 -271 439 -369 l 274 -271 q 261 -266 266 -271 q 256 -253 256 -261 l 256 -144 q 261 -130 256 -136 q 274 -125 266 -125 z "},"ț":{"ha":854,"x_min":47,"x_max":797,"o":"m 762 185 q 791 147 783 163 q 797 120 800 131 q 785 94 794 109 q 755 62 775 79 q 705 26 736 45 q 629 -5 675 7 q 532 -18 583 -18 q 459 -11 494 -18 q 386 16 424 -3 q 321 66 349 35 q 276 148 294 96 q 258 266 258 199 l 258 524 l 67 524 q 53 529 58 524 q 47 545 47 534 l 47 660 q 53 675 47 669 q 67 681 58 681 l 258 681 l 258 875 q 264 890 258 884 q 279 896 269 896 l 433 896 q 449 890 443 896 q 454 875 454 885 l 454 681 l 726 681 q 741 675 734 681 q 747 660 747 669 l 747 545 q 741 529 747 535 q 726 524 734 524 l 454 524 l 454 294 q 465 227 454 255 q 493 184 475 198 q 530 163 511 170 q 572 157 549 157 q 695 205 637 157 q 722 216 710 219 q 762 185 734 212 m 380 -125 l 682 -125 q 695 -130 690 -125 q 701 -144 701 -136 l 701 -207 q 673 -502 701 -398 q 650 -516 669 -515 l 551 -516 q 533 -496 531 -516 q 544 -271 545 -369 l 380 -271 q 366 -266 372 -271 q 361 -253 361 -261 l 361 -144 q 366 -130 361 -136 q 380 -125 372 -125 z "},"ȷ":{"ha":854,"x_min":105,"x_max":672,"o":"m 353 -267 q 264 -258 307 -267 q 189 -235 220 -250 q 136 -205 158 -221 q 106 -172 115 -189 q 105 -144 98 -156 l 161 -51 q 195 -45 172 -31 q 335 -90 264 -90 q 387 -83 363 -90 q 431 -60 410 -76 q 464 -14 452 -44 q 476 59 476 17 l 476 528 l 180 528 q 165 534 171 528 q 159 549 159 541 l 159 667 q 165 682 159 676 q 180 688 171 688 l 652 688 q 667 682 661 688 q 672 667 672 676 l 672 37 q 652 -85 672 -31 q 601 -173 633 -140 q 527 -228 570 -206 q 441 -259 484 -250 q 353 -267 399 -267 z "},"ə":{"ha":854,"x_min":83,"x_max":772,"o":"m 402 705 q 670 605 569 705 q 772 345 772 505 q 674 86 772 186 q 416 -14 576 -14 q 172 82 262 -14 q 83 330 83 177 q 95 386 83 369 q 149 402 108 402 l 585 401 q 522 512 578 473 q 380 551 467 551 q 231 517 300 551 q 199 512 212 507 q 165 543 186 517 q 141 586 143 570 q 157 621 139 602 q 258 681 194 658 q 402 705 323 705 m 415 151 q 523 181 479 151 q 578 273 566 212 l 256 273 q 308 182 267 212 q 415 151 350 151 z "},"ˆ":{"ha":854,"x_min":139,"x_max":715,"o":"m 311 820 l 156 820 q 139 827 143 820 q 144 845 136 835 l 299 1031 q 324 1042 309 1042 l 530 1042 q 555 1031 545 1042 l 711 845 q 715 827 719 835 q 698 820 711 820 l 543 820 q 518 831 527 820 l 427 936 l 336 831 q 311 820 328 820 z "},"ˇ":{"ha":854,"x_min":139,"x_max":715,"o":"m 530 820 l 324 820 q 299 831 309 820 l 144 1017 q 139 1034 136 1027 q 156 1042 143 1042 l 311 1042 q 336 1031 328 1042 l 427 926 l 518 1031 q 543 1042 527 1042 l 698 1042 q 715 1034 711 1042 q 711 1017 719 1027 l 555 831 q 530 820 545 820 z "},"˘":{"ha":854,"x_min":193,"x_max":661,"o":"m 590 874 q 559 845 590 874 q 427 817 528 817 q 264 874 326 817 q 193 1019 202 932 q 214 1042 191 1042 l 297 1042 q 319 1021 315 1042 q 355 964 327 988 q 427 940 384 940 q 498 964 470 940 q 534 1021 527 988 q 557 1042 539 1042 l 640 1042 q 661 1019 663 1042 q 590 874 652 932 z "},"˙":{"ha":854,"x_min":329,"x_max":525,"o":"m 496 873 q 482 859 496 873 q 427 844 467 844 q 358 873 387 844 q 329 944 329 902 q 358 1013 329 985 q 427 1042 387 1042 q 496 1013 467 1042 q 525 944 525 985 q 496 873 525 903 z "},"˚":{"ha":854,"x_min":285,"x_max":571,"o":"m 429 759 q 327 800 368 759 q 285 899 285 842 q 327 1000 285 958 q 429 1042 368 1042 q 530 1000 488 1042 q 571 899 571 958 q 530 800 571 842 q 429 759 488 759 m 429 861 q 459 872 447 861 q 471 902 471 884 q 458 931 470 920 q 429 942 446 942 q 398 931 410 942 q 387 901 387 920 q 398 871 387 882 q 429 861 410 861 z "},"˛":{"ha":854,"x_min":322,"x_max":594,"o":"m 580 -258 l 538 -258 q 461 -251 497 -258 q 393 -227 426 -243 q 341 -177 360 -210 q 322 -98 322 -144 q 337 -28 322 -59 q 376 20 353 2 q 434 50 400 38 q 499 65 467 61 q 569 68 532 68 l 569 0 q 488 -20 515 0 q 461 -71 461 -40 q 485 -120 461 -101 q 551 -140 509 -140 l 580 -140 q 594 -153 593 -140 l 594 -244 q 580 -258 593 -258 z "},"˜":{"ha":854,"x_min":153,"x_max":701,"o":"m 549 832 q 489 842 517 832 q 440 868 460 852 q 400 898 419 883 q 361 923 382 913 q 317 933 340 933 q 253 892 270 933 q 238 882 248 882 l 167 882 q 153 900 153 882 q 161 955 153 930 q 185 996 170 979 q 219 1023 199 1012 q 260 1039 239 1034 q 303 1044 281 1044 q 377 1028 342 1044 q 434 993 412 1012 q 483 958 455 974 q 537 942 511 942 q 579 954 562 942 q 602 983 595 966 q 616 994 606 994 l 688 994 q 701 980 701 994 q 678 895 701 929 q 622 846 655 860 q 549 832 588 832 z "},"˝":{"ha":854,"x_min":165,"x_max":688,"o":"m 319 827 l 181 827 q 165 833 170 827 q 165 850 160 839 l 248 1025 q 271 1042 256 1042 l 409 1042 q 426 1036 420 1042 q 426 1018 431 1029 l 342 843 q 319 827 335 827 m 581 827 l 444 827 q 427 833 432 827 q 427 850 422 839 l 511 1025 q 534 1042 518 1042 l 671 1042 q 688 1036 683 1042 q 688 1018 693 1029 l 605 843 q 581 827 597 827 z "},"̦":{"ha":0,"x_min":-599,"x_max":-259,"o":"m -580 -125 l -278 -125 q -264 -130 -270 -125 q -259 -144 -259 -136 l -259 -207 q -287 -502 -259 -398 q -310 -516 -290 -515 l -408 -516 q -427 -496 -429 -516 q -416 -271 -415 -369 l -580 -271 q -593 -266 -588 -271 q -599 -253 -599 -261 l -599 -144 q -593 -130 -599 -136 q -580 -125 -588 -125 z "},"ʹ":{"ha":854,"x_min":296,"x_max":557,"o":"m 451 827 l 313 827 q 297 833 302 827 q 296 850 292 839 l 380 1025 q 404 1042 387 1042 l 541 1042 q 557 1036 553 1042 q 557 1018 562 1029 l 474 843 q 451 827 467 827 z "},"͵":{"ha":854,"x_min":296,"x_max":557,"o":"m 451 69 l 313 69 q 297 76 302 69 q 296 93 292 82 l 380 268 q 404 285 387 285 l 541 285 q 557 278 553 285 q 557 261 562 272 l 474 86 q 451 69 467 69 z "},";":{"ha":854,"x_min":243,"x_max":619,"o":"m 528 459 q 507 439 528 459 q 427 418 486 418 q 326 459 368 418 q 284 560 284 501 q 326 661 284 619 q 427 703 368 703 q 528 661 486 703 q 570 560 570 619 q 528 459 570 501 m 264 163 l 599 163 q 614 157 608 163 q 619 142 619 151 l 619 71 q 589 -256 619 -138 q 563 -271 584 -271 l 454 -271 q 434 -249 432 -271 q 446 0 447 -108 l 264 0 q 250 5 256 0 q 243 21 243 11 l 243 142 q 250 157 243 151 q 264 163 256 163 z "},"΄":{"ha":854,"x_min":296,"x_max":557,"o":"m 451 827 l 313 827 q 297 833 302 827 q 296 850 292 839 l 380 1025 q 404 1042 387 1042 l 541 1042 q 557 1036 553 1042 q 557 1018 562 1029 l 474 843 q 451 827 467 827 z "},"΅":{"ha":854,"x_min":88,"x_max":766,"o":"m 456 757 l 319 757 q 302 763 307 757 q 302 781 297 770 l 385 956 q 409 972 393 972 l 547 972 q 563 966 558 972 q 563 949 568 960 l 480 774 q 456 757 473 757 m 255 786 q 241 771 255 786 q 186 757 227 757 q 117 786 146 757 q 88 857 88 814 q 117 926 88 897 q 186 954 146 954 q 255 926 227 954 q 284 857 284 897 q 255 786 284 815 m 737 786 q 722 771 737 786 q 668 757 708 757 q 599 786 628 757 q 570 857 570 814 q 599 926 570 897 q 668 954 628 954 q 737 926 708 954 q 766 857 766 897 q 737 786 766 815 z "},"Ά":{"ha":854,"x_min":-49,"x_max":808,"o":"m 212 907 l 129 732 q 106 715 121 715 l -32 715 q -48 722 -43 715 q -49 739 -54 728 l 35 914 q 58 930 42 931 l 196 930 q 212 924 208 930 q 212 907 217 918 m 577 914 l 808 24 q 791 0 814 0 l 628 0 q 604 17 608 0 l 568 171 l 286 171 l 250 17 q 227 0 247 0 l 62 0 q 46 24 40 0 l 277 914 q 300 930 281 931 l 553 930 q 577 914 573 931 m 416 720 l 327 343 l 527 343 l 438 720 l 416 720 z "},"·":{"ha":854,"x_min":284,"x_max":570,"o":"m 528 324 q 507 303 528 324 q 427 282 486 282 q 326 324 368 282 q 284 425 284 366 q 326 526 284 484 q 427 568 368 568 q 528 526 486 568 q 570 425 570 484 q 528 324 570 366 z "},"Έ":{"ha":854,"x_min":-217,"x_max":747,"o":"m -62 715 l -200 715 q -217 722 -212 715 q -216 739 -222 728 l -134 914 q -110 930 -126 931 l 28 930 q 44 924 39 930 q 45 907 50 918 l -39 732 q -62 715 -46 715 m 726 0 l 127 0 q 113 5 118 0 q 107 21 107 11 l 107 909 q 113 925 107 919 q 127 930 118 930 l 725 930 q 740 925 734 930 q 746 909 746 920 l 746 772 q 740 757 746 763 q 725 751 734 751 l 310 751 l 310 556 l 694 556 q 709 550 703 556 q 715 536 715 545 l 715 398 q 709 383 715 389 q 694 377 703 377 l 310 377 l 310 179 l 726 179 q 742 174 736 179 q 747 158 747 168 l 747 21 q 742 6 747 12 q 726 0 736 0 z "},"Ή":{"ha":854,"x_min":-231,"x_max":762,"o":"m -124 930 l 13 930 q 30 924 24 930 q 30 907 35 918 l -54 732 q -77 715 -61 715 l -214 715 q -231 722 -226 715 q -231 739 -236 728 l -148 914 q -124 930 -140 930 m 580 930 l 741 930 q 756 925 750 930 q 762 909 762 920 l 762 21 q 756 6 762 12 q 741 0 750 0 l 580 0 q 565 5 571 0 q 559 21 559 11 l 559 367 l 295 367 l 295 21 q 289 6 295 12 q 274 0 283 0 l 113 0 q 98 5 104 0 q 92 21 92 11 l 92 909 q 98 925 92 919 q 113 930 104 930 l 274 930 q 289 925 283 930 q 295 909 295 920 l 295 546 l 559 546 l 559 909 q 565 925 559 919 q 580 930 571 930 z "},"Ί":{"ha":854,"x_min":-231,"x_max":764,"o":"m -77 715 l -214 715 q -230 722 -225 715 q -231 739 -235 728 l -147 914 q -123 930 -140 931 l 14 930 q 30 924 25 930 q 31 907 35 918 l -53 732 q -77 715 -60 715 m 744 0 l 111 0 q 96 5 102 0 q 90 21 90 11 l 90 158 q 96 173 90 168 q 111 179 102 179 l 326 179 l 326 751 l 111 751 q 96 757 102 751 q 90 772 90 762 l 90 909 q 96 925 90 919 q 111 930 102 930 l 744 930 q 759 925 753 930 q 764 909 764 920 l 764 772 q 759 757 764 763 q 744 751 753 751 l 528 751 l 528 179 l 744 179 q 759 174 753 179 q 764 158 764 168 l 764 21 q 759 6 764 12 q 744 0 753 0 z "},"Ό":{"ha":854,"x_min":-166,"x_max":783,"o":"m 700 93 q 659 36 700 93 q 427 -21 618 -21 q 154 93 236 -21 q 71 462 71 208 q 154 831 71 717 q 427 945 236 945 q 700 831 618 945 q 783 462 783 717 q 700 93 783 208 m -12 715 l -149 715 q -166 722 -161 715 q -166 739 -171 728 l -83 914 q -59 930 -75 931 l 79 930 q 95 924 90 930 q 95 907 100 918 l 12 732 q -12 715 5 715 m 358 186 q 372 180 358 186 q 427 174 386 174 q 495 186 468 174 q 545 229 523 198 q 576 318 566 260 q 586 462 586 375 q 576 606 586 549 q 545 694 566 663 q 495 738 523 726 q 427 750 468 750 q 358 738 386 750 q 310 694 331 726 q 278 606 288 663 q 268 462 268 549 q 278 318 268 375 q 310 229 288 260 q 358 186 331 198 z "},"Ύ":{"ha":854,"x_min":-278,"x_max":812,"o":"m -171 930 l -33 930 q -17 924 -22 930 q -17 907 -12 918 l -100 732 q -123 715 -107 715 l -261 715 q -278 722 -273 715 q -278 739 -283 728 l -195 914 q -171 930 -187 930 m 626 930 l 796 930 q 812 924 808 930 q 810 905 816 917 l 528 359 l 528 21 q 523 6 528 12 q 508 0 517 0 l 347 0 q 332 5 338 0 q 326 21 326 11 l 326 362 l 45 905 q 42 923 39 916 q 58 930 46 930 l 229 930 q 254 917 247 930 l 427 553 l 601 917 q 626 930 608 930 z "},"Ώ":{"ha":854,"x_min":-164,"x_max":790,"o":"m 371 0 l 85 0 q 64 22 64 0 l 64 138 q 85 159 64 159 l 199 159 l 199 180 q 64 527 64 254 q 151 842 64 739 q 427 945 238 945 q 703 842 616 945 q 789 527 789 740 q 655 180 789 254 l 655 159 l 769 159 q 790 138 791 159 l 790 22 q 769 0 790 0 l 484 0 q 462 22 462 0 l 462 258 q 516 282 494 267 q 556 326 538 298 q 584 402 574 354 q 593 517 593 450 q 590 584 593 555 q 577 645 587 612 q 549 699 567 677 q 500 735 532 721 q 427 749 469 749 q 353 735 385 749 q 305 699 322 721 q 277 645 288 677 q 264 584 267 612 q 261 517 261 555 q 271 402 261 450 q 298 326 280 354 q 338 282 317 298 q 393 258 360 267 l 393 22 q 371 0 393 0 m -9 715 l -147 715 q -164 722 -159 715 q -164 739 -169 728 l -81 914 q -57 930 -73 931 l 81 930 q 97 924 92 930 q 97 907 102 918 l 14 732 q -9 715 7 715 z "}}}
